G04 #@! TF.GenerationSoftware,KiCad,Pcbnew,(5.1.5)-3*
G04 #@! TF.CreationDate,2021-03-21T22:58:17-03:00*
G04 #@! TF.ProjectId,4164-41256 Tester,34313634-2d34-4313-9235-362054657374,rev?*
G04 #@! TF.SameCoordinates,Original*
G04 #@! TF.FileFunction,Copper,L1,Top*
G04 #@! TF.FilePolarity,Positive*
%FSLAX46Y46*%
G04 Gerber Fmt 4.6, Leading zero omitted, Abs format (unit mm)*
G04 Created by KiCad (PCBNEW (5.1.5)-3) date 2021-03-21 22:58:17*
%MOMM*%
%LPD*%
G04 APERTURE LIST*
%ADD10O,1.600000X1.600000*%
%ADD11R,1.600000X1.600000*%
%ADD12C,1.371600*%
%ADD13R,1.371600X1.371600*%
%ADD14C,1.458000*%
%ADD15R,1.458000X1.458000*%
%ADD16O,2.400000X1.600000*%
%ADD17R,2.400000X1.600000*%
%ADD18O,2.250000X4.500000*%
%ADD19O,4.500000X2.250000*%
%ADD20O,5.000000X2.500000*%
%ADD21C,2.850000*%
%ADD22R,2.850000X2.850000*%
%ADD23C,1.800000*%
%ADD24R,1.800000X1.800000*%
%ADD25C,0.800000*%
%ADD26C,0.250000*%
%ADD27C,0.254000*%
G04 APERTURE END LIST*
D10*
X123190000Y-89535000D03*
X138430000Y-89535000D03*
X123190000Y-125095000D03*
X138430000Y-92075000D03*
X123190000Y-122555000D03*
X138430000Y-94615000D03*
X123190000Y-120015000D03*
X138430000Y-97155000D03*
X123190000Y-117475000D03*
X138430000Y-99695000D03*
X123190000Y-114935000D03*
X138430000Y-102235000D03*
X123190000Y-112395000D03*
X138430000Y-104775000D03*
X123190000Y-109855000D03*
X138430000Y-107315000D03*
X123190000Y-107315000D03*
X138430000Y-109855000D03*
X123190000Y-104775000D03*
X138430000Y-112395000D03*
X123190000Y-102235000D03*
X138430000Y-114935000D03*
X123190000Y-99695000D03*
X138430000Y-117475000D03*
X123190000Y-97155000D03*
X138430000Y-120015000D03*
X123190000Y-94615000D03*
X138430000Y-122555000D03*
X123190000Y-92075000D03*
D11*
X138430000Y-125095000D03*
D12*
X113919000Y-125730000D03*
D13*
X102235000Y-125730000D03*
D14*
X88090000Y-144740000D03*
X88090000Y-139740000D03*
X82090000Y-139740000D03*
D15*
X82090000Y-144740000D03*
D16*
X87630000Y-92710000D03*
X80010000Y-110490000D03*
X87630000Y-95250000D03*
X80010000Y-107950000D03*
X87630000Y-97790000D03*
X80010000Y-105410000D03*
X87630000Y-100330000D03*
X80010000Y-102870000D03*
X87630000Y-102870000D03*
X80010000Y-100330000D03*
X87630000Y-105410000D03*
X80010000Y-97790000D03*
X87630000Y-107950000D03*
X80010000Y-95250000D03*
X87630000Y-110490000D03*
D17*
X80010000Y-92710000D03*
D18*
X103250000Y-90980000D03*
D19*
X107950000Y-87980000D03*
D20*
X107950000Y-93980000D03*
D12*
X113919000Y-129540000D03*
D13*
X102235000Y-129540000D03*
D12*
X113919000Y-121920000D03*
D13*
X102235000Y-121920000D03*
D21*
X119255000Y-142240000D03*
X114555000Y-142240000D03*
D22*
X109855000Y-142240000D03*
D23*
X93980000Y-126365000D03*
D24*
X91440000Y-126365000D03*
D23*
X78740000Y-126365000D03*
D24*
X76200000Y-126365000D03*
D25*
X91440000Y-92710000D03*
X91440000Y-86995000D03*
X133931001Y-139011001D03*
D26*
X102235000Y-128604200D02*
X102235000Y-125730000D01*
X102235000Y-129540000D02*
X102235000Y-128604200D01*
X102235000Y-125730000D02*
X102235000Y-121920000D01*
X116205000Y-113665000D02*
X120015000Y-109855000D01*
X120015000Y-109855000D02*
X123190000Y-109855000D01*
X81460000Y-105410000D02*
X82550000Y-106500000D01*
X80010000Y-105410000D02*
X81460000Y-105410000D01*
X83185000Y-113665000D02*
X116205000Y-113665000D01*
X82550000Y-106500000D02*
X82550000Y-113030000D01*
X82550000Y-113030000D02*
X83185000Y-113665000D01*
X80010000Y-102870000D02*
X81460000Y-102870000D01*
X82957500Y-104367500D02*
X83185000Y-104595000D01*
X81460000Y-102870000D02*
X82957500Y-104367500D01*
X118745000Y-109855000D02*
X121285000Y-107315000D01*
X118743590Y-109855000D02*
X118745000Y-109855000D01*
X83185705Y-104595705D02*
X83185705Y-112395705D01*
X121285000Y-107315000D02*
X123190000Y-107315000D01*
X83186410Y-112395000D02*
X116203590Y-112395000D01*
X116203590Y-112395000D02*
X118743590Y-109855000D01*
X82957500Y-104367500D02*
X83185705Y-104595705D01*
X83185705Y-112395705D02*
X83186410Y-112395000D01*
X80010000Y-100330000D02*
X78560000Y-100330000D01*
X122058630Y-104775000D02*
X123190000Y-104775000D01*
X81460000Y-100330000D02*
X85090000Y-96700000D01*
X80010000Y-100330000D02*
X81460000Y-100330000D01*
X93345000Y-90805000D02*
X107315000Y-104775000D01*
X85090000Y-96700000D02*
X85090000Y-91440000D01*
X107315000Y-104775000D02*
X122058630Y-104775000D01*
X85090000Y-91440000D02*
X85725000Y-90805000D01*
X85725000Y-90805000D02*
X93345000Y-90805000D01*
X138430000Y-112395000D02*
X134620000Y-108585000D01*
X134620000Y-108585000D02*
X134620000Y-86360000D01*
X134620000Y-86360000D02*
X132715000Y-84455000D01*
X122058630Y-102235000D02*
X123190000Y-102235000D01*
X80010000Y-97790000D02*
X80410000Y-97790000D01*
X93980000Y-90170000D02*
X106045000Y-102235000D01*
X81460000Y-97790000D02*
X83820000Y-95430000D01*
X83820000Y-90805000D02*
X84455000Y-90170000D01*
X80010000Y-97790000D02*
X81460000Y-97790000D01*
X106045000Y-102235000D02*
X123190000Y-102235000D01*
X83820000Y-95430000D02*
X83820000Y-90805000D01*
X84455000Y-90170000D02*
X93980000Y-90170000D01*
X104775000Y-99695000D02*
X123190000Y-99695000D01*
X94615000Y-89535000D02*
X104775000Y-99695000D01*
X81460000Y-95250000D02*
X82550000Y-94160000D01*
X80010000Y-95250000D02*
X81460000Y-95250000D01*
X82550000Y-94160000D02*
X82550000Y-90805000D01*
X82550000Y-90805000D02*
X83820000Y-89535000D01*
X83820000Y-89535000D02*
X94615000Y-89535000D01*
X121920000Y-97155000D02*
X123190000Y-97155000D01*
X94932500Y-88900000D02*
X103187500Y-97155000D01*
X82770000Y-88900000D02*
X94932500Y-88900000D01*
X80010000Y-92710000D02*
X80010000Y-91660000D01*
X103187500Y-97155000D02*
X123190000Y-97155000D01*
X80010000Y-91660000D02*
X82770000Y-88900000D01*
X118110000Y-131826000D02*
X118110000Y-134620000D01*
X118110000Y-134620000D02*
X116840000Y-135890000D01*
X116840000Y-135890000D02*
X98425000Y-135890000D01*
X98425000Y-135890000D02*
X93980000Y-131445000D01*
X93980000Y-131445000D02*
X93980000Y-127635000D01*
X93980000Y-127635000D02*
X93980000Y-126365000D01*
X116014500Y-129730500D02*
X115760500Y-129730500D01*
X116014500Y-129730500D02*
X118110000Y-131826000D01*
X115824000Y-129540000D02*
X116014500Y-129730500D01*
X115570000Y-129540000D02*
X113919000Y-129540000D01*
X115760500Y-129730500D02*
X115570000Y-129540000D01*
X115824000Y-125730000D02*
X116793867Y-125730000D01*
X115824000Y-125730000D02*
X113919000Y-125730000D01*
X114555000Y-142240000D02*
X114935000Y-142240000D01*
X120650000Y-135255000D02*
X120650000Y-129540000D01*
X116793867Y-125730000D02*
X120650000Y-129540000D01*
X120650000Y-129540000D02*
X120650000Y-129586133D01*
X120650000Y-136145000D02*
X114555000Y-142240000D01*
X120650000Y-135255000D02*
X120650000Y-136145000D01*
X142240000Y-98425000D02*
X142240000Y-134620000D01*
X120650000Y-135890000D02*
X120650000Y-135255000D01*
X138430000Y-94615000D02*
X142240000Y-98425000D01*
X142240000Y-134620000D02*
X134620000Y-142240000D01*
X134620000Y-142240000D02*
X127000000Y-142240000D01*
X127000000Y-142240000D02*
X120650000Y-135890000D01*
X80010000Y-113030000D02*
X80010000Y-110490000D01*
X83185000Y-116205000D02*
X80010000Y-113030000D01*
X97455800Y-116205000D02*
X83185000Y-116205000D01*
X102235000Y-121920000D02*
X102235000Y-120984200D01*
X102235000Y-120984200D02*
X97455800Y-116205000D01*
X91440000Y-93275685D02*
X91440000Y-92710000D01*
X87630000Y-110490000D02*
X89080000Y-110490000D01*
X91440000Y-108130000D02*
X91440000Y-93275685D01*
X89080000Y-110490000D02*
X91440000Y-108130000D01*
X93980000Y-84455000D02*
X91440000Y-86995000D01*
X132715000Y-84455000D02*
X93980000Y-84455000D01*
X140335000Y-120015000D02*
X139561370Y-120015000D01*
X139561370Y-120015000D02*
X138430000Y-120015000D01*
X133931001Y-139011001D02*
X140970000Y-131972002D01*
X140970000Y-131972002D02*
X140970000Y-120650000D01*
X140970000Y-120650000D02*
X140335000Y-120015000D01*
D27*
G36*
X145288000Y-148463000D02*
G01*
X70612000Y-148463000D01*
X70612000Y-145204721D01*
X71525000Y-145204721D01*
X71525000Y-145625279D01*
X71607047Y-146037756D01*
X71767988Y-146426302D01*
X72001637Y-146775983D01*
X72299017Y-147073363D01*
X72648698Y-147307012D01*
X73037244Y-147467953D01*
X73449721Y-147550000D01*
X73870279Y-147550000D01*
X74282756Y-147467953D01*
X74671302Y-147307012D01*
X75020983Y-147073363D01*
X75318363Y-146775983D01*
X75552012Y-146426302D01*
X75712953Y-146037756D01*
X75795000Y-145625279D01*
X75795000Y-145469000D01*
X80722928Y-145469000D01*
X80735188Y-145593482D01*
X80771498Y-145713180D01*
X80830463Y-145823494D01*
X80909815Y-145920185D01*
X81006506Y-145999537D01*
X81116820Y-146058502D01*
X81236518Y-146094812D01*
X81361000Y-146107072D01*
X81804250Y-146104000D01*
X81963000Y-145945250D01*
X81963000Y-144867000D01*
X82217000Y-144867000D01*
X82217000Y-145945250D01*
X82375750Y-146104000D01*
X82819000Y-146107072D01*
X82943482Y-146094812D01*
X83063180Y-146058502D01*
X83173494Y-145999537D01*
X83270185Y-145920185D01*
X83349537Y-145823494D01*
X83408502Y-145713180D01*
X83417963Y-145681991D01*
X87327614Y-145681991D01*
X87390593Y-145918717D01*
X87633988Y-146032516D01*
X87894906Y-146096644D01*
X88163323Y-146108637D01*
X88428922Y-146068034D01*
X88681496Y-145976396D01*
X88789407Y-145918717D01*
X88852386Y-145681991D01*
X88090000Y-144919605D01*
X87327614Y-145681991D01*
X83417963Y-145681991D01*
X83444812Y-145593482D01*
X83457072Y-145469000D01*
X83454000Y-145025750D01*
X83295250Y-144867000D01*
X82217000Y-144867000D01*
X81963000Y-144867000D01*
X80884750Y-144867000D01*
X80726000Y-145025750D01*
X80722928Y-145469000D01*
X75795000Y-145469000D01*
X75795000Y-145204721D01*
X75717146Y-144813323D01*
X86721363Y-144813323D01*
X86761966Y-145078922D01*
X86853604Y-145331496D01*
X86911283Y-145439407D01*
X87148009Y-145502386D01*
X87910395Y-144740000D01*
X88269605Y-144740000D01*
X89031991Y-145502386D01*
X89268717Y-145439407D01*
X89378444Y-145204721D01*
X140105000Y-145204721D01*
X140105000Y-145625279D01*
X140187047Y-146037756D01*
X140347988Y-146426302D01*
X140581637Y-146775983D01*
X140879017Y-147073363D01*
X141228698Y-147307012D01*
X141617244Y-147467953D01*
X142029721Y-147550000D01*
X142450279Y-147550000D01*
X142862756Y-147467953D01*
X143251302Y-147307012D01*
X143600983Y-147073363D01*
X143898363Y-146775983D01*
X144132012Y-146426302D01*
X144292953Y-146037756D01*
X144375000Y-145625279D01*
X144375000Y-145204721D01*
X144292953Y-144792244D01*
X144132012Y-144403698D01*
X143898363Y-144054017D01*
X143600983Y-143756637D01*
X143251302Y-143522988D01*
X142862756Y-143362047D01*
X142450279Y-143280000D01*
X142029721Y-143280000D01*
X141617244Y-143362047D01*
X141228698Y-143522988D01*
X140879017Y-143756637D01*
X140581637Y-144054017D01*
X140347988Y-144403698D01*
X140187047Y-144792244D01*
X140105000Y-145204721D01*
X89378444Y-145204721D01*
X89382516Y-145196012D01*
X89446644Y-144935094D01*
X89458637Y-144666677D01*
X89418034Y-144401078D01*
X89326396Y-144148504D01*
X89268717Y-144040593D01*
X89031991Y-143977614D01*
X88269605Y-144740000D01*
X87910395Y-144740000D01*
X87148009Y-143977614D01*
X86911283Y-144040593D01*
X86797484Y-144283988D01*
X86733356Y-144544906D01*
X86721363Y-144813323D01*
X75717146Y-144813323D01*
X75712953Y-144792244D01*
X75552012Y-144403698D01*
X75318363Y-144054017D01*
X75275346Y-144011000D01*
X80722928Y-144011000D01*
X80726000Y-144454250D01*
X80884750Y-144613000D01*
X81963000Y-144613000D01*
X81963000Y-143534750D01*
X82217000Y-143534750D01*
X82217000Y-144613000D01*
X83295250Y-144613000D01*
X83454000Y-144454250D01*
X83457072Y-144011000D01*
X83444812Y-143886518D01*
X83417964Y-143798009D01*
X87327614Y-143798009D01*
X88090000Y-144560395D01*
X88852386Y-143798009D01*
X88817001Y-143665000D01*
X107791928Y-143665000D01*
X107804188Y-143789482D01*
X107840498Y-143909180D01*
X107899463Y-144019494D01*
X107978815Y-144116185D01*
X108075506Y-144195537D01*
X108185820Y-144254502D01*
X108305518Y-144290812D01*
X108430000Y-144303072D01*
X109569250Y-144300000D01*
X109728000Y-144141250D01*
X109728000Y-142367000D01*
X109982000Y-142367000D01*
X109982000Y-144141250D01*
X110140750Y-144300000D01*
X111280000Y-144303072D01*
X111404482Y-144290812D01*
X111524180Y-144254502D01*
X111634494Y-144195537D01*
X111731185Y-144116185D01*
X111810537Y-144019494D01*
X111869502Y-143909180D01*
X111905812Y-143789482D01*
X111918072Y-143665000D01*
X111915000Y-142525750D01*
X111756250Y-142367000D01*
X109982000Y-142367000D01*
X109728000Y-142367000D01*
X107953750Y-142367000D01*
X107795000Y-142525750D01*
X107791928Y-143665000D01*
X88817001Y-143665000D01*
X88789407Y-143561283D01*
X88546012Y-143447484D01*
X88285094Y-143383356D01*
X88016677Y-143371363D01*
X87751078Y-143411966D01*
X87498504Y-143503604D01*
X87390593Y-143561283D01*
X87327614Y-143798009D01*
X83417964Y-143798009D01*
X83408502Y-143766820D01*
X83349537Y-143656506D01*
X83270185Y-143559815D01*
X83173494Y-143480463D01*
X83063180Y-143421498D01*
X82943482Y-143385188D01*
X82819000Y-143372928D01*
X82375750Y-143376000D01*
X82217000Y-143534750D01*
X81963000Y-143534750D01*
X81804250Y-143376000D01*
X81361000Y-143372928D01*
X81236518Y-143385188D01*
X81116820Y-143421498D01*
X81006506Y-143480463D01*
X80909815Y-143559815D01*
X80830463Y-143656506D01*
X80771498Y-143766820D01*
X80735188Y-143886518D01*
X80722928Y-144011000D01*
X75275346Y-144011000D01*
X75020983Y-143756637D01*
X74671302Y-143522988D01*
X74282756Y-143362047D01*
X73870279Y-143280000D01*
X73449721Y-143280000D01*
X73037244Y-143362047D01*
X72648698Y-143522988D01*
X72299017Y-143756637D01*
X72001637Y-144054017D01*
X71767988Y-144403698D01*
X71607047Y-144792244D01*
X71525000Y-145204721D01*
X70612000Y-145204721D01*
X70612000Y-139605658D01*
X80726000Y-139605658D01*
X80726000Y-139874342D01*
X80778418Y-140137864D01*
X80881239Y-140386096D01*
X81030512Y-140609499D01*
X81220501Y-140799488D01*
X81443904Y-140948761D01*
X81692136Y-141051582D01*
X81955658Y-141104000D01*
X82224342Y-141104000D01*
X82487864Y-141051582D01*
X82736096Y-140948761D01*
X82959499Y-140799488D01*
X83149488Y-140609499D01*
X83298761Y-140386096D01*
X83401582Y-140137864D01*
X83454000Y-139874342D01*
X83454000Y-139605658D01*
X86726000Y-139605658D01*
X86726000Y-139874342D01*
X86778418Y-140137864D01*
X86881239Y-140386096D01*
X87030512Y-140609499D01*
X87220501Y-140799488D01*
X87443904Y-140948761D01*
X87692136Y-141051582D01*
X87955658Y-141104000D01*
X88224342Y-141104000D01*
X88487864Y-141051582D01*
X88736096Y-140948761D01*
X88936283Y-140815000D01*
X107791928Y-140815000D01*
X107795000Y-141954250D01*
X107953750Y-142113000D01*
X109728000Y-142113000D01*
X109728000Y-140338750D01*
X109982000Y-140338750D01*
X109982000Y-142113000D01*
X111756250Y-142113000D01*
X111915000Y-141954250D01*
X111918072Y-140815000D01*
X111905812Y-140690518D01*
X111869502Y-140570820D01*
X111810537Y-140460506D01*
X111731185Y-140363815D01*
X111634494Y-140284463D01*
X111524180Y-140225498D01*
X111404482Y-140189188D01*
X111280000Y-140176928D01*
X110140750Y-140180000D01*
X109982000Y-140338750D01*
X109728000Y-140338750D01*
X109569250Y-140180000D01*
X108430000Y-140176928D01*
X108305518Y-140189188D01*
X108185820Y-140225498D01*
X108075506Y-140284463D01*
X107978815Y-140363815D01*
X107899463Y-140460506D01*
X107840498Y-140570820D01*
X107804188Y-140690518D01*
X107791928Y-140815000D01*
X88936283Y-140815000D01*
X88959499Y-140799488D01*
X89149488Y-140609499D01*
X89298761Y-140386096D01*
X89401582Y-140137864D01*
X89454000Y-139874342D01*
X89454000Y-139605658D01*
X89401582Y-139342136D01*
X89298761Y-139093904D01*
X89149488Y-138870501D01*
X88959499Y-138680512D01*
X88736096Y-138531239D01*
X88487864Y-138428418D01*
X88224342Y-138376000D01*
X87955658Y-138376000D01*
X87692136Y-138428418D01*
X87443904Y-138531239D01*
X87220501Y-138680512D01*
X87030512Y-138870501D01*
X86881239Y-139093904D01*
X86778418Y-139342136D01*
X86726000Y-139605658D01*
X83454000Y-139605658D01*
X83401582Y-139342136D01*
X83298761Y-139093904D01*
X83149488Y-138870501D01*
X82959499Y-138680512D01*
X82736096Y-138531239D01*
X82487864Y-138428418D01*
X82224342Y-138376000D01*
X81955658Y-138376000D01*
X81692136Y-138428418D01*
X81443904Y-138531239D01*
X81220501Y-138680512D01*
X81030512Y-138870501D01*
X80881239Y-139093904D01*
X80778418Y-139342136D01*
X80726000Y-139605658D01*
X70612000Y-139605658D01*
X70612000Y-125465000D01*
X74661928Y-125465000D01*
X74661928Y-127265000D01*
X74674188Y-127389482D01*
X74710498Y-127509180D01*
X74769463Y-127619494D01*
X74848815Y-127716185D01*
X74945506Y-127795537D01*
X75055820Y-127854502D01*
X75175518Y-127890812D01*
X75300000Y-127903072D01*
X77100000Y-127903072D01*
X77224482Y-127890812D01*
X77344180Y-127854502D01*
X77454494Y-127795537D01*
X77551185Y-127716185D01*
X77630537Y-127619494D01*
X77689502Y-127509180D01*
X77695056Y-127490873D01*
X77761495Y-127557312D01*
X78012905Y-127725299D01*
X78292257Y-127841011D01*
X78588816Y-127900000D01*
X78891184Y-127900000D01*
X79187743Y-127841011D01*
X79467095Y-127725299D01*
X79718505Y-127557312D01*
X79932312Y-127343505D01*
X80100299Y-127092095D01*
X80216011Y-126812743D01*
X80275000Y-126516184D01*
X80275000Y-126213816D01*
X80216011Y-125917257D01*
X80100299Y-125637905D01*
X79984768Y-125465000D01*
X89901928Y-125465000D01*
X89901928Y-127265000D01*
X89914188Y-127389482D01*
X89950498Y-127509180D01*
X90009463Y-127619494D01*
X90088815Y-127716185D01*
X90185506Y-127795537D01*
X90295820Y-127854502D01*
X90415518Y-127890812D01*
X90540000Y-127903072D01*
X92340000Y-127903072D01*
X92464482Y-127890812D01*
X92584180Y-127854502D01*
X92694494Y-127795537D01*
X92791185Y-127716185D01*
X92870537Y-127619494D01*
X92929502Y-127509180D01*
X92935056Y-127490873D01*
X93001495Y-127557312D01*
X93220001Y-127703313D01*
X93220000Y-131407677D01*
X93216324Y-131445000D01*
X93220000Y-131482322D01*
X93220000Y-131482332D01*
X93230997Y-131593985D01*
X93257015Y-131679756D01*
X93274454Y-131737246D01*
X93345026Y-131869276D01*
X93384871Y-131917826D01*
X93439999Y-131985001D01*
X93469003Y-132008804D01*
X97861200Y-136401002D01*
X97884999Y-136430001D01*
X98000724Y-136524974D01*
X98132753Y-136595546D01*
X98276014Y-136639003D01*
X98387667Y-136650000D01*
X98387676Y-136650000D01*
X98424999Y-136653676D01*
X98462322Y-136650000D01*
X116802678Y-136650000D01*
X116840000Y-136653676D01*
X116877322Y-136650000D01*
X116877333Y-136650000D01*
X116988986Y-136639003D01*
X117132247Y-136595546D01*
X117264276Y-136524974D01*
X117380001Y-136430001D01*
X117403804Y-136400997D01*
X118621003Y-135183799D01*
X118650001Y-135160001D01*
X118744974Y-135044276D01*
X118815546Y-134912247D01*
X118859003Y-134768986D01*
X118870000Y-134657333D01*
X118870000Y-134657324D01*
X118873676Y-134620001D01*
X118870000Y-134582678D01*
X118870000Y-131863333D01*
X118873677Y-131826000D01*
X118864936Y-131737247D01*
X118859003Y-131677014D01*
X118815546Y-131533753D01*
X118744974Y-131401724D01*
X118650001Y-131285999D01*
X118621004Y-131262202D01*
X116578304Y-129219503D01*
X116554501Y-129190499D01*
X116525497Y-129166696D01*
X116335002Y-128976201D01*
X116248276Y-128905026D01*
X116116246Y-128834454D01*
X115972985Y-128790998D01*
X115824000Y-128776324D01*
X115697006Y-128788832D01*
X115607333Y-128780000D01*
X115607322Y-128780000D01*
X115570000Y-128776324D01*
X115532678Y-128780000D01*
X114999698Y-128780000D01*
X114944933Y-128698039D01*
X114760961Y-128514067D01*
X114544634Y-128369522D01*
X114304263Y-128269957D01*
X114049087Y-128219200D01*
X113788913Y-128219200D01*
X113533737Y-128269957D01*
X113293366Y-128369522D01*
X113077039Y-128514067D01*
X112893067Y-128698039D01*
X112748522Y-128914366D01*
X112648957Y-129154737D01*
X112598200Y-129409913D01*
X112598200Y-129670087D01*
X112648957Y-129925263D01*
X112748522Y-130165634D01*
X112893067Y-130381961D01*
X113077039Y-130565933D01*
X113293366Y-130710478D01*
X113533737Y-130810043D01*
X113788913Y-130860800D01*
X114049087Y-130860800D01*
X114304263Y-130810043D01*
X114544634Y-130710478D01*
X114760961Y-130565933D01*
X114944933Y-130381961D01*
X114999698Y-130300000D01*
X115256444Y-130300000D01*
X115336224Y-130365474D01*
X115468253Y-130436046D01*
X115611514Y-130479503D01*
X115697135Y-130487936D01*
X117350000Y-132140802D01*
X117350001Y-134305197D01*
X116525199Y-135130000D01*
X98739802Y-135130000D01*
X94740000Y-131130199D01*
X94740000Y-127703313D01*
X94958505Y-127557312D01*
X95172312Y-127343505D01*
X95340299Y-127092095D01*
X95456011Y-126812743D01*
X95515000Y-126516184D01*
X95515000Y-126213816D01*
X95456011Y-125917257D01*
X95340299Y-125637905D01*
X95172312Y-125386495D01*
X94958505Y-125172688D01*
X94707095Y-125004701D01*
X94427743Y-124888989D01*
X94131184Y-124830000D01*
X93828816Y-124830000D01*
X93532257Y-124888989D01*
X93252905Y-125004701D01*
X93001495Y-125172688D01*
X92935056Y-125239127D01*
X92929502Y-125220820D01*
X92870537Y-125110506D01*
X92791185Y-125013815D01*
X92694494Y-124934463D01*
X92584180Y-124875498D01*
X92464482Y-124839188D01*
X92340000Y-124826928D01*
X90540000Y-124826928D01*
X90415518Y-124839188D01*
X90295820Y-124875498D01*
X90185506Y-124934463D01*
X90088815Y-125013815D01*
X90009463Y-125110506D01*
X89950498Y-125220820D01*
X89914188Y-125340518D01*
X89901928Y-125465000D01*
X79984768Y-125465000D01*
X79932312Y-125386495D01*
X79718505Y-125172688D01*
X79467095Y-125004701D01*
X79187743Y-124888989D01*
X78891184Y-124830000D01*
X78588816Y-124830000D01*
X78292257Y-124888989D01*
X78012905Y-125004701D01*
X77761495Y-125172688D01*
X77695056Y-125239127D01*
X77689502Y-125220820D01*
X77630537Y-125110506D01*
X77551185Y-125013815D01*
X77454494Y-124934463D01*
X77344180Y-124875498D01*
X77224482Y-124839188D01*
X77100000Y-124826928D01*
X75300000Y-124826928D01*
X75175518Y-124839188D01*
X75055820Y-124875498D01*
X74945506Y-124934463D01*
X74848815Y-125013815D01*
X74769463Y-125110506D01*
X74710498Y-125220820D01*
X74674188Y-125340518D01*
X74661928Y-125465000D01*
X70612000Y-125465000D01*
X70612000Y-100330000D01*
X77796323Y-100330000D01*
X77810997Y-100478986D01*
X77854454Y-100622247D01*
X77925026Y-100754276D01*
X78019999Y-100870001D01*
X78135724Y-100964974D01*
X78267753Y-101035546D01*
X78377843Y-101068941D01*
X78411068Y-101131101D01*
X78590392Y-101349608D01*
X78808899Y-101528932D01*
X78941858Y-101600000D01*
X78808899Y-101671068D01*
X78590392Y-101850392D01*
X78411068Y-102068899D01*
X78277818Y-102318192D01*
X78195764Y-102588691D01*
X78168057Y-102870000D01*
X78195764Y-103151309D01*
X78277818Y-103421808D01*
X78411068Y-103671101D01*
X78590392Y-103889608D01*
X78808899Y-104068932D01*
X78941858Y-104140000D01*
X78808899Y-104211068D01*
X78590392Y-104390392D01*
X78411068Y-104608899D01*
X78277818Y-104858192D01*
X78195764Y-105128691D01*
X78168057Y-105410000D01*
X78195764Y-105691309D01*
X78277818Y-105961808D01*
X78411068Y-106211101D01*
X78590392Y-106429608D01*
X78808899Y-106608932D01*
X78941858Y-106680000D01*
X78808899Y-106751068D01*
X78590392Y-106930392D01*
X78411068Y-107148899D01*
X78277818Y-107398192D01*
X78195764Y-107668691D01*
X78168057Y-107950000D01*
X78195764Y-108231309D01*
X78277818Y-108501808D01*
X78411068Y-108751101D01*
X78590392Y-108969608D01*
X78808899Y-109148932D01*
X78941858Y-109220000D01*
X78808899Y-109291068D01*
X78590392Y-109470392D01*
X78411068Y-109688899D01*
X78277818Y-109938192D01*
X78195764Y-110208691D01*
X78168057Y-110490000D01*
X78195764Y-110771309D01*
X78277818Y-111041808D01*
X78411068Y-111291101D01*
X78590392Y-111509608D01*
X78808899Y-111688932D01*
X79058192Y-111822182D01*
X79250000Y-111880366D01*
X79250000Y-112992677D01*
X79246324Y-113030000D01*
X79250000Y-113067322D01*
X79250000Y-113067332D01*
X79260997Y-113178985D01*
X79300666Y-113309759D01*
X79304454Y-113322246D01*
X79375026Y-113454276D01*
X79412551Y-113500000D01*
X79469999Y-113570001D01*
X79499003Y-113593804D01*
X82621200Y-116716002D01*
X82644999Y-116745001D01*
X82673997Y-116768799D01*
X82760723Y-116839974D01*
X82892753Y-116910546D01*
X83036014Y-116954003D01*
X83147667Y-116965000D01*
X83147676Y-116965000D01*
X83184999Y-116968676D01*
X83222322Y-116965000D01*
X97140999Y-116965000D01*
X101035359Y-120859362D01*
X101018663Y-120879706D01*
X100959698Y-120990020D01*
X100923388Y-121109718D01*
X100911128Y-121234200D01*
X100911128Y-122605800D01*
X100923388Y-122730282D01*
X100959698Y-122849980D01*
X101018663Y-122960294D01*
X101098015Y-123056985D01*
X101194706Y-123136337D01*
X101305020Y-123195302D01*
X101424718Y-123231612D01*
X101475001Y-123236564D01*
X101475000Y-124413436D01*
X101424718Y-124418388D01*
X101305020Y-124454698D01*
X101194706Y-124513663D01*
X101098015Y-124593015D01*
X101018663Y-124689706D01*
X100959698Y-124800020D01*
X100923388Y-124919718D01*
X100911128Y-125044200D01*
X100911128Y-126415800D01*
X100923388Y-126540282D01*
X100959698Y-126659980D01*
X101018663Y-126770294D01*
X101098015Y-126866985D01*
X101194706Y-126946337D01*
X101305020Y-127005302D01*
X101424718Y-127041612D01*
X101475001Y-127046564D01*
X101475000Y-128223436D01*
X101424718Y-128228388D01*
X101305020Y-128264698D01*
X101194706Y-128323663D01*
X101098015Y-128403015D01*
X101018663Y-128499706D01*
X100959698Y-128610020D01*
X100923388Y-128729718D01*
X100911128Y-128854200D01*
X100911128Y-130225800D01*
X100923388Y-130350282D01*
X100959698Y-130469980D01*
X101018663Y-130580294D01*
X101098015Y-130676985D01*
X101194706Y-130756337D01*
X101305020Y-130815302D01*
X101424718Y-130851612D01*
X101549200Y-130863872D01*
X102920800Y-130863872D01*
X103045282Y-130851612D01*
X103164980Y-130815302D01*
X103275294Y-130756337D01*
X103371985Y-130676985D01*
X103451337Y-130580294D01*
X103510302Y-130469980D01*
X103546612Y-130350282D01*
X103558872Y-130225800D01*
X103558872Y-128854200D01*
X103546612Y-128729718D01*
X103510302Y-128610020D01*
X103451337Y-128499706D01*
X103371985Y-128403015D01*
X103275294Y-128323663D01*
X103164980Y-128264698D01*
X103045282Y-128228388D01*
X102995000Y-128223436D01*
X102995000Y-127046564D01*
X103045282Y-127041612D01*
X103164980Y-127005302D01*
X103275294Y-126946337D01*
X103371985Y-126866985D01*
X103451337Y-126770294D01*
X103510302Y-126659980D01*
X103546612Y-126540282D01*
X103558872Y-126415800D01*
X103558872Y-125044200D01*
X103546612Y-124919718D01*
X103510302Y-124800020D01*
X103451337Y-124689706D01*
X103371985Y-124593015D01*
X103275294Y-124513663D01*
X103164980Y-124454698D01*
X103045282Y-124418388D01*
X102995000Y-124413436D01*
X102995000Y-123236564D01*
X103045282Y-123231612D01*
X103164980Y-123195302D01*
X103275294Y-123136337D01*
X103371985Y-123056985D01*
X103451337Y-122960294D01*
X103510302Y-122849980D01*
X103546612Y-122730282D01*
X103558872Y-122605800D01*
X103558872Y-121789913D01*
X112598200Y-121789913D01*
X112598200Y-122050087D01*
X112648957Y-122305263D01*
X112748522Y-122545634D01*
X112893067Y-122761961D01*
X113077039Y-122945933D01*
X113293366Y-123090478D01*
X113533737Y-123190043D01*
X113788913Y-123240800D01*
X114049087Y-123240800D01*
X114304263Y-123190043D01*
X114544634Y-123090478D01*
X114760961Y-122945933D01*
X114944933Y-122761961D01*
X115089478Y-122545634D01*
X115189043Y-122305263D01*
X115239800Y-122050087D01*
X115239800Y-121789913D01*
X115189043Y-121534737D01*
X115089478Y-121294366D01*
X114944933Y-121078039D01*
X114760961Y-120894067D01*
X114544634Y-120749522D01*
X114304263Y-120649957D01*
X114049087Y-120599200D01*
X113788913Y-120599200D01*
X113533737Y-120649957D01*
X113293366Y-120749522D01*
X113077039Y-120894067D01*
X112893067Y-121078039D01*
X112748522Y-121294366D01*
X112648957Y-121534737D01*
X112598200Y-121789913D01*
X103558872Y-121789913D01*
X103558872Y-121234200D01*
X103546612Y-121109718D01*
X103510302Y-120990020D01*
X103451337Y-120879706D01*
X103371985Y-120783015D01*
X103275294Y-120703663D01*
X103164980Y-120644698D01*
X103045282Y-120608388D01*
X102920800Y-120596128D01*
X102889326Y-120596128D01*
X102869974Y-120559924D01*
X102821628Y-120501014D01*
X102798799Y-120473196D01*
X102798795Y-120473192D01*
X102775001Y-120444199D01*
X102746008Y-120420405D01*
X98019604Y-115694003D01*
X97995801Y-115664999D01*
X97880076Y-115570026D01*
X97748047Y-115499454D01*
X97604786Y-115455997D01*
X97493133Y-115445000D01*
X97493122Y-115445000D01*
X97455800Y-115441324D01*
X97418478Y-115445000D01*
X83499802Y-115445000D01*
X80770000Y-112715199D01*
X80770000Y-111880366D01*
X80961808Y-111822182D01*
X81211101Y-111688932D01*
X81429608Y-111509608D01*
X81608932Y-111291101D01*
X81742182Y-111041808D01*
X81790001Y-110884169D01*
X81790001Y-112992668D01*
X81786324Y-113030000D01*
X81790001Y-113067332D01*
X81790001Y-113067333D01*
X81797553Y-113144003D01*
X81800998Y-113178985D01*
X81844454Y-113322246D01*
X81915026Y-113454276D01*
X81986201Y-113541002D01*
X82010000Y-113570001D01*
X82038998Y-113593799D01*
X82621200Y-114176002D01*
X82644999Y-114205001D01*
X82673997Y-114228799D01*
X82760724Y-114299974D01*
X82892753Y-114370546D01*
X83036014Y-114414003D01*
X83185000Y-114428677D01*
X83222333Y-114425000D01*
X116167678Y-114425000D01*
X116205000Y-114428676D01*
X116242322Y-114425000D01*
X116242333Y-114425000D01*
X116353986Y-114414003D01*
X116497247Y-114370546D01*
X116629276Y-114299974D01*
X116745001Y-114205001D01*
X116768804Y-114175997D01*
X120329802Y-110615000D01*
X121971957Y-110615000D01*
X122075363Y-110769759D01*
X122275241Y-110969637D01*
X122507759Y-111125000D01*
X122275241Y-111280363D01*
X122075363Y-111480241D01*
X121918320Y-111715273D01*
X121810147Y-111976426D01*
X121755000Y-112253665D01*
X121755000Y-112536335D01*
X121810147Y-112813574D01*
X121918320Y-113074727D01*
X122075363Y-113309759D01*
X122275241Y-113509637D01*
X122507759Y-113665000D01*
X122275241Y-113820363D01*
X122075363Y-114020241D01*
X121918320Y-114255273D01*
X121810147Y-114516426D01*
X121755000Y-114793665D01*
X121755000Y-115076335D01*
X121810147Y-115353574D01*
X121918320Y-115614727D01*
X122075363Y-115849759D01*
X122275241Y-116049637D01*
X122507759Y-116205000D01*
X122275241Y-116360363D01*
X122075363Y-116560241D01*
X121918320Y-116795273D01*
X121810147Y-117056426D01*
X121755000Y-117333665D01*
X121755000Y-117616335D01*
X121810147Y-117893574D01*
X121918320Y-118154727D01*
X122075363Y-118389759D01*
X122275241Y-118589637D01*
X122507759Y-118745000D01*
X122275241Y-118900363D01*
X122075363Y-119100241D01*
X121918320Y-119335273D01*
X121810147Y-119596426D01*
X121755000Y-119873665D01*
X121755000Y-120156335D01*
X121810147Y-120433574D01*
X121918320Y-120694727D01*
X122075363Y-120929759D01*
X122275241Y-121129637D01*
X122510273Y-121286680D01*
X122520865Y-121291067D01*
X122334869Y-121402615D01*
X122126481Y-121591586D01*
X121958963Y-121817580D01*
X121838754Y-122071913D01*
X121798096Y-122205961D01*
X121920085Y-122428000D01*
X123063000Y-122428000D01*
X123063000Y-122408000D01*
X123317000Y-122408000D01*
X123317000Y-122428000D01*
X124459915Y-122428000D01*
X124581904Y-122205961D01*
X124541246Y-122071913D01*
X124421037Y-121817580D01*
X124253519Y-121591586D01*
X124045131Y-121402615D01*
X123859135Y-121291067D01*
X123869727Y-121286680D01*
X124104759Y-121129637D01*
X124304637Y-120929759D01*
X124461680Y-120694727D01*
X124569853Y-120433574D01*
X124625000Y-120156335D01*
X124625000Y-119873665D01*
X124569853Y-119596426D01*
X124461680Y-119335273D01*
X124304637Y-119100241D01*
X124104759Y-118900363D01*
X123872241Y-118745000D01*
X124104759Y-118589637D01*
X124304637Y-118389759D01*
X124461680Y-118154727D01*
X124569853Y-117893574D01*
X124625000Y-117616335D01*
X124625000Y-117333665D01*
X124569853Y-117056426D01*
X124461680Y-116795273D01*
X124304637Y-116560241D01*
X124104759Y-116360363D01*
X123872241Y-116205000D01*
X124104759Y-116049637D01*
X124304637Y-115849759D01*
X124461680Y-115614727D01*
X124569853Y-115353574D01*
X124625000Y-115076335D01*
X124625000Y-114793665D01*
X124569853Y-114516426D01*
X124461680Y-114255273D01*
X124304637Y-114020241D01*
X124104759Y-113820363D01*
X123872241Y-113665000D01*
X124104759Y-113509637D01*
X124304637Y-113309759D01*
X124461680Y-113074727D01*
X124569853Y-112813574D01*
X124625000Y-112536335D01*
X124625000Y-112253665D01*
X124569853Y-111976426D01*
X124461680Y-111715273D01*
X124304637Y-111480241D01*
X124104759Y-111280363D01*
X123872241Y-111125000D01*
X124104759Y-110969637D01*
X124304637Y-110769759D01*
X124461680Y-110534727D01*
X124569853Y-110273574D01*
X124625000Y-109996335D01*
X124625000Y-109713665D01*
X124569853Y-109436426D01*
X124461680Y-109175273D01*
X124304637Y-108940241D01*
X124104759Y-108740363D01*
X123872241Y-108585000D01*
X124104759Y-108429637D01*
X124304637Y-108229759D01*
X124461680Y-107994727D01*
X124569853Y-107733574D01*
X124625000Y-107456335D01*
X124625000Y-107173665D01*
X124569853Y-106896426D01*
X124461680Y-106635273D01*
X124304637Y-106400241D01*
X124104759Y-106200363D01*
X123872241Y-106045000D01*
X124104759Y-105889637D01*
X124304637Y-105689759D01*
X124461680Y-105454727D01*
X124569853Y-105193574D01*
X124625000Y-104916335D01*
X124625000Y-104633665D01*
X124569853Y-104356426D01*
X124461680Y-104095273D01*
X124304637Y-103860241D01*
X124104759Y-103660363D01*
X123872241Y-103505000D01*
X124104759Y-103349637D01*
X124304637Y-103149759D01*
X124461680Y-102914727D01*
X124569853Y-102653574D01*
X124625000Y-102376335D01*
X124625000Y-102093665D01*
X124569853Y-101816426D01*
X124461680Y-101555273D01*
X124304637Y-101320241D01*
X124104759Y-101120363D01*
X123872241Y-100965000D01*
X124104759Y-100809637D01*
X124304637Y-100609759D01*
X124461680Y-100374727D01*
X124569853Y-100113574D01*
X124625000Y-99836335D01*
X124625000Y-99553665D01*
X124569853Y-99276426D01*
X124461680Y-99015273D01*
X124304637Y-98780241D01*
X124104759Y-98580363D01*
X123872241Y-98425000D01*
X124104759Y-98269637D01*
X124304637Y-98069759D01*
X124461680Y-97834727D01*
X124569853Y-97573574D01*
X124625000Y-97296335D01*
X124625000Y-97013665D01*
X124569853Y-96736426D01*
X124461680Y-96475273D01*
X124304637Y-96240241D01*
X124104759Y-96040363D01*
X123872241Y-95885000D01*
X124104759Y-95729637D01*
X124304637Y-95529759D01*
X124461680Y-95294727D01*
X124569853Y-95033574D01*
X124625000Y-94756335D01*
X124625000Y-94473665D01*
X124569853Y-94196426D01*
X124461680Y-93935273D01*
X124304637Y-93700241D01*
X124104759Y-93500363D01*
X123872241Y-93345000D01*
X124104759Y-93189637D01*
X124304637Y-92989759D01*
X124461680Y-92754727D01*
X124569853Y-92493574D01*
X124625000Y-92216335D01*
X124625000Y-91933665D01*
X124569853Y-91656426D01*
X124461680Y-91395273D01*
X124304637Y-91160241D01*
X124104759Y-90960363D01*
X123872241Y-90805000D01*
X124104759Y-90649637D01*
X124304637Y-90449759D01*
X124461680Y-90214727D01*
X124569853Y-89953574D01*
X124625000Y-89676335D01*
X124625000Y-89393665D01*
X124569853Y-89116426D01*
X124461680Y-88855273D01*
X124304637Y-88620241D01*
X124104759Y-88420363D01*
X123869727Y-88263320D01*
X123608574Y-88155147D01*
X123331335Y-88100000D01*
X123048665Y-88100000D01*
X122771426Y-88155147D01*
X122510273Y-88263320D01*
X122275241Y-88420363D01*
X122075363Y-88620241D01*
X121918320Y-88855273D01*
X121810147Y-89116426D01*
X121755000Y-89393665D01*
X121755000Y-89676335D01*
X121810147Y-89953574D01*
X121918320Y-90214727D01*
X122075363Y-90449759D01*
X122275241Y-90649637D01*
X122507759Y-90805000D01*
X122275241Y-90960363D01*
X122075363Y-91160241D01*
X121918320Y-91395273D01*
X121810147Y-91656426D01*
X121755000Y-91933665D01*
X121755000Y-92216335D01*
X121810147Y-92493574D01*
X121918320Y-92754727D01*
X122075363Y-92989759D01*
X122275241Y-93189637D01*
X122507759Y-93345000D01*
X122275241Y-93500363D01*
X122075363Y-93700241D01*
X121918320Y-93935273D01*
X121810147Y-94196426D01*
X121755000Y-94473665D01*
X121755000Y-94756335D01*
X121810147Y-95033574D01*
X121918320Y-95294727D01*
X122075363Y-95529759D01*
X122275241Y-95729637D01*
X122507759Y-95885000D01*
X122275241Y-96040363D01*
X122075363Y-96240241D01*
X121971957Y-96395000D01*
X103502302Y-96395000D01*
X101087302Y-93980000D01*
X104805880Y-93980000D01*
X104842275Y-94349524D01*
X104950061Y-94704848D01*
X105125097Y-95032317D01*
X105360655Y-95319345D01*
X105647683Y-95554903D01*
X105975152Y-95729939D01*
X106330476Y-95837725D01*
X106607403Y-95865000D01*
X109292597Y-95865000D01*
X109569524Y-95837725D01*
X109924848Y-95729939D01*
X110252317Y-95554903D01*
X110539345Y-95319345D01*
X110774903Y-95032317D01*
X110949939Y-94704848D01*
X111057725Y-94349524D01*
X111094120Y-93980000D01*
X111057725Y-93610476D01*
X110949939Y-93255152D01*
X110774903Y-92927683D01*
X110539345Y-92640655D01*
X110252317Y-92405097D01*
X109924848Y-92230061D01*
X109569524Y-92122275D01*
X109292597Y-92095000D01*
X106607403Y-92095000D01*
X106330476Y-92122275D01*
X105975152Y-92230061D01*
X105647683Y-92405097D01*
X105360655Y-92640655D01*
X105125097Y-92927683D01*
X104950061Y-93255152D01*
X104842275Y-93610476D01*
X104805880Y-93980000D01*
X101087302Y-93980000D01*
X96875850Y-89768548D01*
X101490000Y-89768548D01*
X101490001Y-92191453D01*
X101515468Y-92450020D01*
X101616106Y-92781781D01*
X101779535Y-93087534D01*
X101999472Y-93355529D01*
X102267467Y-93575466D01*
X102573220Y-93738895D01*
X102904981Y-93839533D01*
X103250000Y-93873515D01*
X103595020Y-93839533D01*
X103926781Y-93738895D01*
X104232534Y-93575466D01*
X104500529Y-93355529D01*
X104720466Y-93087534D01*
X104883895Y-92781781D01*
X104984533Y-92450020D01*
X105010000Y-92191453D01*
X105010000Y-89768547D01*
X104984533Y-89509980D01*
X104883895Y-89178219D01*
X104720466Y-88872466D01*
X104500529Y-88604471D01*
X104232533Y-88384534D01*
X104224131Y-88380043D01*
X105111067Y-88380043D01*
X105150371Y-88536190D01*
X105291056Y-88852207D01*
X105490689Y-89134705D01*
X105741599Y-89372829D01*
X106034144Y-89557427D01*
X106357081Y-89681406D01*
X106698000Y-89740000D01*
X107823000Y-89740000D01*
X107823000Y-88107000D01*
X108077000Y-88107000D01*
X108077000Y-89740000D01*
X109202000Y-89740000D01*
X109542919Y-89681406D01*
X109865856Y-89557427D01*
X110158401Y-89372829D01*
X110409311Y-89134705D01*
X110608944Y-88852207D01*
X110749629Y-88536190D01*
X110788933Y-88380043D01*
X110671206Y-88107000D01*
X108077000Y-88107000D01*
X107823000Y-88107000D01*
X105228794Y-88107000D01*
X105111067Y-88380043D01*
X104224131Y-88380043D01*
X103926780Y-88221105D01*
X103595019Y-88120467D01*
X103250000Y-88086485D01*
X102904980Y-88120467D01*
X102573219Y-88221105D01*
X102267466Y-88384534D01*
X101999471Y-88604471D01*
X101779534Y-88872467D01*
X101616105Y-89178220D01*
X101515467Y-89509981D01*
X101490000Y-89768548D01*
X96875850Y-89768548D01*
X95496304Y-88389003D01*
X95472501Y-88359999D01*
X95356776Y-88265026D01*
X95224747Y-88194454D01*
X95081486Y-88150997D01*
X94969833Y-88140000D01*
X94969822Y-88140000D01*
X94932500Y-88136324D01*
X94895178Y-88140000D01*
X82807322Y-88140000D01*
X82769999Y-88136324D01*
X82732676Y-88140000D01*
X82732667Y-88140000D01*
X82621014Y-88150997D01*
X82477753Y-88194454D01*
X82345724Y-88265026D01*
X82345722Y-88265027D01*
X82345723Y-88265027D01*
X82258996Y-88336201D01*
X82258992Y-88336205D01*
X82229999Y-88359999D01*
X82206205Y-88388992D01*
X79498998Y-91096201D01*
X79470000Y-91119999D01*
X79446202Y-91148997D01*
X79446201Y-91148998D01*
X79375026Y-91235724D01*
X79355674Y-91271928D01*
X78810000Y-91271928D01*
X78685518Y-91284188D01*
X78565820Y-91320498D01*
X78455506Y-91379463D01*
X78358815Y-91458815D01*
X78279463Y-91555506D01*
X78220498Y-91665820D01*
X78184188Y-91785518D01*
X78171928Y-91910000D01*
X78171928Y-93510000D01*
X78184188Y-93634482D01*
X78220498Y-93754180D01*
X78279463Y-93864494D01*
X78358815Y-93961185D01*
X78455506Y-94040537D01*
X78565820Y-94099502D01*
X78685518Y-94135812D01*
X78703482Y-94137581D01*
X78590392Y-94230392D01*
X78411068Y-94448899D01*
X78277818Y-94698192D01*
X78195764Y-94968691D01*
X78168057Y-95250000D01*
X78195764Y-95531309D01*
X78277818Y-95801808D01*
X78411068Y-96051101D01*
X78590392Y-96269608D01*
X78808899Y-96448932D01*
X78941858Y-96520000D01*
X78808899Y-96591068D01*
X78590392Y-96770392D01*
X78411068Y-96988899D01*
X78277818Y-97238192D01*
X78195764Y-97508691D01*
X78168057Y-97790000D01*
X78195764Y-98071309D01*
X78277818Y-98341808D01*
X78411068Y-98591101D01*
X78590392Y-98809608D01*
X78808899Y-98988932D01*
X78941858Y-99060000D01*
X78808899Y-99131068D01*
X78590392Y-99310392D01*
X78411068Y-99528899D01*
X78377843Y-99591059D01*
X78267753Y-99624454D01*
X78135724Y-99695026D01*
X78019999Y-99789999D01*
X77925026Y-99905724D01*
X77854454Y-100037753D01*
X77810997Y-100181014D01*
X77796323Y-100330000D01*
X70612000Y-100330000D01*
X70612000Y-86893061D01*
X90405000Y-86893061D01*
X90405000Y-87096939D01*
X90444774Y-87296898D01*
X90522795Y-87485256D01*
X90636063Y-87654774D01*
X90780226Y-87798937D01*
X90949744Y-87912205D01*
X91138102Y-87990226D01*
X91338061Y-88030000D01*
X91541939Y-88030000D01*
X91741898Y-87990226D01*
X91930256Y-87912205D01*
X92099774Y-87798937D01*
X92243937Y-87654774D01*
X92293927Y-87579957D01*
X105111067Y-87579957D01*
X105228794Y-87853000D01*
X107823000Y-87853000D01*
X107823000Y-86220000D01*
X108077000Y-86220000D01*
X108077000Y-87853000D01*
X110671206Y-87853000D01*
X110788933Y-87579957D01*
X110749629Y-87423810D01*
X110608944Y-87107793D01*
X110409311Y-86825295D01*
X110158401Y-86587171D01*
X109865856Y-86402573D01*
X109542919Y-86278594D01*
X109202000Y-86220000D01*
X108077000Y-86220000D01*
X107823000Y-86220000D01*
X106698000Y-86220000D01*
X106357081Y-86278594D01*
X106034144Y-86402573D01*
X105741599Y-86587171D01*
X105490689Y-86825295D01*
X105291056Y-87107793D01*
X105150371Y-87423810D01*
X105111067Y-87579957D01*
X92293927Y-87579957D01*
X92357205Y-87485256D01*
X92435226Y-87296898D01*
X92475000Y-87096939D01*
X92475000Y-87034801D01*
X94294803Y-85215000D01*
X132400199Y-85215000D01*
X133860001Y-86674803D01*
X133860000Y-108547678D01*
X133856324Y-108585000D01*
X133860000Y-108622322D01*
X133860000Y-108622332D01*
X133870997Y-108733985D01*
X133901805Y-108835546D01*
X133914454Y-108877246D01*
X133985026Y-109009276D01*
X134022551Y-109055000D01*
X134079999Y-109125001D01*
X134109003Y-109148804D01*
X137031312Y-112071114D01*
X136995000Y-112253665D01*
X136995000Y-112536335D01*
X137050147Y-112813574D01*
X137158320Y-113074727D01*
X137315363Y-113309759D01*
X137515241Y-113509637D01*
X137747759Y-113665000D01*
X137515241Y-113820363D01*
X137315363Y-114020241D01*
X137158320Y-114255273D01*
X137050147Y-114516426D01*
X136995000Y-114793665D01*
X136995000Y-115076335D01*
X137050147Y-115353574D01*
X137158320Y-115614727D01*
X137315363Y-115849759D01*
X137515241Y-116049637D01*
X137750273Y-116206680D01*
X137760865Y-116211067D01*
X137574869Y-116322615D01*
X137366481Y-116511586D01*
X137198963Y-116737580D01*
X137078754Y-116991913D01*
X137038096Y-117125961D01*
X137160085Y-117348000D01*
X138303000Y-117348000D01*
X138303000Y-117328000D01*
X138557000Y-117328000D01*
X138557000Y-117348000D01*
X139699915Y-117348000D01*
X139821904Y-117125961D01*
X139781246Y-116991913D01*
X139661037Y-116737580D01*
X139493519Y-116511586D01*
X139285131Y-116322615D01*
X139099135Y-116211067D01*
X139109727Y-116206680D01*
X139344759Y-116049637D01*
X139544637Y-115849759D01*
X139701680Y-115614727D01*
X139809853Y-115353574D01*
X139865000Y-115076335D01*
X139865000Y-114793665D01*
X139809853Y-114516426D01*
X139701680Y-114255273D01*
X139544637Y-114020241D01*
X139344759Y-113820363D01*
X139112241Y-113665000D01*
X139344759Y-113509637D01*
X139544637Y-113309759D01*
X139701680Y-113074727D01*
X139809853Y-112813574D01*
X139865000Y-112536335D01*
X139865000Y-112253665D01*
X139809853Y-111976426D01*
X139701680Y-111715273D01*
X139544637Y-111480241D01*
X139344759Y-111280363D01*
X139112241Y-111125000D01*
X139344759Y-110969637D01*
X139544637Y-110769759D01*
X139701680Y-110534727D01*
X139809853Y-110273574D01*
X139865000Y-109996335D01*
X139865000Y-109713665D01*
X139809853Y-109436426D01*
X139701680Y-109175273D01*
X139544637Y-108940241D01*
X139344759Y-108740363D01*
X139112241Y-108585000D01*
X139344759Y-108429637D01*
X139544637Y-108229759D01*
X139701680Y-107994727D01*
X139809853Y-107733574D01*
X139865000Y-107456335D01*
X139865000Y-107173665D01*
X139809853Y-106896426D01*
X139701680Y-106635273D01*
X139544637Y-106400241D01*
X139344759Y-106200363D01*
X139112241Y-106045000D01*
X139344759Y-105889637D01*
X139544637Y-105689759D01*
X139701680Y-105454727D01*
X139809853Y-105193574D01*
X139865000Y-104916335D01*
X139865000Y-104633665D01*
X139809853Y-104356426D01*
X139701680Y-104095273D01*
X139544637Y-103860241D01*
X139344759Y-103660363D01*
X139112241Y-103505000D01*
X139344759Y-103349637D01*
X139544637Y-103149759D01*
X139701680Y-102914727D01*
X139809853Y-102653574D01*
X139865000Y-102376335D01*
X139865000Y-102093665D01*
X139809853Y-101816426D01*
X139701680Y-101555273D01*
X139544637Y-101320241D01*
X139344759Y-101120363D01*
X139112241Y-100965000D01*
X139344759Y-100809637D01*
X139544637Y-100609759D01*
X139701680Y-100374727D01*
X139809853Y-100113574D01*
X139865000Y-99836335D01*
X139865000Y-99553665D01*
X139809853Y-99276426D01*
X139701680Y-99015273D01*
X139544637Y-98780241D01*
X139344759Y-98580363D01*
X139112241Y-98425000D01*
X139344759Y-98269637D01*
X139544637Y-98069759D01*
X139701680Y-97834727D01*
X139809853Y-97573574D01*
X139865000Y-97296335D01*
X139865000Y-97124802D01*
X141480000Y-98739802D01*
X141480001Y-120085199D01*
X140898803Y-119504002D01*
X140875001Y-119474999D01*
X140759276Y-119380026D01*
X140627247Y-119309454D01*
X140483986Y-119265997D01*
X140372333Y-119255000D01*
X140372322Y-119255000D01*
X140335000Y-119251324D01*
X140297678Y-119255000D01*
X139648043Y-119255000D01*
X139544637Y-119100241D01*
X139344759Y-118900363D01*
X139109727Y-118743320D01*
X139099135Y-118738933D01*
X139285131Y-118627385D01*
X139493519Y-118438414D01*
X139661037Y-118212420D01*
X139781246Y-117958087D01*
X139821904Y-117824039D01*
X139699915Y-117602000D01*
X138557000Y-117602000D01*
X138557000Y-117622000D01*
X138303000Y-117622000D01*
X138303000Y-117602000D01*
X137160085Y-117602000D01*
X137038096Y-117824039D01*
X137078754Y-117958087D01*
X137198963Y-118212420D01*
X137366481Y-118438414D01*
X137574869Y-118627385D01*
X137760865Y-118738933D01*
X137750273Y-118743320D01*
X137515241Y-118900363D01*
X137315363Y-119100241D01*
X137158320Y-119335273D01*
X137050147Y-119596426D01*
X136995000Y-119873665D01*
X136995000Y-120156335D01*
X137050147Y-120433574D01*
X137158320Y-120694727D01*
X137315363Y-120929759D01*
X137515241Y-121129637D01*
X137747759Y-121285000D01*
X137515241Y-121440363D01*
X137315363Y-121640241D01*
X137158320Y-121875273D01*
X137050147Y-122136426D01*
X136995000Y-122413665D01*
X136995000Y-122696335D01*
X137050147Y-122973574D01*
X137158320Y-123234727D01*
X137315363Y-123469759D01*
X137513961Y-123668357D01*
X137505518Y-123669188D01*
X137385820Y-123705498D01*
X137275506Y-123764463D01*
X137178815Y-123843815D01*
X137099463Y-123940506D01*
X137040498Y-124050820D01*
X137004188Y-124170518D01*
X136991928Y-124295000D01*
X136991928Y-125895000D01*
X137004188Y-126019482D01*
X137040498Y-126139180D01*
X137099463Y-126249494D01*
X137178815Y-126346185D01*
X137275506Y-126425537D01*
X137385820Y-126484502D01*
X137505518Y-126520812D01*
X137630000Y-126533072D01*
X139230000Y-126533072D01*
X139354482Y-126520812D01*
X139474180Y-126484502D01*
X139584494Y-126425537D01*
X139681185Y-126346185D01*
X139760537Y-126249494D01*
X139819502Y-126139180D01*
X139855812Y-126019482D01*
X139868072Y-125895000D01*
X139868072Y-124295000D01*
X139855812Y-124170518D01*
X139819502Y-124050820D01*
X139760537Y-123940506D01*
X139681185Y-123843815D01*
X139584494Y-123764463D01*
X139474180Y-123705498D01*
X139354482Y-123669188D01*
X139346039Y-123668357D01*
X139544637Y-123469759D01*
X139701680Y-123234727D01*
X139809853Y-122973574D01*
X139865000Y-122696335D01*
X139865000Y-122413665D01*
X139809853Y-122136426D01*
X139701680Y-121875273D01*
X139544637Y-121640241D01*
X139344759Y-121440363D01*
X139112241Y-121285000D01*
X139344759Y-121129637D01*
X139544637Y-120929759D01*
X139648043Y-120775000D01*
X140020199Y-120775000D01*
X140210001Y-120964803D01*
X140210000Y-131657200D01*
X133891200Y-137976001D01*
X133829062Y-137976001D01*
X133629103Y-138015775D01*
X133440745Y-138093796D01*
X133271227Y-138207064D01*
X133127064Y-138351227D01*
X133013796Y-138520745D01*
X132935775Y-138709103D01*
X132896001Y-138909062D01*
X132896001Y-139112940D01*
X132935775Y-139312899D01*
X133013796Y-139501257D01*
X133127064Y-139670775D01*
X133271227Y-139814938D01*
X133440745Y-139928206D01*
X133629103Y-140006227D01*
X133829062Y-140046001D01*
X134032940Y-140046001D01*
X134232899Y-140006227D01*
X134421257Y-139928206D01*
X134590775Y-139814938D01*
X134734938Y-139670775D01*
X134848206Y-139501257D01*
X134926227Y-139312899D01*
X134966001Y-139112940D01*
X134966001Y-139050802D01*
X141480001Y-132536803D01*
X141480001Y-134305197D01*
X134305199Y-141480000D01*
X127314802Y-141480000D01*
X121410000Y-135575199D01*
X121410000Y-129575036D01*
X121413663Y-129535404D01*
X121406124Y-129463310D01*
X121399003Y-129391014D01*
X121398332Y-129388801D01*
X121398092Y-129386509D01*
X121376646Y-129317311D01*
X121355546Y-129247753D01*
X121354456Y-129245714D01*
X121353774Y-129243513D01*
X121319210Y-129179773D01*
X121284974Y-129115724D01*
X121283510Y-129113940D01*
X121282409Y-129111910D01*
X121235999Y-129056048D01*
X121190001Y-128999999D01*
X121159236Y-128974751D01*
X117356215Y-125217229D01*
X117333868Y-125189999D01*
X117303093Y-125164743D01*
X117301467Y-125163136D01*
X117274311Y-125141122D01*
X117218143Y-125095026D01*
X117216104Y-125093936D01*
X117214314Y-125092485D01*
X117150192Y-125058705D01*
X117086114Y-125024454D01*
X117083903Y-125023783D01*
X117081862Y-125022708D01*
X117012378Y-125002087D01*
X116942853Y-124980997D01*
X116940551Y-124980770D01*
X116938343Y-124980115D01*
X116866261Y-124973453D01*
X116831200Y-124970000D01*
X116828896Y-124970000D01*
X116789272Y-124966338D01*
X116754253Y-124970000D01*
X114999698Y-124970000D01*
X114988784Y-124953665D01*
X121755000Y-124953665D01*
X121755000Y-125236335D01*
X121810147Y-125513574D01*
X121918320Y-125774727D01*
X122075363Y-126009759D01*
X122275241Y-126209637D01*
X122510273Y-126366680D01*
X122771426Y-126474853D01*
X123048665Y-126530000D01*
X123331335Y-126530000D01*
X123608574Y-126474853D01*
X123869727Y-126366680D01*
X124104759Y-126209637D01*
X124304637Y-126009759D01*
X124461680Y-125774727D01*
X124569853Y-125513574D01*
X124625000Y-125236335D01*
X124625000Y-124953665D01*
X124569853Y-124676426D01*
X124461680Y-124415273D01*
X124304637Y-124180241D01*
X124104759Y-123980363D01*
X123869727Y-123823320D01*
X123859135Y-123818933D01*
X124045131Y-123707385D01*
X124253519Y-123518414D01*
X124421037Y-123292420D01*
X124541246Y-123038087D01*
X124581904Y-122904039D01*
X124459915Y-122682000D01*
X123317000Y-122682000D01*
X123317000Y-122702000D01*
X123063000Y-122702000D01*
X123063000Y-122682000D01*
X121920085Y-122682000D01*
X121798096Y-122904039D01*
X121838754Y-123038087D01*
X121958963Y-123292420D01*
X122126481Y-123518414D01*
X122334869Y-123707385D01*
X122520865Y-123818933D01*
X122510273Y-123823320D01*
X122275241Y-123980363D01*
X122075363Y-124180241D01*
X121918320Y-124415273D01*
X121810147Y-124676426D01*
X121755000Y-124953665D01*
X114988784Y-124953665D01*
X114944933Y-124888039D01*
X114760961Y-124704067D01*
X114544634Y-124559522D01*
X114304263Y-124459957D01*
X114049087Y-124409200D01*
X113788913Y-124409200D01*
X113533737Y-124459957D01*
X113293366Y-124559522D01*
X113077039Y-124704067D01*
X112893067Y-124888039D01*
X112748522Y-125104366D01*
X112648957Y-125344737D01*
X112598200Y-125599913D01*
X112598200Y-125860087D01*
X112648957Y-126115263D01*
X112748522Y-126355634D01*
X112893067Y-126571961D01*
X113077039Y-126755933D01*
X113293366Y-126900478D01*
X113533737Y-127000043D01*
X113788913Y-127050800D01*
X114049087Y-127050800D01*
X114304263Y-127000043D01*
X114544634Y-126900478D01*
X114760961Y-126755933D01*
X114944933Y-126571961D01*
X114999698Y-126490000D01*
X116481741Y-126490000D01*
X119890001Y-129857485D01*
X119890000Y-135217667D01*
X119890000Y-135830198D01*
X115371656Y-140348542D01*
X115155880Y-140259165D01*
X114757892Y-140180000D01*
X114352108Y-140180000D01*
X113954120Y-140259165D01*
X113579224Y-140414452D01*
X113241827Y-140639894D01*
X112954894Y-140926827D01*
X112729452Y-141264224D01*
X112574165Y-141639120D01*
X112495000Y-142037108D01*
X112495000Y-142442892D01*
X112574165Y-142840880D01*
X112729452Y-143215776D01*
X112954894Y-143553173D01*
X113241827Y-143840106D01*
X113579224Y-144065548D01*
X113954120Y-144220835D01*
X114352108Y-144300000D01*
X114757892Y-144300000D01*
X115155880Y-144220835D01*
X115530776Y-144065548D01*
X115868173Y-143840106D01*
X116155106Y-143553173D01*
X116380548Y-143215776D01*
X116535835Y-142840880D01*
X116615000Y-142442892D01*
X116615000Y-142037108D01*
X117195000Y-142037108D01*
X117195000Y-142442892D01*
X117274165Y-142840880D01*
X117429452Y-143215776D01*
X117654894Y-143553173D01*
X117941827Y-143840106D01*
X118279224Y-144065548D01*
X118654120Y-144220835D01*
X119052108Y-144300000D01*
X119457892Y-144300000D01*
X119855880Y-144220835D01*
X120230776Y-144065548D01*
X120568173Y-143840106D01*
X120855106Y-143553173D01*
X121080548Y-143215776D01*
X121235835Y-142840880D01*
X121315000Y-142442892D01*
X121315000Y-142037108D01*
X121235835Y-141639120D01*
X121080548Y-141264224D01*
X120855106Y-140926827D01*
X120568173Y-140639894D01*
X120230776Y-140414452D01*
X119855880Y-140259165D01*
X119457892Y-140180000D01*
X119052108Y-140180000D01*
X118654120Y-140259165D01*
X118279224Y-140414452D01*
X117941827Y-140639894D01*
X117654894Y-140926827D01*
X117429452Y-141264224D01*
X117274165Y-141639120D01*
X117195000Y-142037108D01*
X116615000Y-142037108D01*
X116535835Y-141639120D01*
X116446458Y-141423344D01*
X120777500Y-137092302D01*
X126436201Y-142751003D01*
X126459999Y-142780001D01*
X126488997Y-142803799D01*
X126575723Y-142874974D01*
X126707753Y-142945546D01*
X126851014Y-142989003D01*
X126962667Y-143000000D01*
X126962676Y-143000000D01*
X126999999Y-143003676D01*
X127037322Y-143000000D01*
X134582678Y-143000000D01*
X134620000Y-143003676D01*
X134657322Y-143000000D01*
X134657333Y-143000000D01*
X134768986Y-142989003D01*
X134912247Y-142945546D01*
X135044276Y-142874974D01*
X135160001Y-142780001D01*
X135183804Y-142750997D01*
X142751003Y-135183799D01*
X142780001Y-135160001D01*
X142874974Y-135044276D01*
X142945546Y-134912247D01*
X142989003Y-134768986D01*
X143000000Y-134657333D01*
X143000000Y-134657324D01*
X143003676Y-134620001D01*
X143000000Y-134582678D01*
X143000000Y-98462325D01*
X143003676Y-98425000D01*
X143000000Y-98387675D01*
X143000000Y-98387667D01*
X142989003Y-98276014D01*
X142945546Y-98132753D01*
X142874974Y-98000724D01*
X142780001Y-97884999D01*
X142751004Y-97861202D01*
X139828688Y-94938887D01*
X139865000Y-94756335D01*
X139865000Y-94473665D01*
X139809853Y-94196426D01*
X139701680Y-93935273D01*
X139544637Y-93700241D01*
X139344759Y-93500363D01*
X139112241Y-93345000D01*
X139344759Y-93189637D01*
X139544637Y-92989759D01*
X139701680Y-92754727D01*
X139809853Y-92493574D01*
X139865000Y-92216335D01*
X139865000Y-91933665D01*
X139809853Y-91656426D01*
X139701680Y-91395273D01*
X139544637Y-91160241D01*
X139344759Y-90960363D01*
X139112241Y-90805000D01*
X139344759Y-90649637D01*
X139544637Y-90449759D01*
X139701680Y-90214727D01*
X139809853Y-89953574D01*
X139865000Y-89676335D01*
X139865000Y-89393665D01*
X139809853Y-89116426D01*
X139701680Y-88855273D01*
X139544637Y-88620241D01*
X139344759Y-88420363D01*
X139109727Y-88263320D01*
X138848574Y-88155147D01*
X138571335Y-88100000D01*
X138288665Y-88100000D01*
X138011426Y-88155147D01*
X137750273Y-88263320D01*
X137515241Y-88420363D01*
X137315363Y-88620241D01*
X137158320Y-88855273D01*
X137050147Y-89116426D01*
X136995000Y-89393665D01*
X136995000Y-89676335D01*
X137050147Y-89953574D01*
X137158320Y-90214727D01*
X137315363Y-90449759D01*
X137515241Y-90649637D01*
X137747759Y-90805000D01*
X137515241Y-90960363D01*
X137315363Y-91160241D01*
X137158320Y-91395273D01*
X137050147Y-91656426D01*
X136995000Y-91933665D01*
X136995000Y-92216335D01*
X137050147Y-92493574D01*
X137158320Y-92754727D01*
X137315363Y-92989759D01*
X137515241Y-93189637D01*
X137747759Y-93345000D01*
X137515241Y-93500363D01*
X137315363Y-93700241D01*
X137158320Y-93935273D01*
X137050147Y-94196426D01*
X136995000Y-94473665D01*
X136995000Y-94756335D01*
X137050147Y-95033574D01*
X137158320Y-95294727D01*
X137315363Y-95529759D01*
X137515241Y-95729637D01*
X137747759Y-95885000D01*
X137515241Y-96040363D01*
X137315363Y-96240241D01*
X137158320Y-96475273D01*
X137050147Y-96736426D01*
X136995000Y-97013665D01*
X136995000Y-97296335D01*
X137050147Y-97573574D01*
X137158320Y-97834727D01*
X137315363Y-98069759D01*
X137515241Y-98269637D01*
X137747759Y-98425000D01*
X137515241Y-98580363D01*
X137315363Y-98780241D01*
X137158320Y-99015273D01*
X137050147Y-99276426D01*
X136995000Y-99553665D01*
X136995000Y-99836335D01*
X137050147Y-100113574D01*
X137158320Y-100374727D01*
X137315363Y-100609759D01*
X137515241Y-100809637D01*
X137747759Y-100965000D01*
X137515241Y-101120363D01*
X137315363Y-101320241D01*
X137158320Y-101555273D01*
X137050147Y-101816426D01*
X136995000Y-102093665D01*
X136995000Y-102376335D01*
X137050147Y-102653574D01*
X137158320Y-102914727D01*
X137315363Y-103149759D01*
X137515241Y-103349637D01*
X137747759Y-103505000D01*
X137515241Y-103660363D01*
X137315363Y-103860241D01*
X137158320Y-104095273D01*
X137050147Y-104356426D01*
X136995000Y-104633665D01*
X136995000Y-104916335D01*
X137050147Y-105193574D01*
X137158320Y-105454727D01*
X137315363Y-105689759D01*
X137515241Y-105889637D01*
X137747759Y-106045000D01*
X137515241Y-106200363D01*
X137315363Y-106400241D01*
X137158320Y-106635273D01*
X137050147Y-106896426D01*
X136995000Y-107173665D01*
X136995000Y-107456335D01*
X137050147Y-107733574D01*
X137158320Y-107994727D01*
X137315363Y-108229759D01*
X137515241Y-108429637D01*
X137747759Y-108585000D01*
X137515241Y-108740363D01*
X137315363Y-108940241D01*
X137158320Y-109175273D01*
X137050147Y-109436426D01*
X136995000Y-109713665D01*
X136995000Y-109885199D01*
X135380000Y-108270199D01*
X135380000Y-86397323D01*
X135383676Y-86360000D01*
X135380000Y-86322677D01*
X135380000Y-86322667D01*
X135369003Y-86211014D01*
X135325546Y-86067753D01*
X135254974Y-85935724D01*
X135160001Y-85819999D01*
X135131003Y-85796201D01*
X133278804Y-83944003D01*
X133255001Y-83914999D01*
X133139276Y-83820026D01*
X133007247Y-83749454D01*
X132863986Y-83705997D01*
X132752333Y-83695000D01*
X132752322Y-83695000D01*
X132715000Y-83691324D01*
X132677678Y-83695000D01*
X94017322Y-83695000D01*
X93979999Y-83691324D01*
X93942676Y-83695000D01*
X93942667Y-83695000D01*
X93831014Y-83705997D01*
X93687753Y-83749454D01*
X93555724Y-83820026D01*
X93555722Y-83820027D01*
X93555723Y-83820027D01*
X93468996Y-83891201D01*
X93468992Y-83891205D01*
X93439999Y-83914999D01*
X93416205Y-83943992D01*
X91400199Y-85960000D01*
X91338061Y-85960000D01*
X91138102Y-85999774D01*
X90949744Y-86077795D01*
X90780226Y-86191063D01*
X90636063Y-86335226D01*
X90522795Y-86504744D01*
X90444774Y-86693102D01*
X90405000Y-86893061D01*
X70612000Y-86893061D01*
X70612000Y-76624721D01*
X71525000Y-76624721D01*
X71525000Y-77045279D01*
X71607047Y-77457756D01*
X71767988Y-77846302D01*
X72001637Y-78195983D01*
X72299017Y-78493363D01*
X72648698Y-78727012D01*
X73037244Y-78887953D01*
X73449721Y-78970000D01*
X73870279Y-78970000D01*
X74282756Y-78887953D01*
X74671302Y-78727012D01*
X75020983Y-78493363D01*
X75318363Y-78195983D01*
X75552012Y-77846302D01*
X75712953Y-77457756D01*
X75795000Y-77045279D01*
X75795000Y-76624721D01*
X140105000Y-76624721D01*
X140105000Y-77045279D01*
X140187047Y-77457756D01*
X140347988Y-77846302D01*
X140581637Y-78195983D01*
X140879017Y-78493363D01*
X141228698Y-78727012D01*
X141617244Y-78887953D01*
X142029721Y-78970000D01*
X142450279Y-78970000D01*
X142862756Y-78887953D01*
X143251302Y-78727012D01*
X143600983Y-78493363D01*
X143898363Y-78195983D01*
X144132012Y-77846302D01*
X144292953Y-77457756D01*
X144375000Y-77045279D01*
X144375000Y-76624721D01*
X144292953Y-76212244D01*
X144132012Y-75823698D01*
X143898363Y-75474017D01*
X143600983Y-75176637D01*
X143251302Y-74942988D01*
X142862756Y-74782047D01*
X142450279Y-74700000D01*
X142029721Y-74700000D01*
X141617244Y-74782047D01*
X141228698Y-74942988D01*
X140879017Y-75176637D01*
X140581637Y-75474017D01*
X140347988Y-75823698D01*
X140187047Y-76212244D01*
X140105000Y-76624721D01*
X75795000Y-76624721D01*
X75712953Y-76212244D01*
X75552012Y-75823698D01*
X75318363Y-75474017D01*
X75020983Y-75176637D01*
X74671302Y-74942988D01*
X74282756Y-74782047D01*
X73870279Y-74700000D01*
X73449721Y-74700000D01*
X73037244Y-74782047D01*
X72648698Y-74942988D01*
X72299017Y-75176637D01*
X72001637Y-75474017D01*
X71767988Y-75823698D01*
X71607047Y-76212244D01*
X71525000Y-76624721D01*
X70612000Y-76624721D01*
X70612000Y-73787000D01*
X145288000Y-73787000D01*
X145288000Y-148463000D01*
G37*
X145288000Y-148463000D02*
X70612000Y-148463000D01*
X70612000Y-145204721D01*
X71525000Y-145204721D01*
X71525000Y-145625279D01*
X71607047Y-146037756D01*
X71767988Y-146426302D01*
X72001637Y-146775983D01*
X72299017Y-147073363D01*
X72648698Y-147307012D01*
X73037244Y-147467953D01*
X73449721Y-147550000D01*
X73870279Y-147550000D01*
X74282756Y-147467953D01*
X74671302Y-147307012D01*
X75020983Y-147073363D01*
X75318363Y-146775983D01*
X75552012Y-146426302D01*
X75712953Y-146037756D01*
X75795000Y-145625279D01*
X75795000Y-145469000D01*
X80722928Y-145469000D01*
X80735188Y-145593482D01*
X80771498Y-145713180D01*
X80830463Y-145823494D01*
X80909815Y-145920185D01*
X81006506Y-145999537D01*
X81116820Y-146058502D01*
X81236518Y-146094812D01*
X81361000Y-146107072D01*
X81804250Y-146104000D01*
X81963000Y-145945250D01*
X81963000Y-144867000D01*
X82217000Y-144867000D01*
X82217000Y-145945250D01*
X82375750Y-146104000D01*
X82819000Y-146107072D01*
X82943482Y-146094812D01*
X83063180Y-146058502D01*
X83173494Y-145999537D01*
X83270185Y-145920185D01*
X83349537Y-145823494D01*
X83408502Y-145713180D01*
X83417963Y-145681991D01*
X87327614Y-145681991D01*
X87390593Y-145918717D01*
X87633988Y-146032516D01*
X87894906Y-146096644D01*
X88163323Y-146108637D01*
X88428922Y-146068034D01*
X88681496Y-145976396D01*
X88789407Y-145918717D01*
X88852386Y-145681991D01*
X88090000Y-144919605D01*
X87327614Y-145681991D01*
X83417963Y-145681991D01*
X83444812Y-145593482D01*
X83457072Y-145469000D01*
X83454000Y-145025750D01*
X83295250Y-144867000D01*
X82217000Y-144867000D01*
X81963000Y-144867000D01*
X80884750Y-144867000D01*
X80726000Y-145025750D01*
X80722928Y-145469000D01*
X75795000Y-145469000D01*
X75795000Y-145204721D01*
X75717146Y-144813323D01*
X86721363Y-144813323D01*
X86761966Y-145078922D01*
X86853604Y-145331496D01*
X86911283Y-145439407D01*
X87148009Y-145502386D01*
X87910395Y-144740000D01*
X88269605Y-144740000D01*
X89031991Y-145502386D01*
X89268717Y-145439407D01*
X89378444Y-145204721D01*
X140105000Y-145204721D01*
X140105000Y-145625279D01*
X140187047Y-146037756D01*
X140347988Y-146426302D01*
X140581637Y-146775983D01*
X140879017Y-147073363D01*
X141228698Y-147307012D01*
X141617244Y-147467953D01*
X142029721Y-147550000D01*
X142450279Y-147550000D01*
X142862756Y-147467953D01*
X143251302Y-147307012D01*
X143600983Y-147073363D01*
X143898363Y-146775983D01*
X144132012Y-146426302D01*
X144292953Y-146037756D01*
X144375000Y-145625279D01*
X144375000Y-145204721D01*
X144292953Y-144792244D01*
X144132012Y-144403698D01*
X143898363Y-144054017D01*
X143600983Y-143756637D01*
X143251302Y-143522988D01*
X142862756Y-143362047D01*
X142450279Y-143280000D01*
X142029721Y-143280000D01*
X141617244Y-143362047D01*
X141228698Y-143522988D01*
X140879017Y-143756637D01*
X140581637Y-144054017D01*
X140347988Y-144403698D01*
X140187047Y-144792244D01*
X140105000Y-145204721D01*
X89378444Y-145204721D01*
X89382516Y-145196012D01*
X89446644Y-144935094D01*
X89458637Y-144666677D01*
X89418034Y-144401078D01*
X89326396Y-144148504D01*
X89268717Y-144040593D01*
X89031991Y-143977614D01*
X88269605Y-144740000D01*
X87910395Y-144740000D01*
X87148009Y-143977614D01*
X86911283Y-144040593D01*
X86797484Y-144283988D01*
X86733356Y-144544906D01*
X86721363Y-144813323D01*
X75717146Y-144813323D01*
X75712953Y-144792244D01*
X75552012Y-144403698D01*
X75318363Y-144054017D01*
X75275346Y-144011000D01*
X80722928Y-144011000D01*
X80726000Y-144454250D01*
X80884750Y-144613000D01*
X81963000Y-144613000D01*
X81963000Y-143534750D01*
X82217000Y-143534750D01*
X82217000Y-144613000D01*
X83295250Y-144613000D01*
X83454000Y-144454250D01*
X83457072Y-144011000D01*
X83444812Y-143886518D01*
X83417964Y-143798009D01*
X87327614Y-143798009D01*
X88090000Y-144560395D01*
X88852386Y-143798009D01*
X88817001Y-143665000D01*
X107791928Y-143665000D01*
X107804188Y-143789482D01*
X107840498Y-143909180D01*
X107899463Y-144019494D01*
X107978815Y-144116185D01*
X108075506Y-144195537D01*
X108185820Y-144254502D01*
X108305518Y-144290812D01*
X108430000Y-144303072D01*
X109569250Y-144300000D01*
X109728000Y-144141250D01*
X109728000Y-142367000D01*
X109982000Y-142367000D01*
X109982000Y-144141250D01*
X110140750Y-144300000D01*
X111280000Y-144303072D01*
X111404482Y-144290812D01*
X111524180Y-144254502D01*
X111634494Y-144195537D01*
X111731185Y-144116185D01*
X111810537Y-144019494D01*
X111869502Y-143909180D01*
X111905812Y-143789482D01*
X111918072Y-143665000D01*
X111915000Y-142525750D01*
X111756250Y-142367000D01*
X109982000Y-142367000D01*
X109728000Y-142367000D01*
X107953750Y-142367000D01*
X107795000Y-142525750D01*
X107791928Y-143665000D01*
X88817001Y-143665000D01*
X88789407Y-143561283D01*
X88546012Y-143447484D01*
X88285094Y-143383356D01*
X88016677Y-143371363D01*
X87751078Y-143411966D01*
X87498504Y-143503604D01*
X87390593Y-143561283D01*
X87327614Y-143798009D01*
X83417964Y-143798009D01*
X83408502Y-143766820D01*
X83349537Y-143656506D01*
X83270185Y-143559815D01*
X83173494Y-143480463D01*
X83063180Y-143421498D01*
X82943482Y-143385188D01*
X82819000Y-143372928D01*
X82375750Y-143376000D01*
X82217000Y-143534750D01*
X81963000Y-143534750D01*
X81804250Y-143376000D01*
X81361000Y-143372928D01*
X81236518Y-143385188D01*
X81116820Y-143421498D01*
X81006506Y-143480463D01*
X80909815Y-143559815D01*
X80830463Y-143656506D01*
X80771498Y-143766820D01*
X80735188Y-143886518D01*
X80722928Y-144011000D01*
X75275346Y-144011000D01*
X75020983Y-143756637D01*
X74671302Y-143522988D01*
X74282756Y-143362047D01*
X73870279Y-143280000D01*
X73449721Y-143280000D01*
X73037244Y-143362047D01*
X72648698Y-143522988D01*
X72299017Y-143756637D01*
X72001637Y-144054017D01*
X71767988Y-144403698D01*
X71607047Y-144792244D01*
X71525000Y-145204721D01*
X70612000Y-145204721D01*
X70612000Y-139605658D01*
X80726000Y-139605658D01*
X80726000Y-139874342D01*
X80778418Y-140137864D01*
X80881239Y-140386096D01*
X81030512Y-140609499D01*
X81220501Y-140799488D01*
X81443904Y-140948761D01*
X81692136Y-141051582D01*
X81955658Y-141104000D01*
X82224342Y-141104000D01*
X82487864Y-141051582D01*
X82736096Y-140948761D01*
X82959499Y-140799488D01*
X83149488Y-140609499D01*
X83298761Y-140386096D01*
X83401582Y-140137864D01*
X83454000Y-139874342D01*
X83454000Y-139605658D01*
X86726000Y-139605658D01*
X86726000Y-139874342D01*
X86778418Y-140137864D01*
X86881239Y-140386096D01*
X87030512Y-140609499D01*
X87220501Y-140799488D01*
X87443904Y-140948761D01*
X87692136Y-141051582D01*
X87955658Y-141104000D01*
X88224342Y-141104000D01*
X88487864Y-141051582D01*
X88736096Y-140948761D01*
X88936283Y-140815000D01*
X107791928Y-140815000D01*
X107795000Y-141954250D01*
X107953750Y-142113000D01*
X109728000Y-142113000D01*
X109728000Y-140338750D01*
X109982000Y-140338750D01*
X109982000Y-142113000D01*
X111756250Y-142113000D01*
X111915000Y-141954250D01*
X111918072Y-140815000D01*
X111905812Y-140690518D01*
X111869502Y-140570820D01*
X111810537Y-140460506D01*
X111731185Y-140363815D01*
X111634494Y-140284463D01*
X111524180Y-140225498D01*
X111404482Y-140189188D01*
X111280000Y-140176928D01*
X110140750Y-140180000D01*
X109982000Y-140338750D01*
X109728000Y-140338750D01*
X109569250Y-140180000D01*
X108430000Y-140176928D01*
X108305518Y-140189188D01*
X108185820Y-140225498D01*
X108075506Y-140284463D01*
X107978815Y-140363815D01*
X107899463Y-140460506D01*
X107840498Y-140570820D01*
X107804188Y-140690518D01*
X107791928Y-140815000D01*
X88936283Y-140815000D01*
X88959499Y-140799488D01*
X89149488Y-140609499D01*
X89298761Y-140386096D01*
X89401582Y-140137864D01*
X89454000Y-139874342D01*
X89454000Y-139605658D01*
X89401582Y-139342136D01*
X89298761Y-139093904D01*
X89149488Y-138870501D01*
X88959499Y-138680512D01*
X88736096Y-138531239D01*
X88487864Y-138428418D01*
X88224342Y-138376000D01*
X87955658Y-138376000D01*
X87692136Y-138428418D01*
X87443904Y-138531239D01*
X87220501Y-138680512D01*
X87030512Y-138870501D01*
X86881239Y-139093904D01*
X86778418Y-139342136D01*
X86726000Y-139605658D01*
X83454000Y-139605658D01*
X83401582Y-139342136D01*
X83298761Y-139093904D01*
X83149488Y-138870501D01*
X82959499Y-138680512D01*
X82736096Y-138531239D01*
X82487864Y-138428418D01*
X82224342Y-138376000D01*
X81955658Y-138376000D01*
X81692136Y-138428418D01*
X81443904Y-138531239D01*
X81220501Y-138680512D01*
X81030512Y-138870501D01*
X80881239Y-139093904D01*
X80778418Y-139342136D01*
X80726000Y-139605658D01*
X70612000Y-139605658D01*
X70612000Y-125465000D01*
X74661928Y-125465000D01*
X74661928Y-127265000D01*
X74674188Y-127389482D01*
X74710498Y-127509180D01*
X74769463Y-127619494D01*
X74848815Y-127716185D01*
X74945506Y-127795537D01*
X75055820Y-127854502D01*
X75175518Y-127890812D01*
X75300000Y-127903072D01*
X77100000Y-127903072D01*
X77224482Y-127890812D01*
X77344180Y-127854502D01*
X77454494Y-127795537D01*
X77551185Y-127716185D01*
X77630537Y-127619494D01*
X77689502Y-127509180D01*
X77695056Y-127490873D01*
X77761495Y-127557312D01*
X78012905Y-127725299D01*
X78292257Y-127841011D01*
X78588816Y-127900000D01*
X78891184Y-127900000D01*
X79187743Y-127841011D01*
X79467095Y-127725299D01*
X79718505Y-127557312D01*
X79932312Y-127343505D01*
X80100299Y-127092095D01*
X80216011Y-126812743D01*
X80275000Y-126516184D01*
X80275000Y-126213816D01*
X80216011Y-125917257D01*
X80100299Y-125637905D01*
X79984768Y-125465000D01*
X89901928Y-125465000D01*
X89901928Y-127265000D01*
X89914188Y-127389482D01*
X89950498Y-127509180D01*
X90009463Y-127619494D01*
X90088815Y-127716185D01*
X90185506Y-127795537D01*
X90295820Y-127854502D01*
X90415518Y-127890812D01*
X90540000Y-127903072D01*
X92340000Y-127903072D01*
X92464482Y-127890812D01*
X92584180Y-127854502D01*
X92694494Y-127795537D01*
X92791185Y-127716185D01*
X92870537Y-127619494D01*
X92929502Y-127509180D01*
X92935056Y-127490873D01*
X93001495Y-127557312D01*
X93220001Y-127703313D01*
X93220000Y-131407677D01*
X93216324Y-131445000D01*
X93220000Y-131482322D01*
X93220000Y-131482332D01*
X93230997Y-131593985D01*
X93257015Y-131679756D01*
X93274454Y-131737246D01*
X93345026Y-131869276D01*
X93384871Y-131917826D01*
X93439999Y-131985001D01*
X93469003Y-132008804D01*
X97861200Y-136401002D01*
X97884999Y-136430001D01*
X98000724Y-136524974D01*
X98132753Y-136595546D01*
X98276014Y-136639003D01*
X98387667Y-136650000D01*
X98387676Y-136650000D01*
X98424999Y-136653676D01*
X98462322Y-136650000D01*
X116802678Y-136650000D01*
X116840000Y-136653676D01*
X116877322Y-136650000D01*
X116877333Y-136650000D01*
X116988986Y-136639003D01*
X117132247Y-136595546D01*
X117264276Y-136524974D01*
X117380001Y-136430001D01*
X117403804Y-136400997D01*
X118621003Y-135183799D01*
X118650001Y-135160001D01*
X118744974Y-135044276D01*
X118815546Y-134912247D01*
X118859003Y-134768986D01*
X118870000Y-134657333D01*
X118870000Y-134657324D01*
X118873676Y-134620001D01*
X118870000Y-134582678D01*
X118870000Y-131863333D01*
X118873677Y-131826000D01*
X118864936Y-131737247D01*
X118859003Y-131677014D01*
X118815546Y-131533753D01*
X118744974Y-131401724D01*
X118650001Y-131285999D01*
X118621004Y-131262202D01*
X116578304Y-129219503D01*
X116554501Y-129190499D01*
X116525497Y-129166696D01*
X116335002Y-128976201D01*
X116248276Y-128905026D01*
X116116246Y-128834454D01*
X115972985Y-128790998D01*
X115824000Y-128776324D01*
X115697006Y-128788832D01*
X115607333Y-128780000D01*
X115607322Y-128780000D01*
X115570000Y-128776324D01*
X115532678Y-128780000D01*
X114999698Y-128780000D01*
X114944933Y-128698039D01*
X114760961Y-128514067D01*
X114544634Y-128369522D01*
X114304263Y-128269957D01*
X114049087Y-128219200D01*
X113788913Y-128219200D01*
X113533737Y-128269957D01*
X113293366Y-128369522D01*
X113077039Y-128514067D01*
X112893067Y-128698039D01*
X112748522Y-128914366D01*
X112648957Y-129154737D01*
X112598200Y-129409913D01*
X112598200Y-129670087D01*
X112648957Y-129925263D01*
X112748522Y-130165634D01*
X112893067Y-130381961D01*
X113077039Y-130565933D01*
X113293366Y-130710478D01*
X113533737Y-130810043D01*
X113788913Y-130860800D01*
X114049087Y-130860800D01*
X114304263Y-130810043D01*
X114544634Y-130710478D01*
X114760961Y-130565933D01*
X114944933Y-130381961D01*
X114999698Y-130300000D01*
X115256444Y-130300000D01*
X115336224Y-130365474D01*
X115468253Y-130436046D01*
X115611514Y-130479503D01*
X115697135Y-130487936D01*
X117350000Y-132140802D01*
X117350001Y-134305197D01*
X116525199Y-135130000D01*
X98739802Y-135130000D01*
X94740000Y-131130199D01*
X94740000Y-127703313D01*
X94958505Y-127557312D01*
X95172312Y-127343505D01*
X95340299Y-127092095D01*
X95456011Y-126812743D01*
X95515000Y-126516184D01*
X95515000Y-126213816D01*
X95456011Y-125917257D01*
X95340299Y-125637905D01*
X95172312Y-125386495D01*
X94958505Y-125172688D01*
X94707095Y-125004701D01*
X94427743Y-124888989D01*
X94131184Y-124830000D01*
X93828816Y-124830000D01*
X93532257Y-124888989D01*
X93252905Y-125004701D01*
X93001495Y-125172688D01*
X92935056Y-125239127D01*
X92929502Y-125220820D01*
X92870537Y-125110506D01*
X92791185Y-125013815D01*
X92694494Y-124934463D01*
X92584180Y-124875498D01*
X92464482Y-124839188D01*
X92340000Y-124826928D01*
X90540000Y-124826928D01*
X90415518Y-124839188D01*
X90295820Y-124875498D01*
X90185506Y-124934463D01*
X90088815Y-125013815D01*
X90009463Y-125110506D01*
X89950498Y-125220820D01*
X89914188Y-125340518D01*
X89901928Y-125465000D01*
X79984768Y-125465000D01*
X79932312Y-125386495D01*
X79718505Y-125172688D01*
X79467095Y-125004701D01*
X79187743Y-124888989D01*
X78891184Y-124830000D01*
X78588816Y-124830000D01*
X78292257Y-124888989D01*
X78012905Y-125004701D01*
X77761495Y-125172688D01*
X77695056Y-125239127D01*
X77689502Y-125220820D01*
X77630537Y-125110506D01*
X77551185Y-125013815D01*
X77454494Y-124934463D01*
X77344180Y-124875498D01*
X77224482Y-124839188D01*
X77100000Y-124826928D01*
X75300000Y-124826928D01*
X75175518Y-124839188D01*
X75055820Y-124875498D01*
X74945506Y-124934463D01*
X74848815Y-125013815D01*
X74769463Y-125110506D01*
X74710498Y-125220820D01*
X74674188Y-125340518D01*
X74661928Y-125465000D01*
X70612000Y-125465000D01*
X70612000Y-100330000D01*
X77796323Y-100330000D01*
X77810997Y-100478986D01*
X77854454Y-100622247D01*
X77925026Y-100754276D01*
X78019999Y-100870001D01*
X78135724Y-100964974D01*
X78267753Y-101035546D01*
X78377843Y-101068941D01*
X78411068Y-101131101D01*
X78590392Y-101349608D01*
X78808899Y-101528932D01*
X78941858Y-101600000D01*
X78808899Y-101671068D01*
X78590392Y-101850392D01*
X78411068Y-102068899D01*
X78277818Y-102318192D01*
X78195764Y-102588691D01*
X78168057Y-102870000D01*
X78195764Y-103151309D01*
X78277818Y-103421808D01*
X78411068Y-103671101D01*
X78590392Y-103889608D01*
X78808899Y-104068932D01*
X78941858Y-104140000D01*
X78808899Y-104211068D01*
X78590392Y-104390392D01*
X78411068Y-104608899D01*
X78277818Y-104858192D01*
X78195764Y-105128691D01*
X78168057Y-105410000D01*
X78195764Y-105691309D01*
X78277818Y-105961808D01*
X78411068Y-106211101D01*
X78590392Y-106429608D01*
X78808899Y-106608932D01*
X78941858Y-106680000D01*
X78808899Y-106751068D01*
X78590392Y-106930392D01*
X78411068Y-107148899D01*
X78277818Y-107398192D01*
X78195764Y-107668691D01*
X78168057Y-107950000D01*
X78195764Y-108231309D01*
X78277818Y-108501808D01*
X78411068Y-108751101D01*
X78590392Y-108969608D01*
X78808899Y-109148932D01*
X78941858Y-109220000D01*
X78808899Y-109291068D01*
X78590392Y-109470392D01*
X78411068Y-109688899D01*
X78277818Y-109938192D01*
X78195764Y-110208691D01*
X78168057Y-110490000D01*
X78195764Y-110771309D01*
X78277818Y-111041808D01*
X78411068Y-111291101D01*
X78590392Y-111509608D01*
X78808899Y-111688932D01*
X79058192Y-111822182D01*
X79250000Y-111880366D01*
X79250000Y-112992677D01*
X79246324Y-113030000D01*
X79250000Y-113067322D01*
X79250000Y-113067332D01*
X79260997Y-113178985D01*
X79300666Y-113309759D01*
X79304454Y-113322246D01*
X79375026Y-113454276D01*
X79412551Y-113500000D01*
X79469999Y-113570001D01*
X79499003Y-113593804D01*
X82621200Y-116716002D01*
X82644999Y-116745001D01*
X82673997Y-116768799D01*
X82760723Y-116839974D01*
X82892753Y-116910546D01*
X83036014Y-116954003D01*
X83147667Y-116965000D01*
X83147676Y-116965000D01*
X83184999Y-116968676D01*
X83222322Y-116965000D01*
X97140999Y-116965000D01*
X101035359Y-120859362D01*
X101018663Y-120879706D01*
X100959698Y-120990020D01*
X100923388Y-121109718D01*
X100911128Y-121234200D01*
X100911128Y-122605800D01*
X100923388Y-122730282D01*
X100959698Y-122849980D01*
X101018663Y-122960294D01*
X101098015Y-123056985D01*
X101194706Y-123136337D01*
X101305020Y-123195302D01*
X101424718Y-123231612D01*
X101475001Y-123236564D01*
X101475000Y-124413436D01*
X101424718Y-124418388D01*
X101305020Y-124454698D01*
X101194706Y-124513663D01*
X101098015Y-124593015D01*
X101018663Y-124689706D01*
X100959698Y-124800020D01*
X100923388Y-124919718D01*
X100911128Y-125044200D01*
X100911128Y-126415800D01*
X100923388Y-126540282D01*
X100959698Y-126659980D01*
X101018663Y-126770294D01*
X101098015Y-126866985D01*
X101194706Y-126946337D01*
X101305020Y-127005302D01*
X101424718Y-127041612D01*
X101475001Y-127046564D01*
X101475000Y-128223436D01*
X101424718Y-128228388D01*
X101305020Y-128264698D01*
X101194706Y-128323663D01*
X101098015Y-128403015D01*
X101018663Y-128499706D01*
X100959698Y-128610020D01*
X100923388Y-128729718D01*
X100911128Y-128854200D01*
X100911128Y-130225800D01*
X100923388Y-130350282D01*
X100959698Y-130469980D01*
X101018663Y-130580294D01*
X101098015Y-130676985D01*
X101194706Y-130756337D01*
X101305020Y-130815302D01*
X101424718Y-130851612D01*
X101549200Y-130863872D01*
X102920800Y-130863872D01*
X103045282Y-130851612D01*
X103164980Y-130815302D01*
X103275294Y-130756337D01*
X103371985Y-130676985D01*
X103451337Y-130580294D01*
X103510302Y-130469980D01*
X103546612Y-130350282D01*
X103558872Y-130225800D01*
X103558872Y-128854200D01*
X103546612Y-128729718D01*
X103510302Y-128610020D01*
X103451337Y-128499706D01*
X103371985Y-128403015D01*
X103275294Y-128323663D01*
X103164980Y-128264698D01*
X103045282Y-128228388D01*
X102995000Y-128223436D01*
X102995000Y-127046564D01*
X103045282Y-127041612D01*
X103164980Y-127005302D01*
X103275294Y-126946337D01*
X103371985Y-126866985D01*
X103451337Y-126770294D01*
X103510302Y-126659980D01*
X103546612Y-126540282D01*
X103558872Y-126415800D01*
X103558872Y-125044200D01*
X103546612Y-124919718D01*
X103510302Y-124800020D01*
X103451337Y-124689706D01*
X103371985Y-124593015D01*
X103275294Y-124513663D01*
X103164980Y-124454698D01*
X103045282Y-124418388D01*
X102995000Y-124413436D01*
X102995000Y-123236564D01*
X103045282Y-123231612D01*
X103164980Y-123195302D01*
X103275294Y-123136337D01*
X103371985Y-123056985D01*
X103451337Y-122960294D01*
X103510302Y-122849980D01*
X103546612Y-122730282D01*
X103558872Y-122605800D01*
X103558872Y-121789913D01*
X112598200Y-121789913D01*
X112598200Y-122050087D01*
X112648957Y-122305263D01*
X112748522Y-122545634D01*
X112893067Y-122761961D01*
X113077039Y-122945933D01*
X113293366Y-123090478D01*
X113533737Y-123190043D01*
X113788913Y-123240800D01*
X114049087Y-123240800D01*
X114304263Y-123190043D01*
X114544634Y-123090478D01*
X114760961Y-122945933D01*
X114944933Y-122761961D01*
X115089478Y-122545634D01*
X115189043Y-122305263D01*
X115239800Y-122050087D01*
X115239800Y-121789913D01*
X115189043Y-121534737D01*
X115089478Y-121294366D01*
X114944933Y-121078039D01*
X114760961Y-120894067D01*
X114544634Y-120749522D01*
X114304263Y-120649957D01*
X114049087Y-120599200D01*
X113788913Y-120599200D01*
X113533737Y-120649957D01*
X113293366Y-120749522D01*
X113077039Y-120894067D01*
X112893067Y-121078039D01*
X112748522Y-121294366D01*
X112648957Y-121534737D01*
X112598200Y-121789913D01*
X103558872Y-121789913D01*
X103558872Y-121234200D01*
X103546612Y-121109718D01*
X103510302Y-120990020D01*
X103451337Y-120879706D01*
X103371985Y-120783015D01*
X103275294Y-120703663D01*
X103164980Y-120644698D01*
X103045282Y-120608388D01*
X102920800Y-120596128D01*
X102889326Y-120596128D01*
X102869974Y-120559924D01*
X102821628Y-120501014D01*
X102798799Y-120473196D01*
X102798795Y-120473192D01*
X102775001Y-120444199D01*
X102746008Y-120420405D01*
X98019604Y-115694003D01*
X97995801Y-115664999D01*
X97880076Y-115570026D01*
X97748047Y-115499454D01*
X97604786Y-115455997D01*
X97493133Y-115445000D01*
X97493122Y-115445000D01*
X97455800Y-115441324D01*
X97418478Y-115445000D01*
X83499802Y-115445000D01*
X80770000Y-112715199D01*
X80770000Y-111880366D01*
X80961808Y-111822182D01*
X81211101Y-111688932D01*
X81429608Y-111509608D01*
X81608932Y-111291101D01*
X81742182Y-111041808D01*
X81790001Y-110884169D01*
X81790001Y-112992668D01*
X81786324Y-113030000D01*
X81790001Y-113067332D01*
X81790001Y-113067333D01*
X81797553Y-113144003D01*
X81800998Y-113178985D01*
X81844454Y-113322246D01*
X81915026Y-113454276D01*
X81986201Y-113541002D01*
X82010000Y-113570001D01*
X82038998Y-113593799D01*
X82621200Y-114176002D01*
X82644999Y-114205001D01*
X82673997Y-114228799D01*
X82760724Y-114299974D01*
X82892753Y-114370546D01*
X83036014Y-114414003D01*
X83185000Y-114428677D01*
X83222333Y-114425000D01*
X116167678Y-114425000D01*
X116205000Y-114428676D01*
X116242322Y-114425000D01*
X116242333Y-114425000D01*
X116353986Y-114414003D01*
X116497247Y-114370546D01*
X116629276Y-114299974D01*
X116745001Y-114205001D01*
X116768804Y-114175997D01*
X120329802Y-110615000D01*
X121971957Y-110615000D01*
X122075363Y-110769759D01*
X122275241Y-110969637D01*
X122507759Y-111125000D01*
X122275241Y-111280363D01*
X122075363Y-111480241D01*
X121918320Y-111715273D01*
X121810147Y-111976426D01*
X121755000Y-112253665D01*
X121755000Y-112536335D01*
X121810147Y-112813574D01*
X121918320Y-113074727D01*
X122075363Y-113309759D01*
X122275241Y-113509637D01*
X122507759Y-113665000D01*
X122275241Y-113820363D01*
X122075363Y-114020241D01*
X121918320Y-114255273D01*
X121810147Y-114516426D01*
X121755000Y-114793665D01*
X121755000Y-115076335D01*
X121810147Y-115353574D01*
X121918320Y-115614727D01*
X122075363Y-115849759D01*
X122275241Y-116049637D01*
X122507759Y-116205000D01*
X122275241Y-116360363D01*
X122075363Y-116560241D01*
X121918320Y-116795273D01*
X121810147Y-117056426D01*
X121755000Y-117333665D01*
X121755000Y-117616335D01*
X121810147Y-117893574D01*
X121918320Y-118154727D01*
X122075363Y-118389759D01*
X122275241Y-118589637D01*
X122507759Y-118745000D01*
X122275241Y-118900363D01*
X122075363Y-119100241D01*
X121918320Y-119335273D01*
X121810147Y-119596426D01*
X121755000Y-119873665D01*
X121755000Y-120156335D01*
X121810147Y-120433574D01*
X121918320Y-120694727D01*
X122075363Y-120929759D01*
X122275241Y-121129637D01*
X122510273Y-121286680D01*
X122520865Y-121291067D01*
X122334869Y-121402615D01*
X122126481Y-121591586D01*
X121958963Y-121817580D01*
X121838754Y-122071913D01*
X121798096Y-122205961D01*
X121920085Y-122428000D01*
X123063000Y-122428000D01*
X123063000Y-122408000D01*
X123317000Y-122408000D01*
X123317000Y-122428000D01*
X124459915Y-122428000D01*
X124581904Y-122205961D01*
X124541246Y-122071913D01*
X124421037Y-121817580D01*
X124253519Y-121591586D01*
X124045131Y-121402615D01*
X123859135Y-121291067D01*
X123869727Y-121286680D01*
X124104759Y-121129637D01*
X124304637Y-120929759D01*
X124461680Y-120694727D01*
X124569853Y-120433574D01*
X124625000Y-120156335D01*
X124625000Y-119873665D01*
X124569853Y-119596426D01*
X124461680Y-119335273D01*
X124304637Y-119100241D01*
X124104759Y-118900363D01*
X123872241Y-118745000D01*
X124104759Y-118589637D01*
X124304637Y-118389759D01*
X124461680Y-118154727D01*
X124569853Y-117893574D01*
X124625000Y-117616335D01*
X124625000Y-117333665D01*
X124569853Y-117056426D01*
X124461680Y-116795273D01*
X124304637Y-116560241D01*
X124104759Y-116360363D01*
X123872241Y-116205000D01*
X124104759Y-116049637D01*
X124304637Y-115849759D01*
X124461680Y-115614727D01*
X124569853Y-115353574D01*
X124625000Y-115076335D01*
X124625000Y-114793665D01*
X124569853Y-114516426D01*
X124461680Y-114255273D01*
X124304637Y-114020241D01*
X124104759Y-113820363D01*
X123872241Y-113665000D01*
X124104759Y-113509637D01*
X124304637Y-113309759D01*
X124461680Y-113074727D01*
X124569853Y-112813574D01*
X124625000Y-112536335D01*
X124625000Y-112253665D01*
X124569853Y-111976426D01*
X124461680Y-111715273D01*
X124304637Y-111480241D01*
X124104759Y-111280363D01*
X123872241Y-111125000D01*
X124104759Y-110969637D01*
X124304637Y-110769759D01*
X124461680Y-110534727D01*
X124569853Y-110273574D01*
X124625000Y-109996335D01*
X124625000Y-109713665D01*
X124569853Y-109436426D01*
X124461680Y-109175273D01*
X124304637Y-108940241D01*
X124104759Y-108740363D01*
X123872241Y-108585000D01*
X124104759Y-108429637D01*
X124304637Y-108229759D01*
X124461680Y-107994727D01*
X124569853Y-107733574D01*
X124625000Y-107456335D01*
X124625000Y-107173665D01*
X124569853Y-106896426D01*
X124461680Y-106635273D01*
X124304637Y-106400241D01*
X124104759Y-106200363D01*
X123872241Y-106045000D01*
X124104759Y-105889637D01*
X124304637Y-105689759D01*
X124461680Y-105454727D01*
X124569853Y-105193574D01*
X124625000Y-104916335D01*
X124625000Y-104633665D01*
X124569853Y-104356426D01*
X124461680Y-104095273D01*
X124304637Y-103860241D01*
X124104759Y-103660363D01*
X123872241Y-103505000D01*
X124104759Y-103349637D01*
X124304637Y-103149759D01*
X124461680Y-102914727D01*
X124569853Y-102653574D01*
X124625000Y-102376335D01*
X124625000Y-102093665D01*
X124569853Y-101816426D01*
X124461680Y-101555273D01*
X124304637Y-101320241D01*
X124104759Y-101120363D01*
X123872241Y-100965000D01*
X124104759Y-100809637D01*
X124304637Y-100609759D01*
X124461680Y-100374727D01*
X124569853Y-100113574D01*
X124625000Y-99836335D01*
X124625000Y-99553665D01*
X124569853Y-99276426D01*
X124461680Y-99015273D01*
X124304637Y-98780241D01*
X124104759Y-98580363D01*
X123872241Y-98425000D01*
X124104759Y-98269637D01*
X124304637Y-98069759D01*
X124461680Y-97834727D01*
X124569853Y-97573574D01*
X124625000Y-97296335D01*
X124625000Y-97013665D01*
X124569853Y-96736426D01*
X124461680Y-96475273D01*
X124304637Y-96240241D01*
X124104759Y-96040363D01*
X123872241Y-95885000D01*
X124104759Y-95729637D01*
X124304637Y-95529759D01*
X124461680Y-95294727D01*
X124569853Y-95033574D01*
X124625000Y-94756335D01*
X124625000Y-94473665D01*
X124569853Y-94196426D01*
X124461680Y-93935273D01*
X124304637Y-93700241D01*
X124104759Y-93500363D01*
X123872241Y-93345000D01*
X124104759Y-93189637D01*
X124304637Y-92989759D01*
X124461680Y-92754727D01*
X124569853Y-92493574D01*
X124625000Y-92216335D01*
X124625000Y-91933665D01*
X124569853Y-91656426D01*
X124461680Y-91395273D01*
X124304637Y-91160241D01*
X124104759Y-90960363D01*
X123872241Y-90805000D01*
X124104759Y-90649637D01*
X124304637Y-90449759D01*
X124461680Y-90214727D01*
X124569853Y-89953574D01*
X124625000Y-89676335D01*
X124625000Y-89393665D01*
X124569853Y-89116426D01*
X124461680Y-88855273D01*
X124304637Y-88620241D01*
X124104759Y-88420363D01*
X123869727Y-88263320D01*
X123608574Y-88155147D01*
X123331335Y-88100000D01*
X123048665Y-88100000D01*
X122771426Y-88155147D01*
X122510273Y-88263320D01*
X122275241Y-88420363D01*
X122075363Y-88620241D01*
X121918320Y-88855273D01*
X121810147Y-89116426D01*
X121755000Y-89393665D01*
X121755000Y-89676335D01*
X121810147Y-89953574D01*
X121918320Y-90214727D01*
X122075363Y-90449759D01*
X122275241Y-90649637D01*
X122507759Y-90805000D01*
X122275241Y-90960363D01*
X122075363Y-91160241D01*
X121918320Y-91395273D01*
X121810147Y-91656426D01*
X121755000Y-91933665D01*
X121755000Y-92216335D01*
X121810147Y-92493574D01*
X121918320Y-92754727D01*
X122075363Y-92989759D01*
X122275241Y-93189637D01*
X122507759Y-93345000D01*
X122275241Y-93500363D01*
X122075363Y-93700241D01*
X121918320Y-93935273D01*
X121810147Y-94196426D01*
X121755000Y-94473665D01*
X121755000Y-94756335D01*
X121810147Y-95033574D01*
X121918320Y-95294727D01*
X122075363Y-95529759D01*
X122275241Y-95729637D01*
X122507759Y-95885000D01*
X122275241Y-96040363D01*
X122075363Y-96240241D01*
X121971957Y-96395000D01*
X103502302Y-96395000D01*
X101087302Y-93980000D01*
X104805880Y-93980000D01*
X104842275Y-94349524D01*
X104950061Y-94704848D01*
X105125097Y-95032317D01*
X105360655Y-95319345D01*
X105647683Y-95554903D01*
X105975152Y-95729939D01*
X106330476Y-95837725D01*
X106607403Y-95865000D01*
X109292597Y-95865000D01*
X109569524Y-95837725D01*
X109924848Y-95729939D01*
X110252317Y-95554903D01*
X110539345Y-95319345D01*
X110774903Y-95032317D01*
X110949939Y-94704848D01*
X111057725Y-94349524D01*
X111094120Y-93980000D01*
X111057725Y-93610476D01*
X110949939Y-93255152D01*
X110774903Y-92927683D01*
X110539345Y-92640655D01*
X110252317Y-92405097D01*
X109924848Y-92230061D01*
X109569524Y-92122275D01*
X109292597Y-92095000D01*
X106607403Y-92095000D01*
X106330476Y-92122275D01*
X105975152Y-92230061D01*
X105647683Y-92405097D01*
X105360655Y-92640655D01*
X105125097Y-92927683D01*
X104950061Y-93255152D01*
X104842275Y-93610476D01*
X104805880Y-93980000D01*
X101087302Y-93980000D01*
X96875850Y-89768548D01*
X101490000Y-89768548D01*
X101490001Y-92191453D01*
X101515468Y-92450020D01*
X101616106Y-92781781D01*
X101779535Y-93087534D01*
X101999472Y-93355529D01*
X102267467Y-93575466D01*
X102573220Y-93738895D01*
X102904981Y-93839533D01*
X103250000Y-93873515D01*
X103595020Y-93839533D01*
X103926781Y-93738895D01*
X104232534Y-93575466D01*
X104500529Y-93355529D01*
X104720466Y-93087534D01*
X104883895Y-92781781D01*
X104984533Y-92450020D01*
X105010000Y-92191453D01*
X105010000Y-89768547D01*
X104984533Y-89509980D01*
X104883895Y-89178219D01*
X104720466Y-88872466D01*
X104500529Y-88604471D01*
X104232533Y-88384534D01*
X104224131Y-88380043D01*
X105111067Y-88380043D01*
X105150371Y-88536190D01*
X105291056Y-88852207D01*
X105490689Y-89134705D01*
X105741599Y-89372829D01*
X106034144Y-89557427D01*
X106357081Y-89681406D01*
X106698000Y-89740000D01*
X107823000Y-89740000D01*
X107823000Y-88107000D01*
X108077000Y-88107000D01*
X108077000Y-89740000D01*
X109202000Y-89740000D01*
X109542919Y-89681406D01*
X109865856Y-89557427D01*
X110158401Y-89372829D01*
X110409311Y-89134705D01*
X110608944Y-88852207D01*
X110749629Y-88536190D01*
X110788933Y-88380043D01*
X110671206Y-88107000D01*
X108077000Y-88107000D01*
X107823000Y-88107000D01*
X105228794Y-88107000D01*
X105111067Y-88380043D01*
X104224131Y-88380043D01*
X103926780Y-88221105D01*
X103595019Y-88120467D01*
X103250000Y-88086485D01*
X102904980Y-88120467D01*
X102573219Y-88221105D01*
X102267466Y-88384534D01*
X101999471Y-88604471D01*
X101779534Y-88872467D01*
X101616105Y-89178220D01*
X101515467Y-89509981D01*
X101490000Y-89768548D01*
X96875850Y-89768548D01*
X95496304Y-88389003D01*
X95472501Y-88359999D01*
X95356776Y-88265026D01*
X95224747Y-88194454D01*
X95081486Y-88150997D01*
X94969833Y-88140000D01*
X94969822Y-88140000D01*
X94932500Y-88136324D01*
X94895178Y-88140000D01*
X82807322Y-88140000D01*
X82769999Y-88136324D01*
X82732676Y-88140000D01*
X82732667Y-88140000D01*
X82621014Y-88150997D01*
X82477753Y-88194454D01*
X82345724Y-88265026D01*
X82345722Y-88265027D01*
X82345723Y-88265027D01*
X82258996Y-88336201D01*
X82258992Y-88336205D01*
X82229999Y-88359999D01*
X82206205Y-88388992D01*
X79498998Y-91096201D01*
X79470000Y-91119999D01*
X79446202Y-91148997D01*
X79446201Y-91148998D01*
X79375026Y-91235724D01*
X79355674Y-91271928D01*
X78810000Y-91271928D01*
X78685518Y-91284188D01*
X78565820Y-91320498D01*
X78455506Y-91379463D01*
X78358815Y-91458815D01*
X78279463Y-91555506D01*
X78220498Y-91665820D01*
X78184188Y-91785518D01*
X78171928Y-91910000D01*
X78171928Y-93510000D01*
X78184188Y-93634482D01*
X78220498Y-93754180D01*
X78279463Y-93864494D01*
X78358815Y-93961185D01*
X78455506Y-94040537D01*
X78565820Y-94099502D01*
X78685518Y-94135812D01*
X78703482Y-94137581D01*
X78590392Y-94230392D01*
X78411068Y-94448899D01*
X78277818Y-94698192D01*
X78195764Y-94968691D01*
X78168057Y-95250000D01*
X78195764Y-95531309D01*
X78277818Y-95801808D01*
X78411068Y-96051101D01*
X78590392Y-96269608D01*
X78808899Y-96448932D01*
X78941858Y-96520000D01*
X78808899Y-96591068D01*
X78590392Y-96770392D01*
X78411068Y-96988899D01*
X78277818Y-97238192D01*
X78195764Y-97508691D01*
X78168057Y-97790000D01*
X78195764Y-98071309D01*
X78277818Y-98341808D01*
X78411068Y-98591101D01*
X78590392Y-98809608D01*
X78808899Y-98988932D01*
X78941858Y-99060000D01*
X78808899Y-99131068D01*
X78590392Y-99310392D01*
X78411068Y-99528899D01*
X78377843Y-99591059D01*
X78267753Y-99624454D01*
X78135724Y-99695026D01*
X78019999Y-99789999D01*
X77925026Y-99905724D01*
X77854454Y-100037753D01*
X77810997Y-100181014D01*
X77796323Y-100330000D01*
X70612000Y-100330000D01*
X70612000Y-86893061D01*
X90405000Y-86893061D01*
X90405000Y-87096939D01*
X90444774Y-87296898D01*
X90522795Y-87485256D01*
X90636063Y-87654774D01*
X90780226Y-87798937D01*
X90949744Y-87912205D01*
X91138102Y-87990226D01*
X91338061Y-88030000D01*
X91541939Y-88030000D01*
X91741898Y-87990226D01*
X91930256Y-87912205D01*
X92099774Y-87798937D01*
X92243937Y-87654774D01*
X92293927Y-87579957D01*
X105111067Y-87579957D01*
X105228794Y-87853000D01*
X107823000Y-87853000D01*
X107823000Y-86220000D01*
X108077000Y-86220000D01*
X108077000Y-87853000D01*
X110671206Y-87853000D01*
X110788933Y-87579957D01*
X110749629Y-87423810D01*
X110608944Y-87107793D01*
X110409311Y-86825295D01*
X110158401Y-86587171D01*
X109865856Y-86402573D01*
X109542919Y-86278594D01*
X109202000Y-86220000D01*
X108077000Y-86220000D01*
X107823000Y-86220000D01*
X106698000Y-86220000D01*
X106357081Y-86278594D01*
X106034144Y-86402573D01*
X105741599Y-86587171D01*
X105490689Y-86825295D01*
X105291056Y-87107793D01*
X105150371Y-87423810D01*
X105111067Y-87579957D01*
X92293927Y-87579957D01*
X92357205Y-87485256D01*
X92435226Y-87296898D01*
X92475000Y-87096939D01*
X92475000Y-87034801D01*
X94294803Y-85215000D01*
X132400199Y-85215000D01*
X133860001Y-86674803D01*
X133860000Y-108547678D01*
X133856324Y-108585000D01*
X133860000Y-108622322D01*
X133860000Y-108622332D01*
X133870997Y-108733985D01*
X133901805Y-108835546D01*
X133914454Y-108877246D01*
X133985026Y-109009276D01*
X134022551Y-109055000D01*
X134079999Y-109125001D01*
X134109003Y-109148804D01*
X137031312Y-112071114D01*
X136995000Y-112253665D01*
X136995000Y-112536335D01*
X137050147Y-112813574D01*
X137158320Y-113074727D01*
X137315363Y-113309759D01*
X137515241Y-113509637D01*
X137747759Y-113665000D01*
X137515241Y-113820363D01*
X137315363Y-114020241D01*
X137158320Y-114255273D01*
X137050147Y-114516426D01*
X136995000Y-114793665D01*
X136995000Y-115076335D01*
X137050147Y-115353574D01*
X137158320Y-115614727D01*
X137315363Y-115849759D01*
X137515241Y-116049637D01*
X137750273Y-116206680D01*
X137760865Y-116211067D01*
X137574869Y-116322615D01*
X137366481Y-116511586D01*
X137198963Y-116737580D01*
X137078754Y-116991913D01*
X137038096Y-117125961D01*
X137160085Y-117348000D01*
X138303000Y-117348000D01*
X138303000Y-117328000D01*
X138557000Y-117328000D01*
X138557000Y-117348000D01*
X139699915Y-117348000D01*
X139821904Y-117125961D01*
X139781246Y-116991913D01*
X139661037Y-116737580D01*
X139493519Y-116511586D01*
X139285131Y-116322615D01*
X139099135Y-116211067D01*
X139109727Y-116206680D01*
X139344759Y-116049637D01*
X139544637Y-115849759D01*
X139701680Y-115614727D01*
X139809853Y-115353574D01*
X139865000Y-115076335D01*
X139865000Y-114793665D01*
X139809853Y-114516426D01*
X139701680Y-114255273D01*
X139544637Y-114020241D01*
X139344759Y-113820363D01*
X139112241Y-113665000D01*
X139344759Y-113509637D01*
X139544637Y-113309759D01*
X139701680Y-113074727D01*
X139809853Y-112813574D01*
X139865000Y-112536335D01*
X139865000Y-112253665D01*
X139809853Y-111976426D01*
X139701680Y-111715273D01*
X139544637Y-111480241D01*
X139344759Y-111280363D01*
X139112241Y-111125000D01*
X139344759Y-110969637D01*
X139544637Y-110769759D01*
X139701680Y-110534727D01*
X139809853Y-110273574D01*
X139865000Y-109996335D01*
X139865000Y-109713665D01*
X139809853Y-109436426D01*
X139701680Y-109175273D01*
X139544637Y-108940241D01*
X139344759Y-108740363D01*
X139112241Y-108585000D01*
X139344759Y-108429637D01*
X139544637Y-108229759D01*
X139701680Y-107994727D01*
X139809853Y-107733574D01*
X139865000Y-107456335D01*
X139865000Y-107173665D01*
X139809853Y-106896426D01*
X139701680Y-106635273D01*
X139544637Y-106400241D01*
X139344759Y-106200363D01*
X139112241Y-106045000D01*
X139344759Y-105889637D01*
X139544637Y-105689759D01*
X139701680Y-105454727D01*
X139809853Y-105193574D01*
X139865000Y-104916335D01*
X139865000Y-104633665D01*
X139809853Y-104356426D01*
X139701680Y-104095273D01*
X139544637Y-103860241D01*
X139344759Y-103660363D01*
X139112241Y-103505000D01*
X139344759Y-103349637D01*
X139544637Y-103149759D01*
X139701680Y-102914727D01*
X139809853Y-102653574D01*
X139865000Y-102376335D01*
X139865000Y-102093665D01*
X139809853Y-101816426D01*
X139701680Y-101555273D01*
X139544637Y-101320241D01*
X139344759Y-101120363D01*
X139112241Y-100965000D01*
X139344759Y-100809637D01*
X139544637Y-100609759D01*
X139701680Y-100374727D01*
X139809853Y-100113574D01*
X139865000Y-99836335D01*
X139865000Y-99553665D01*
X139809853Y-99276426D01*
X139701680Y-99015273D01*
X139544637Y-98780241D01*
X139344759Y-98580363D01*
X139112241Y-98425000D01*
X139344759Y-98269637D01*
X139544637Y-98069759D01*
X139701680Y-97834727D01*
X139809853Y-97573574D01*
X139865000Y-97296335D01*
X139865000Y-97124802D01*
X141480000Y-98739802D01*
X141480001Y-120085199D01*
X140898803Y-119504002D01*
X140875001Y-119474999D01*
X140759276Y-119380026D01*
X140627247Y-119309454D01*
X140483986Y-119265997D01*
X140372333Y-119255000D01*
X140372322Y-119255000D01*
X140335000Y-119251324D01*
X140297678Y-119255000D01*
X139648043Y-119255000D01*
X139544637Y-119100241D01*
X139344759Y-118900363D01*
X139109727Y-118743320D01*
X139099135Y-118738933D01*
X139285131Y-118627385D01*
X139493519Y-118438414D01*
X139661037Y-118212420D01*
X139781246Y-117958087D01*
X139821904Y-117824039D01*
X139699915Y-117602000D01*
X138557000Y-117602000D01*
X138557000Y-117622000D01*
X138303000Y-117622000D01*
X138303000Y-117602000D01*
X137160085Y-117602000D01*
X137038096Y-117824039D01*
X137078754Y-117958087D01*
X137198963Y-118212420D01*
X137366481Y-118438414D01*
X137574869Y-118627385D01*
X137760865Y-118738933D01*
X137750273Y-118743320D01*
X137515241Y-118900363D01*
X137315363Y-119100241D01*
X137158320Y-119335273D01*
X137050147Y-119596426D01*
X136995000Y-119873665D01*
X136995000Y-120156335D01*
X137050147Y-120433574D01*
X137158320Y-120694727D01*
X137315363Y-120929759D01*
X137515241Y-121129637D01*
X137747759Y-121285000D01*
X137515241Y-121440363D01*
X137315363Y-121640241D01*
X137158320Y-121875273D01*
X137050147Y-122136426D01*
X136995000Y-122413665D01*
X136995000Y-122696335D01*
X137050147Y-122973574D01*
X137158320Y-123234727D01*
X137315363Y-123469759D01*
X137513961Y-123668357D01*
X137505518Y-123669188D01*
X137385820Y-123705498D01*
X137275506Y-123764463D01*
X137178815Y-123843815D01*
X137099463Y-123940506D01*
X137040498Y-124050820D01*
X137004188Y-124170518D01*
X136991928Y-124295000D01*
X136991928Y-125895000D01*
X137004188Y-126019482D01*
X137040498Y-126139180D01*
X137099463Y-126249494D01*
X137178815Y-126346185D01*
X137275506Y-126425537D01*
X137385820Y-126484502D01*
X137505518Y-126520812D01*
X137630000Y-126533072D01*
X139230000Y-126533072D01*
X139354482Y-126520812D01*
X139474180Y-126484502D01*
X139584494Y-126425537D01*
X139681185Y-126346185D01*
X139760537Y-126249494D01*
X139819502Y-126139180D01*
X139855812Y-126019482D01*
X139868072Y-125895000D01*
X139868072Y-124295000D01*
X139855812Y-124170518D01*
X139819502Y-124050820D01*
X139760537Y-123940506D01*
X139681185Y-123843815D01*
X139584494Y-123764463D01*
X139474180Y-123705498D01*
X139354482Y-123669188D01*
X139346039Y-123668357D01*
X139544637Y-123469759D01*
X139701680Y-123234727D01*
X139809853Y-122973574D01*
X139865000Y-122696335D01*
X139865000Y-122413665D01*
X139809853Y-122136426D01*
X139701680Y-121875273D01*
X139544637Y-121640241D01*
X139344759Y-121440363D01*
X139112241Y-121285000D01*
X139344759Y-121129637D01*
X139544637Y-120929759D01*
X139648043Y-120775000D01*
X140020199Y-120775000D01*
X140210001Y-120964803D01*
X140210000Y-131657200D01*
X133891200Y-137976001D01*
X133829062Y-137976001D01*
X133629103Y-138015775D01*
X133440745Y-138093796D01*
X133271227Y-138207064D01*
X133127064Y-138351227D01*
X133013796Y-138520745D01*
X132935775Y-138709103D01*
X132896001Y-138909062D01*
X132896001Y-139112940D01*
X132935775Y-139312899D01*
X133013796Y-139501257D01*
X133127064Y-139670775D01*
X133271227Y-139814938D01*
X133440745Y-139928206D01*
X133629103Y-140006227D01*
X133829062Y-140046001D01*
X134032940Y-140046001D01*
X134232899Y-140006227D01*
X134421257Y-139928206D01*
X134590775Y-139814938D01*
X134734938Y-139670775D01*
X134848206Y-139501257D01*
X134926227Y-139312899D01*
X134966001Y-139112940D01*
X134966001Y-139050802D01*
X141480001Y-132536803D01*
X141480001Y-134305197D01*
X134305199Y-141480000D01*
X127314802Y-141480000D01*
X121410000Y-135575199D01*
X121410000Y-129575036D01*
X121413663Y-129535404D01*
X121406124Y-129463310D01*
X121399003Y-129391014D01*
X121398332Y-129388801D01*
X121398092Y-129386509D01*
X121376646Y-129317311D01*
X121355546Y-129247753D01*
X121354456Y-129245714D01*
X121353774Y-129243513D01*
X121319210Y-129179773D01*
X121284974Y-129115724D01*
X121283510Y-129113940D01*
X121282409Y-129111910D01*
X121235999Y-129056048D01*
X121190001Y-128999999D01*
X121159236Y-128974751D01*
X117356215Y-125217229D01*
X117333868Y-125189999D01*
X117303093Y-125164743D01*
X117301467Y-125163136D01*
X117274311Y-125141122D01*
X117218143Y-125095026D01*
X117216104Y-125093936D01*
X117214314Y-125092485D01*
X117150192Y-125058705D01*
X117086114Y-125024454D01*
X117083903Y-125023783D01*
X117081862Y-125022708D01*
X117012378Y-125002087D01*
X116942853Y-124980997D01*
X116940551Y-124980770D01*
X116938343Y-124980115D01*
X116866261Y-124973453D01*
X116831200Y-124970000D01*
X116828896Y-124970000D01*
X116789272Y-124966338D01*
X116754253Y-124970000D01*
X114999698Y-124970000D01*
X114988784Y-124953665D01*
X121755000Y-124953665D01*
X121755000Y-125236335D01*
X121810147Y-125513574D01*
X121918320Y-125774727D01*
X122075363Y-126009759D01*
X122275241Y-126209637D01*
X122510273Y-126366680D01*
X122771426Y-126474853D01*
X123048665Y-126530000D01*
X123331335Y-126530000D01*
X123608574Y-126474853D01*
X123869727Y-126366680D01*
X124104759Y-126209637D01*
X124304637Y-126009759D01*
X124461680Y-125774727D01*
X124569853Y-125513574D01*
X124625000Y-125236335D01*
X124625000Y-124953665D01*
X124569853Y-124676426D01*
X124461680Y-124415273D01*
X124304637Y-124180241D01*
X124104759Y-123980363D01*
X123869727Y-123823320D01*
X123859135Y-123818933D01*
X124045131Y-123707385D01*
X124253519Y-123518414D01*
X124421037Y-123292420D01*
X124541246Y-123038087D01*
X124581904Y-122904039D01*
X124459915Y-122682000D01*
X123317000Y-122682000D01*
X123317000Y-122702000D01*
X123063000Y-122702000D01*
X123063000Y-122682000D01*
X121920085Y-122682000D01*
X121798096Y-122904039D01*
X121838754Y-123038087D01*
X121958963Y-123292420D01*
X122126481Y-123518414D01*
X122334869Y-123707385D01*
X122520865Y-123818933D01*
X122510273Y-123823320D01*
X122275241Y-123980363D01*
X122075363Y-124180241D01*
X121918320Y-124415273D01*
X121810147Y-124676426D01*
X121755000Y-124953665D01*
X114988784Y-124953665D01*
X114944933Y-124888039D01*
X114760961Y-124704067D01*
X114544634Y-124559522D01*
X114304263Y-124459957D01*
X114049087Y-124409200D01*
X113788913Y-124409200D01*
X113533737Y-124459957D01*
X113293366Y-124559522D01*
X113077039Y-124704067D01*
X112893067Y-124888039D01*
X112748522Y-125104366D01*
X112648957Y-125344737D01*
X112598200Y-125599913D01*
X112598200Y-125860087D01*
X112648957Y-126115263D01*
X112748522Y-126355634D01*
X112893067Y-126571961D01*
X113077039Y-126755933D01*
X113293366Y-126900478D01*
X113533737Y-127000043D01*
X113788913Y-127050800D01*
X114049087Y-127050800D01*
X114304263Y-127000043D01*
X114544634Y-126900478D01*
X114760961Y-126755933D01*
X114944933Y-126571961D01*
X114999698Y-126490000D01*
X116481741Y-126490000D01*
X119890001Y-129857485D01*
X119890000Y-135217667D01*
X119890000Y-135830198D01*
X115371656Y-140348542D01*
X115155880Y-140259165D01*
X114757892Y-140180000D01*
X114352108Y-140180000D01*
X113954120Y-140259165D01*
X113579224Y-140414452D01*
X113241827Y-140639894D01*
X112954894Y-140926827D01*
X112729452Y-141264224D01*
X112574165Y-141639120D01*
X112495000Y-142037108D01*
X112495000Y-142442892D01*
X112574165Y-142840880D01*
X112729452Y-143215776D01*
X112954894Y-143553173D01*
X113241827Y-143840106D01*
X113579224Y-144065548D01*
X113954120Y-144220835D01*
X114352108Y-144300000D01*
X114757892Y-144300000D01*
X115155880Y-144220835D01*
X115530776Y-144065548D01*
X115868173Y-143840106D01*
X116155106Y-143553173D01*
X116380548Y-143215776D01*
X116535835Y-142840880D01*
X116615000Y-142442892D01*
X116615000Y-142037108D01*
X117195000Y-142037108D01*
X117195000Y-142442892D01*
X117274165Y-142840880D01*
X117429452Y-143215776D01*
X117654894Y-143553173D01*
X117941827Y-143840106D01*
X118279224Y-144065548D01*
X118654120Y-144220835D01*
X119052108Y-144300000D01*
X119457892Y-144300000D01*
X119855880Y-144220835D01*
X120230776Y-144065548D01*
X120568173Y-143840106D01*
X120855106Y-143553173D01*
X121080548Y-143215776D01*
X121235835Y-142840880D01*
X121315000Y-142442892D01*
X121315000Y-142037108D01*
X121235835Y-141639120D01*
X121080548Y-141264224D01*
X120855106Y-140926827D01*
X120568173Y-140639894D01*
X120230776Y-140414452D01*
X119855880Y-140259165D01*
X119457892Y-140180000D01*
X119052108Y-140180000D01*
X118654120Y-140259165D01*
X118279224Y-140414452D01*
X117941827Y-140639894D01*
X117654894Y-140926827D01*
X117429452Y-141264224D01*
X117274165Y-141639120D01*
X117195000Y-142037108D01*
X116615000Y-142037108D01*
X116535835Y-141639120D01*
X116446458Y-141423344D01*
X120777500Y-137092302D01*
X126436201Y-142751003D01*
X126459999Y-142780001D01*
X126488997Y-142803799D01*
X126575723Y-142874974D01*
X126707753Y-142945546D01*
X126851014Y-142989003D01*
X126962667Y-143000000D01*
X126962676Y-143000000D01*
X126999999Y-143003676D01*
X127037322Y-143000000D01*
X134582678Y-143000000D01*
X134620000Y-143003676D01*
X134657322Y-143000000D01*
X134657333Y-143000000D01*
X134768986Y-142989003D01*
X134912247Y-142945546D01*
X135044276Y-142874974D01*
X135160001Y-142780001D01*
X135183804Y-142750997D01*
X142751003Y-135183799D01*
X142780001Y-135160001D01*
X142874974Y-135044276D01*
X142945546Y-134912247D01*
X142989003Y-134768986D01*
X143000000Y-134657333D01*
X143000000Y-134657324D01*
X143003676Y-134620001D01*
X143000000Y-134582678D01*
X143000000Y-98462325D01*
X143003676Y-98425000D01*
X143000000Y-98387675D01*
X143000000Y-98387667D01*
X142989003Y-98276014D01*
X142945546Y-98132753D01*
X142874974Y-98000724D01*
X142780001Y-97884999D01*
X142751004Y-97861202D01*
X139828688Y-94938887D01*
X139865000Y-94756335D01*
X139865000Y-94473665D01*
X139809853Y-94196426D01*
X139701680Y-93935273D01*
X139544637Y-93700241D01*
X139344759Y-93500363D01*
X139112241Y-93345000D01*
X139344759Y-93189637D01*
X139544637Y-92989759D01*
X139701680Y-92754727D01*
X139809853Y-92493574D01*
X139865000Y-92216335D01*
X139865000Y-91933665D01*
X139809853Y-91656426D01*
X139701680Y-91395273D01*
X139544637Y-91160241D01*
X139344759Y-90960363D01*
X139112241Y-90805000D01*
X139344759Y-90649637D01*
X139544637Y-90449759D01*
X139701680Y-90214727D01*
X139809853Y-89953574D01*
X139865000Y-89676335D01*
X139865000Y-89393665D01*
X139809853Y-89116426D01*
X139701680Y-88855273D01*
X139544637Y-88620241D01*
X139344759Y-88420363D01*
X139109727Y-88263320D01*
X138848574Y-88155147D01*
X138571335Y-88100000D01*
X138288665Y-88100000D01*
X138011426Y-88155147D01*
X137750273Y-88263320D01*
X137515241Y-88420363D01*
X137315363Y-88620241D01*
X137158320Y-88855273D01*
X137050147Y-89116426D01*
X136995000Y-89393665D01*
X136995000Y-89676335D01*
X137050147Y-89953574D01*
X137158320Y-90214727D01*
X137315363Y-90449759D01*
X137515241Y-90649637D01*
X137747759Y-90805000D01*
X137515241Y-90960363D01*
X137315363Y-91160241D01*
X137158320Y-91395273D01*
X137050147Y-91656426D01*
X136995000Y-91933665D01*
X136995000Y-92216335D01*
X137050147Y-92493574D01*
X137158320Y-92754727D01*
X137315363Y-92989759D01*
X137515241Y-93189637D01*
X137747759Y-93345000D01*
X137515241Y-93500363D01*
X137315363Y-93700241D01*
X137158320Y-93935273D01*
X137050147Y-94196426D01*
X136995000Y-94473665D01*
X136995000Y-94756335D01*
X137050147Y-95033574D01*
X137158320Y-95294727D01*
X137315363Y-95529759D01*
X137515241Y-95729637D01*
X137747759Y-95885000D01*
X137515241Y-96040363D01*
X137315363Y-96240241D01*
X137158320Y-96475273D01*
X137050147Y-96736426D01*
X136995000Y-97013665D01*
X136995000Y-97296335D01*
X137050147Y-97573574D01*
X137158320Y-97834727D01*
X137315363Y-98069759D01*
X137515241Y-98269637D01*
X137747759Y-98425000D01*
X137515241Y-98580363D01*
X137315363Y-98780241D01*
X137158320Y-99015273D01*
X137050147Y-99276426D01*
X136995000Y-99553665D01*
X136995000Y-99836335D01*
X137050147Y-100113574D01*
X137158320Y-100374727D01*
X137315363Y-100609759D01*
X137515241Y-100809637D01*
X137747759Y-100965000D01*
X137515241Y-101120363D01*
X137315363Y-101320241D01*
X137158320Y-101555273D01*
X137050147Y-101816426D01*
X136995000Y-102093665D01*
X136995000Y-102376335D01*
X137050147Y-102653574D01*
X137158320Y-102914727D01*
X137315363Y-103149759D01*
X137515241Y-103349637D01*
X137747759Y-103505000D01*
X137515241Y-103660363D01*
X137315363Y-103860241D01*
X137158320Y-104095273D01*
X137050147Y-104356426D01*
X136995000Y-104633665D01*
X136995000Y-104916335D01*
X137050147Y-105193574D01*
X137158320Y-105454727D01*
X137315363Y-105689759D01*
X137515241Y-105889637D01*
X137747759Y-106045000D01*
X137515241Y-106200363D01*
X137315363Y-106400241D01*
X137158320Y-106635273D01*
X137050147Y-106896426D01*
X136995000Y-107173665D01*
X136995000Y-107456335D01*
X137050147Y-107733574D01*
X137158320Y-107994727D01*
X137315363Y-108229759D01*
X137515241Y-108429637D01*
X137747759Y-108585000D01*
X137515241Y-108740363D01*
X137315363Y-108940241D01*
X137158320Y-109175273D01*
X137050147Y-109436426D01*
X136995000Y-109713665D01*
X136995000Y-109885199D01*
X135380000Y-108270199D01*
X135380000Y-86397323D01*
X135383676Y-86360000D01*
X135380000Y-86322677D01*
X135380000Y-86322667D01*
X135369003Y-86211014D01*
X135325546Y-86067753D01*
X135254974Y-85935724D01*
X135160001Y-85819999D01*
X135131003Y-85796201D01*
X133278804Y-83944003D01*
X133255001Y-83914999D01*
X133139276Y-83820026D01*
X133007247Y-83749454D01*
X132863986Y-83705997D01*
X132752333Y-83695000D01*
X132752322Y-83695000D01*
X132715000Y-83691324D01*
X132677678Y-83695000D01*
X94017322Y-83695000D01*
X93979999Y-83691324D01*
X93942676Y-83695000D01*
X93942667Y-83695000D01*
X93831014Y-83705997D01*
X93687753Y-83749454D01*
X93555724Y-83820026D01*
X93555722Y-83820027D01*
X93555723Y-83820027D01*
X93468996Y-83891201D01*
X93468992Y-83891205D01*
X93439999Y-83914999D01*
X93416205Y-83943992D01*
X91400199Y-85960000D01*
X91338061Y-85960000D01*
X91138102Y-85999774D01*
X90949744Y-86077795D01*
X90780226Y-86191063D01*
X90636063Y-86335226D01*
X90522795Y-86504744D01*
X90444774Y-86693102D01*
X90405000Y-86893061D01*
X70612000Y-86893061D01*
X70612000Y-76624721D01*
X71525000Y-76624721D01*
X71525000Y-77045279D01*
X71607047Y-77457756D01*
X71767988Y-77846302D01*
X72001637Y-78195983D01*
X72299017Y-78493363D01*
X72648698Y-78727012D01*
X73037244Y-78887953D01*
X73449721Y-78970000D01*
X73870279Y-78970000D01*
X74282756Y-78887953D01*
X74671302Y-78727012D01*
X75020983Y-78493363D01*
X75318363Y-78195983D01*
X75552012Y-77846302D01*
X75712953Y-77457756D01*
X75795000Y-77045279D01*
X75795000Y-76624721D01*
X140105000Y-76624721D01*
X140105000Y-77045279D01*
X140187047Y-77457756D01*
X140347988Y-77846302D01*
X140581637Y-78195983D01*
X140879017Y-78493363D01*
X141228698Y-78727012D01*
X141617244Y-78887953D01*
X142029721Y-78970000D01*
X142450279Y-78970000D01*
X142862756Y-78887953D01*
X143251302Y-78727012D01*
X143600983Y-78493363D01*
X143898363Y-78195983D01*
X144132012Y-77846302D01*
X144292953Y-77457756D01*
X144375000Y-77045279D01*
X144375000Y-76624721D01*
X144292953Y-76212244D01*
X144132012Y-75823698D01*
X143898363Y-75474017D01*
X143600983Y-75176637D01*
X143251302Y-74942988D01*
X142862756Y-74782047D01*
X142450279Y-74700000D01*
X142029721Y-74700000D01*
X141617244Y-74782047D01*
X141228698Y-74942988D01*
X140879017Y-75176637D01*
X140581637Y-75474017D01*
X140347988Y-75823698D01*
X140187047Y-76212244D01*
X140105000Y-76624721D01*
X75795000Y-76624721D01*
X75712953Y-76212244D01*
X75552012Y-75823698D01*
X75318363Y-75474017D01*
X75020983Y-75176637D01*
X74671302Y-74942988D01*
X74282756Y-74782047D01*
X73870279Y-74700000D01*
X73449721Y-74700000D01*
X73037244Y-74782047D01*
X72648698Y-74942988D01*
X72299017Y-75176637D01*
X72001637Y-75474017D01*
X71767988Y-75823698D01*
X71607047Y-76212244D01*
X71525000Y-76624721D01*
X70612000Y-76624721D01*
X70612000Y-73787000D01*
X145288000Y-73787000D01*
X145288000Y-148463000D01*
G36*
X106751205Y-105286008D02*
G01*
X106774999Y-105315001D01*
X106803992Y-105338795D01*
X106803996Y-105338799D01*
X106828218Y-105358677D01*
X106890724Y-105409974D01*
X107022753Y-105480546D01*
X107166014Y-105524003D01*
X107277667Y-105535000D01*
X107277676Y-105535000D01*
X107314999Y-105538676D01*
X107352322Y-105535000D01*
X121971957Y-105535000D01*
X122075363Y-105689759D01*
X122275241Y-105889637D01*
X122507759Y-106045000D01*
X122275241Y-106200363D01*
X122075363Y-106400241D01*
X121971957Y-106555000D01*
X121322322Y-106555000D01*
X121284999Y-106551324D01*
X121247676Y-106555000D01*
X121247667Y-106555000D01*
X121136014Y-106565997D01*
X120992753Y-106609454D01*
X120860724Y-106680026D01*
X120860722Y-106680027D01*
X120860723Y-106680027D01*
X120773996Y-106751201D01*
X120773992Y-106751205D01*
X120744999Y-106774999D01*
X120721205Y-106803992D01*
X118240459Y-109284740D01*
X118232586Y-109291201D01*
X118232582Y-109291205D01*
X118203589Y-109314999D01*
X118179795Y-109343992D01*
X115888789Y-111635000D01*
X88896817Y-111635000D01*
X89049608Y-111509608D01*
X89228932Y-111291101D01*
X89262157Y-111228941D01*
X89372247Y-111195546D01*
X89504276Y-111124974D01*
X89620001Y-111030001D01*
X89643804Y-111000997D01*
X91951004Y-108693798D01*
X91980001Y-108670001D01*
X92048381Y-108586680D01*
X92074974Y-108554277D01*
X92145546Y-108422247D01*
X92146228Y-108420000D01*
X92189003Y-108278986D01*
X92200000Y-108167333D01*
X92200000Y-108167323D01*
X92203676Y-108130001D01*
X92200000Y-108092678D01*
X92200000Y-93413711D01*
X92243937Y-93369774D01*
X92357205Y-93200256D01*
X92435226Y-93011898D01*
X92475000Y-92811939D01*
X92475000Y-92608061D01*
X92435226Y-92408102D01*
X92357205Y-92219744D01*
X92243937Y-92050226D01*
X92099774Y-91906063D01*
X91930256Y-91792795D01*
X91741898Y-91714774D01*
X91541939Y-91675000D01*
X91338061Y-91675000D01*
X91138102Y-91714774D01*
X90949744Y-91792795D01*
X90780226Y-91906063D01*
X90636063Y-92050226D01*
X90522795Y-92219744D01*
X90444774Y-92408102D01*
X90405000Y-92608061D01*
X90405000Y-92811939D01*
X90444774Y-93011898D01*
X90522795Y-93200256D01*
X90636063Y-93369774D01*
X90680001Y-93413712D01*
X90680000Y-107815198D01*
X89035986Y-109459213D01*
X88831101Y-109291068D01*
X88698142Y-109220000D01*
X88831101Y-109148932D01*
X89049608Y-108969608D01*
X89228932Y-108751101D01*
X89362182Y-108501808D01*
X89444236Y-108231309D01*
X89471943Y-107950000D01*
X89444236Y-107668691D01*
X89362182Y-107398192D01*
X89228932Y-107148899D01*
X89049608Y-106930392D01*
X88831101Y-106751068D01*
X88698142Y-106680000D01*
X88831101Y-106608932D01*
X89049608Y-106429608D01*
X89228932Y-106211101D01*
X89362182Y-105961808D01*
X89444236Y-105691309D01*
X89471943Y-105410000D01*
X89444236Y-105128691D01*
X89362182Y-104858192D01*
X89228932Y-104608899D01*
X89049608Y-104390392D01*
X88831101Y-104211068D01*
X88698142Y-104140000D01*
X88831101Y-104068932D01*
X89049608Y-103889608D01*
X89228932Y-103671101D01*
X89362182Y-103421808D01*
X89444236Y-103151309D01*
X89471943Y-102870000D01*
X89444236Y-102588691D01*
X89362182Y-102318192D01*
X89228932Y-102068899D01*
X89049608Y-101850392D01*
X88831101Y-101671068D01*
X88698142Y-101600000D01*
X88831101Y-101528932D01*
X89049608Y-101349608D01*
X89228932Y-101131101D01*
X89362182Y-100881808D01*
X89444236Y-100611309D01*
X89471943Y-100330000D01*
X89444236Y-100048691D01*
X89362182Y-99778192D01*
X89228932Y-99528899D01*
X89049608Y-99310392D01*
X88831101Y-99131068D01*
X88698142Y-99060000D01*
X88831101Y-98988932D01*
X89049608Y-98809608D01*
X89228932Y-98591101D01*
X89362182Y-98341808D01*
X89444236Y-98071309D01*
X89471943Y-97790000D01*
X89444236Y-97508691D01*
X89362182Y-97238192D01*
X89228932Y-96988899D01*
X89049608Y-96770392D01*
X88831101Y-96591068D01*
X88698142Y-96520000D01*
X88831101Y-96448932D01*
X89049608Y-96269608D01*
X89228932Y-96051101D01*
X89362182Y-95801808D01*
X89444236Y-95531309D01*
X89471943Y-95250000D01*
X89444236Y-94968691D01*
X89362182Y-94698192D01*
X89228932Y-94448899D01*
X89049608Y-94230392D01*
X88831101Y-94051068D01*
X88703259Y-93982735D01*
X88932839Y-93832601D01*
X89134500Y-93634895D01*
X89293715Y-93401646D01*
X89404367Y-93141818D01*
X89421904Y-93059039D01*
X89299915Y-92837000D01*
X87757000Y-92837000D01*
X87757000Y-92857000D01*
X87503000Y-92857000D01*
X87503000Y-92837000D01*
X87483000Y-92837000D01*
X87483000Y-92583000D01*
X87503000Y-92583000D01*
X87503000Y-92563000D01*
X87757000Y-92563000D01*
X87757000Y-92583000D01*
X89299915Y-92583000D01*
X89421904Y-92360961D01*
X89404367Y-92278182D01*
X89293715Y-92018354D01*
X89134500Y-91785105D01*
X88932839Y-91587399D01*
X88898587Y-91565000D01*
X93030199Y-91565000D01*
X106751205Y-105286008D01*
G37*
X106751205Y-105286008D02*
X106774999Y-105315001D01*
X106803992Y-105338795D01*
X106803996Y-105338799D01*
X106828218Y-105358677D01*
X106890724Y-105409974D01*
X107022753Y-105480546D01*
X107166014Y-105524003D01*
X107277667Y-105535000D01*
X107277676Y-105535000D01*
X107314999Y-105538676D01*
X107352322Y-105535000D01*
X121971957Y-105535000D01*
X122075363Y-105689759D01*
X122275241Y-105889637D01*
X122507759Y-106045000D01*
X122275241Y-106200363D01*
X122075363Y-106400241D01*
X121971957Y-106555000D01*
X121322322Y-106555000D01*
X121284999Y-106551324D01*
X121247676Y-106555000D01*
X121247667Y-106555000D01*
X121136014Y-106565997D01*
X120992753Y-106609454D01*
X120860724Y-106680026D01*
X120860722Y-106680027D01*
X120860723Y-106680027D01*
X120773996Y-106751201D01*
X120773992Y-106751205D01*
X120744999Y-106774999D01*
X120721205Y-106803992D01*
X118240459Y-109284740D01*
X118232586Y-109291201D01*
X118232582Y-109291205D01*
X118203589Y-109314999D01*
X118179795Y-109343992D01*
X115888789Y-111635000D01*
X88896817Y-111635000D01*
X89049608Y-111509608D01*
X89228932Y-111291101D01*
X89262157Y-111228941D01*
X89372247Y-111195546D01*
X89504276Y-111124974D01*
X89620001Y-111030001D01*
X89643804Y-111000997D01*
X91951004Y-108693798D01*
X91980001Y-108670001D01*
X92048381Y-108586680D01*
X92074974Y-108554277D01*
X92145546Y-108422247D01*
X92146228Y-108420000D01*
X92189003Y-108278986D01*
X92200000Y-108167333D01*
X92200000Y-108167323D01*
X92203676Y-108130001D01*
X92200000Y-108092678D01*
X92200000Y-93413711D01*
X92243937Y-93369774D01*
X92357205Y-93200256D01*
X92435226Y-93011898D01*
X92475000Y-92811939D01*
X92475000Y-92608061D01*
X92435226Y-92408102D01*
X92357205Y-92219744D01*
X92243937Y-92050226D01*
X92099774Y-91906063D01*
X91930256Y-91792795D01*
X91741898Y-91714774D01*
X91541939Y-91675000D01*
X91338061Y-91675000D01*
X91138102Y-91714774D01*
X90949744Y-91792795D01*
X90780226Y-91906063D01*
X90636063Y-92050226D01*
X90522795Y-92219744D01*
X90444774Y-92408102D01*
X90405000Y-92608061D01*
X90405000Y-92811939D01*
X90444774Y-93011898D01*
X90522795Y-93200256D01*
X90636063Y-93369774D01*
X90680001Y-93413712D01*
X90680000Y-107815198D01*
X89035986Y-109459213D01*
X88831101Y-109291068D01*
X88698142Y-109220000D01*
X88831101Y-109148932D01*
X89049608Y-108969608D01*
X89228932Y-108751101D01*
X89362182Y-108501808D01*
X89444236Y-108231309D01*
X89471943Y-107950000D01*
X89444236Y-107668691D01*
X89362182Y-107398192D01*
X89228932Y-107148899D01*
X89049608Y-106930392D01*
X88831101Y-106751068D01*
X88698142Y-106680000D01*
X88831101Y-106608932D01*
X89049608Y-106429608D01*
X89228932Y-106211101D01*
X89362182Y-105961808D01*
X89444236Y-105691309D01*
X89471943Y-105410000D01*
X89444236Y-105128691D01*
X89362182Y-104858192D01*
X89228932Y-104608899D01*
X89049608Y-104390392D01*
X88831101Y-104211068D01*
X88698142Y-104140000D01*
X88831101Y-104068932D01*
X89049608Y-103889608D01*
X89228932Y-103671101D01*
X89362182Y-103421808D01*
X89444236Y-103151309D01*
X89471943Y-102870000D01*
X89444236Y-102588691D01*
X89362182Y-102318192D01*
X89228932Y-102068899D01*
X89049608Y-101850392D01*
X88831101Y-101671068D01*
X88698142Y-101600000D01*
X88831101Y-101528932D01*
X89049608Y-101349608D01*
X89228932Y-101131101D01*
X89362182Y-100881808D01*
X89444236Y-100611309D01*
X89471943Y-100330000D01*
X89444236Y-100048691D01*
X89362182Y-99778192D01*
X89228932Y-99528899D01*
X89049608Y-99310392D01*
X88831101Y-99131068D01*
X88698142Y-99060000D01*
X88831101Y-98988932D01*
X89049608Y-98809608D01*
X89228932Y-98591101D01*
X89362182Y-98341808D01*
X89444236Y-98071309D01*
X89471943Y-97790000D01*
X89444236Y-97508691D01*
X89362182Y-97238192D01*
X89228932Y-96988899D01*
X89049608Y-96770392D01*
X88831101Y-96591068D01*
X88698142Y-96520000D01*
X88831101Y-96448932D01*
X89049608Y-96269608D01*
X89228932Y-96051101D01*
X89362182Y-95801808D01*
X89444236Y-95531309D01*
X89471943Y-95250000D01*
X89444236Y-94968691D01*
X89362182Y-94698192D01*
X89228932Y-94448899D01*
X89049608Y-94230392D01*
X88831101Y-94051068D01*
X88703259Y-93982735D01*
X88932839Y-93832601D01*
X89134500Y-93634895D01*
X89293715Y-93401646D01*
X89404367Y-93141818D01*
X89421904Y-93059039D01*
X89299915Y-92837000D01*
X87757000Y-92837000D01*
X87757000Y-92857000D01*
X87503000Y-92857000D01*
X87503000Y-92837000D01*
X87483000Y-92837000D01*
X87483000Y-92583000D01*
X87503000Y-92583000D01*
X87503000Y-92563000D01*
X87757000Y-92563000D01*
X87757000Y-92583000D01*
X89299915Y-92583000D01*
X89421904Y-92360961D01*
X89404367Y-92278182D01*
X89293715Y-92018354D01*
X89134500Y-91785105D01*
X88932839Y-91587399D01*
X88898587Y-91565000D01*
X93030199Y-91565000D01*
X106751205Y-105286008D01*
M02*
