G04 #@! TF.GenerationSoftware,KiCad,Pcbnew,(5.1.5)-3*
G04 #@! TF.CreationDate,2021-03-21T22:58:17-03:00*
G04 #@! TF.ProjectId,4164-41256 Tester,34313634-2d34-4313-9235-362054657374,rev?*
G04 #@! TF.SameCoordinates,Original*
G04 #@! TF.FileFunction,Other,User*
%FSLAX46Y46*%
G04 Gerber Fmt 4.6, Leading zero omitted, Abs format (unit mm)*
G04 Created by KiCad (PCBNEW (5.1.5)-3) date 2021-03-21 22:58:17*
%MOMM*%
%LPD*%
G04 APERTURE LIST*
%ADD10C,0.050000*%
%ADD11C,0.152400*%
G04 APERTURE END LIST*
D10*
X121680000Y-82935000D02*
X139960000Y-82935000D01*
X121680000Y-82935000D02*
X121680000Y-129155000D01*
X139960000Y-129155000D02*
X139960000Y-82935000D01*
X139960000Y-129155000D02*
X121680000Y-129155000D01*
D11*
X104419400Y-126669800D02*
X101295200Y-126669800D01*
X104419400Y-127279400D02*
X104419400Y-126669800D01*
X111734600Y-127279400D02*
X104419400Y-127279400D01*
X111734600Y-126669800D02*
X111734600Y-127279400D01*
X114858800Y-126669800D02*
X111734600Y-126669800D01*
X114858800Y-124790200D02*
X114858800Y-126669800D01*
X111734600Y-124790200D02*
X114858800Y-124790200D01*
X111734600Y-124180600D02*
X111734600Y-124790200D01*
X104419400Y-124180600D02*
X111734600Y-124180600D01*
X104419400Y-124790200D02*
X104419400Y-124180600D01*
X101295200Y-124790200D02*
X104419400Y-124790200D01*
X101295200Y-126669800D02*
X101295200Y-124790200D01*
D10*
X76910000Y-145415000D02*
G75*
G03X76910000Y-145415000I-3250000J0D01*
G01*
X145490000Y-145415000D02*
G75*
G03X145490000Y-145415000I-3250000J0D01*
G01*
X145490000Y-76835000D02*
G75*
G03X145490000Y-76835000I-3250000J0D01*
G01*
X76910000Y-76835000D02*
G75*
G03X76910000Y-76835000I-3250000J0D01*
G01*
X89940000Y-137090000D02*
X80240000Y-137090000D01*
X89940000Y-147390000D02*
X89940000Y-137090000D01*
X80240000Y-147390000D02*
X89940000Y-147390000D01*
X80240000Y-137090000D02*
X80240000Y-147390000D01*
X89110000Y-91160000D02*
X78560000Y-91160000D01*
X89110000Y-112010000D02*
X89110000Y-91160000D01*
X78560000Y-112010000D02*
X89110000Y-112010000D01*
X78560000Y-91160000D02*
X78560000Y-112010000D01*
X110300000Y-95530000D02*
X110300000Y-94980000D01*
X105700000Y-95530000D02*
X110300000Y-95530000D01*
X105700000Y-94980000D02*
X105700000Y-95530000D01*
X105700000Y-94980000D02*
X103200000Y-94980000D01*
X112700000Y-94980000D02*
X110300000Y-94980000D01*
X112700000Y-79980000D02*
X112700000Y-94980000D01*
X103200000Y-79980000D02*
X112700000Y-79980000D01*
X103200000Y-88430000D02*
X103200000Y-79980000D01*
X101850000Y-88430000D02*
X103200000Y-88430000D01*
X101850000Y-93530000D02*
X101850000Y-88430000D01*
X103200000Y-93530000D02*
X101850000Y-93530000D01*
X103200000Y-94980000D02*
X103200000Y-93530000D01*
D11*
X104419400Y-130479800D02*
X101295200Y-130479800D01*
X104419400Y-131089400D02*
X104419400Y-130479800D01*
X111734600Y-131089400D02*
X104419400Y-131089400D01*
X111734600Y-130479800D02*
X111734600Y-131089400D01*
X114858800Y-130479800D02*
X111734600Y-130479800D01*
X114858800Y-128600200D02*
X114858800Y-130479800D01*
X111734600Y-128600200D02*
X114858800Y-128600200D01*
X111734600Y-127990600D02*
X111734600Y-128600200D01*
X104419400Y-127990600D02*
X111734600Y-127990600D01*
X104419400Y-128600200D02*
X104419400Y-127990600D01*
X101295200Y-128600200D02*
X104419400Y-128600200D01*
X101295200Y-130479800D02*
X101295200Y-128600200D01*
X104419400Y-122859800D02*
X101295200Y-122859800D01*
X104419400Y-123469400D02*
X104419400Y-122859800D01*
X111734600Y-123469400D02*
X104419400Y-123469400D01*
X111734600Y-122859800D02*
X111734600Y-123469400D01*
X114858800Y-122859800D02*
X111734600Y-122859800D01*
X114858800Y-120980200D02*
X114858800Y-122859800D01*
X111734600Y-120980200D02*
X114858800Y-120980200D01*
X111734600Y-120370600D02*
X111734600Y-120980200D01*
X104419400Y-120370600D02*
X111734600Y-120370600D01*
X104419400Y-120980200D02*
X104419400Y-120370600D01*
X101295200Y-120980200D02*
X104419400Y-120980200D01*
X101295200Y-122859800D02*
X101295200Y-120980200D01*
D10*
X107955000Y-138560000D02*
X121155000Y-138560000D01*
X107955000Y-145920000D02*
X107955000Y-138560000D01*
X121155000Y-145920000D02*
X107955000Y-145920000D01*
X121155000Y-138560000D02*
X121155000Y-145920000D01*
X95940000Y-123115000D02*
X89490000Y-123115000D01*
X95940000Y-129615000D02*
X95940000Y-123115000D01*
X89490000Y-129615000D02*
X95940000Y-129615000D01*
X89490000Y-123115000D02*
X89490000Y-129615000D01*
X80700000Y-123115000D02*
X74250000Y-123115000D01*
X80700000Y-129615000D02*
X80700000Y-123115000D01*
X74250000Y-129615000D02*
X80700000Y-129615000D01*
X74250000Y-123115000D02*
X74250000Y-129615000D01*
M02*
