G04 #@! TF.GenerationSoftware,KiCad,Pcbnew,(5.1.5)-3*
G04 #@! TF.CreationDate,2021-03-21T22:58:17-03:00*
G04 #@! TF.ProjectId,4164-41256 Tester,34313634-2d34-4313-9235-362054657374,rev?*
G04 #@! TF.SameCoordinates,Original*
G04 #@! TF.FileFunction,Legend,Top*
G04 #@! TF.FilePolarity,Positive*
%FSLAX46Y46*%
G04 Gerber Fmt 4.6, Leading zero omitted, Abs format (unit mm)*
G04 Created by KiCad (PCBNEW (5.1.5)-3) date 2021-03-21 22:58:17*
%MOMM*%
%LPD*%
G04 APERTURE LIST*
%ADD10C,0.120000*%
%ADD11C,0.203200*%
%ADD12C,0.300000*%
%ADD13C,0.254000*%
%ADD14C,0.150000*%
%ADD15C,0.304800*%
%ADD16C,0.152400*%
%ADD17C,0.200000*%
%ADD18C,0.127000*%
%ADD19C,0.400000*%
%ADD20C,0.100000*%
G04 APERTURE END LIST*
D10*
X76200000Y-93345000D02*
X76200000Y-88900000D01*
X76200000Y-81280000D02*
X76200000Y-83820000D01*
X78740000Y-86360000D02*
G75*
G03X78740000Y-86360000I-2540000J0D01*
G01*
X76200000Y-118110000D02*
X76200000Y-93345000D01*
X92075000Y-118110000D02*
X76200000Y-118110000D01*
X92075000Y-81280000D02*
X92075000Y-118110000D01*
X76200000Y-81280000D02*
X92075000Y-81280000D01*
D11*
X123831047Y-76952928D02*
X125088952Y-76952928D01*
X124460000Y-77581880D02*
X124460000Y-76323976D01*
X119380000Y-76835000D02*
X122555000Y-76835000D01*
X119253000Y-76835000D02*
G75*
G03X119253000Y-76835000I-508000J0D01*
G01*
X120523000Y-76835000D02*
G75*
G03X120523000Y-76835000I-1778000J0D01*
G01*
D12*
X98052857Y-105713571D02*
X98052857Y-106713571D01*
X97695714Y-105142142D02*
X97338571Y-106213571D01*
X98267142Y-106213571D01*
X99624285Y-106713571D02*
X98767142Y-106713571D01*
X99195714Y-106713571D02*
X99195714Y-105213571D01*
X99052857Y-105427857D01*
X98910000Y-105570714D01*
X98767142Y-105642142D01*
X100910000Y-105213571D02*
X100624285Y-105213571D01*
X100481428Y-105285000D01*
X100410000Y-105356428D01*
X100267142Y-105570714D01*
X100195714Y-105856428D01*
X100195714Y-106427857D01*
X100267142Y-106570714D01*
X100338571Y-106642142D01*
X100481428Y-106713571D01*
X100767142Y-106713571D01*
X100910000Y-106642142D01*
X100981428Y-106570714D01*
X101052857Y-106427857D01*
X101052857Y-106070714D01*
X100981428Y-105927857D01*
X100910000Y-105856428D01*
X100767142Y-105785000D01*
X100481428Y-105785000D01*
X100338571Y-105856428D01*
X100267142Y-105927857D01*
X100195714Y-106070714D01*
X102338571Y-105713571D02*
X102338571Y-106713571D01*
X101981428Y-105142142D02*
X101624285Y-106213571D01*
X102552857Y-106213571D01*
X105338571Y-105142142D02*
X104052857Y-107070714D01*
X107624285Y-105713571D02*
X107624285Y-106713571D01*
X107267142Y-105142142D02*
X106910000Y-106213571D01*
X107838571Y-106213571D01*
X109195714Y-106713571D02*
X108338571Y-106713571D01*
X108767142Y-106713571D02*
X108767142Y-105213571D01*
X108624285Y-105427857D01*
X108481428Y-105570714D01*
X108338571Y-105642142D01*
X109767142Y-105356428D02*
X109838571Y-105285000D01*
X109981428Y-105213571D01*
X110338571Y-105213571D01*
X110481428Y-105285000D01*
X110552857Y-105356428D01*
X110624285Y-105499285D01*
X110624285Y-105642142D01*
X110552857Y-105856428D01*
X109695714Y-106713571D01*
X110624285Y-106713571D01*
X111981428Y-105213571D02*
X111267142Y-105213571D01*
X111195714Y-105927857D01*
X111267142Y-105856428D01*
X111410000Y-105785000D01*
X111767142Y-105785000D01*
X111910000Y-105856428D01*
X111981428Y-105927857D01*
X112052857Y-106070714D01*
X112052857Y-106427857D01*
X111981428Y-106570714D01*
X111910000Y-106642142D01*
X111767142Y-106713571D01*
X111410000Y-106713571D01*
X111267142Y-106642142D01*
X111195714Y-106570714D01*
X113338571Y-105213571D02*
X113052857Y-105213571D01*
X112910000Y-105285000D01*
X112838571Y-105356428D01*
X112695714Y-105570714D01*
X112624285Y-105856428D01*
X112624285Y-106427857D01*
X112695714Y-106570714D01*
X112767142Y-106642142D01*
X112910000Y-106713571D01*
X113195714Y-106713571D01*
X113338571Y-106642142D01*
X113410000Y-106570714D01*
X113481428Y-106427857D01*
X113481428Y-106070714D01*
X113410000Y-105927857D01*
X113338571Y-105856428D01*
X113195714Y-105785000D01*
X112910000Y-105785000D01*
X112767142Y-105856428D01*
X112695714Y-105927857D01*
X112624285Y-106070714D01*
X98231428Y-109263571D02*
X98231428Y-107763571D01*
X98588571Y-107763571D01*
X98802857Y-107835000D01*
X98945714Y-107977857D01*
X99017142Y-108120714D01*
X99088571Y-108406428D01*
X99088571Y-108620714D01*
X99017142Y-108906428D01*
X98945714Y-109049285D01*
X98802857Y-109192142D01*
X98588571Y-109263571D01*
X98231428Y-109263571D01*
X100588571Y-109263571D02*
X100088571Y-108549285D01*
X99731428Y-109263571D02*
X99731428Y-107763571D01*
X100302857Y-107763571D01*
X100445714Y-107835000D01*
X100517142Y-107906428D01*
X100588571Y-108049285D01*
X100588571Y-108263571D01*
X100517142Y-108406428D01*
X100445714Y-108477857D01*
X100302857Y-108549285D01*
X99731428Y-108549285D01*
X101160000Y-108835000D02*
X101874285Y-108835000D01*
X101017142Y-109263571D02*
X101517142Y-107763571D01*
X102017142Y-109263571D01*
X102517142Y-109263571D02*
X102517142Y-107763571D01*
X103017142Y-108835000D01*
X103517142Y-107763571D01*
X103517142Y-109263571D01*
X105160000Y-107763571D02*
X106017142Y-107763571D01*
X105588571Y-109263571D02*
X105588571Y-107763571D01*
X106517142Y-108477857D02*
X107017142Y-108477857D01*
X107231428Y-109263571D02*
X106517142Y-109263571D01*
X106517142Y-107763571D01*
X107231428Y-107763571D01*
X107802857Y-109192142D02*
X108017142Y-109263571D01*
X108374285Y-109263571D01*
X108517142Y-109192142D01*
X108588571Y-109120714D01*
X108660000Y-108977857D01*
X108660000Y-108835000D01*
X108588571Y-108692142D01*
X108517142Y-108620714D01*
X108374285Y-108549285D01*
X108088571Y-108477857D01*
X107945714Y-108406428D01*
X107874285Y-108335000D01*
X107802857Y-108192142D01*
X107802857Y-108049285D01*
X107874285Y-107906428D01*
X107945714Y-107835000D01*
X108088571Y-107763571D01*
X108445714Y-107763571D01*
X108660000Y-107835000D01*
X109088571Y-107763571D02*
X109945714Y-107763571D01*
X109517142Y-109263571D02*
X109517142Y-107763571D01*
X110445714Y-108477857D02*
X110945714Y-108477857D01*
X111160000Y-109263571D02*
X110445714Y-109263571D01*
X110445714Y-107763571D01*
X111160000Y-107763571D01*
X112660000Y-109263571D02*
X112160000Y-108549285D01*
X111802857Y-109263571D02*
X111802857Y-107763571D01*
X112374285Y-107763571D01*
X112517142Y-107835000D01*
X112588571Y-107906428D01*
X112660000Y-108049285D01*
X112660000Y-108263571D01*
X112588571Y-108406428D01*
X112517142Y-108477857D01*
X112374285Y-108549285D01*
X111802857Y-108549285D01*
X92874285Y-111813571D02*
X92874285Y-110313571D01*
X93231428Y-110313571D01*
X93445714Y-110385000D01*
X93588571Y-110527857D01*
X93660000Y-110670714D01*
X93731428Y-110956428D01*
X93731428Y-111170714D01*
X93660000Y-111456428D01*
X93588571Y-111599285D01*
X93445714Y-111742142D01*
X93231428Y-111813571D01*
X92874285Y-111813571D01*
X94945714Y-111742142D02*
X94802857Y-111813571D01*
X94517142Y-111813571D01*
X94374285Y-111742142D01*
X94302857Y-111599285D01*
X94302857Y-111027857D01*
X94374285Y-110885000D01*
X94517142Y-110813571D01*
X94802857Y-110813571D01*
X94945714Y-110885000D01*
X95017142Y-111027857D01*
X95017142Y-111170714D01*
X94302857Y-111313571D01*
X95588571Y-111742142D02*
X95731428Y-111813571D01*
X96017142Y-111813571D01*
X96160000Y-111742142D01*
X96231428Y-111599285D01*
X96231428Y-111527857D01*
X96160000Y-111385000D01*
X96017142Y-111313571D01*
X95802857Y-111313571D01*
X95660000Y-111242142D01*
X95588571Y-111099285D01*
X95588571Y-111027857D01*
X95660000Y-110885000D01*
X95802857Y-110813571D01*
X96017142Y-110813571D01*
X96160000Y-110885000D01*
X96874285Y-111813571D02*
X96874285Y-110813571D01*
X96874285Y-110313571D02*
X96802857Y-110385000D01*
X96874285Y-110456428D01*
X96945714Y-110385000D01*
X96874285Y-110313571D01*
X96874285Y-110456428D01*
X98231428Y-110813571D02*
X98231428Y-112027857D01*
X98160000Y-112170714D01*
X98088571Y-112242142D01*
X97945714Y-112313571D01*
X97731428Y-112313571D01*
X97588571Y-112242142D01*
X98231428Y-111742142D02*
X98088571Y-111813571D01*
X97802857Y-111813571D01*
X97660000Y-111742142D01*
X97588571Y-111670714D01*
X97517142Y-111527857D01*
X97517142Y-111099285D01*
X97588571Y-110956428D01*
X97660000Y-110885000D01*
X97802857Y-110813571D01*
X98088571Y-110813571D01*
X98231428Y-110885000D01*
X98945714Y-110813571D02*
X98945714Y-111813571D01*
X98945714Y-110956428D02*
X99017142Y-110885000D01*
X99160000Y-110813571D01*
X99374285Y-110813571D01*
X99517142Y-110885000D01*
X99588571Y-111027857D01*
X99588571Y-111813571D01*
X101945714Y-111027857D02*
X102160000Y-111099285D01*
X102231428Y-111170714D01*
X102302857Y-111313571D01*
X102302857Y-111527857D01*
X102231428Y-111670714D01*
X102160000Y-111742142D01*
X102017142Y-111813571D01*
X101445714Y-111813571D01*
X101445714Y-110313571D01*
X101945714Y-110313571D01*
X102088571Y-110385000D01*
X102160000Y-110456428D01*
X102231428Y-110599285D01*
X102231428Y-110742142D01*
X102160000Y-110885000D01*
X102088571Y-110956428D01*
X101945714Y-111027857D01*
X101445714Y-111027857D01*
X102802857Y-110813571D02*
X103160000Y-111813571D01*
X103517142Y-110813571D02*
X103160000Y-111813571D01*
X103017142Y-112170714D01*
X102945714Y-112242142D01*
X102802857Y-112313571D01*
X104088571Y-111670714D02*
X104160000Y-111742142D01*
X104088571Y-111813571D01*
X104017142Y-111742142D01*
X104088571Y-111670714D01*
X104088571Y-111813571D01*
X104088571Y-110885000D02*
X104160000Y-110956428D01*
X104088571Y-111027857D01*
X104017142Y-110956428D01*
X104088571Y-110885000D01*
X104088571Y-111027857D01*
X105945714Y-111813571D02*
X105945714Y-110313571D01*
X105945714Y-111027857D02*
X106802857Y-111027857D01*
X106802857Y-111813571D02*
X106802857Y-110313571D01*
X108088571Y-111742142D02*
X107945714Y-111813571D01*
X107660000Y-111813571D01*
X107517142Y-111742142D01*
X107445714Y-111599285D01*
X107445714Y-111027857D01*
X107517142Y-110885000D01*
X107660000Y-110813571D01*
X107945714Y-110813571D01*
X108088571Y-110885000D01*
X108160000Y-111027857D01*
X108160000Y-111170714D01*
X107445714Y-111313571D01*
X108802857Y-110813571D02*
X108802857Y-111813571D01*
X108802857Y-110956428D02*
X108874285Y-110885000D01*
X109017142Y-110813571D01*
X109231428Y-110813571D01*
X109374285Y-110885000D01*
X109445714Y-111027857D01*
X109445714Y-111813571D01*
X110160000Y-111813571D02*
X110160000Y-110813571D01*
X110160000Y-111099285D02*
X110231428Y-110956428D01*
X110302857Y-110885000D01*
X110445714Y-110813571D01*
X110588571Y-110813571D01*
X110945714Y-110813571D02*
X111302857Y-111813571D01*
X111660000Y-110813571D02*
X111302857Y-111813571D01*
X111160000Y-112170714D01*
X111088571Y-112242142D01*
X110945714Y-112313571D01*
X113374285Y-111813571D02*
X113374285Y-110313571D01*
X113945714Y-110313571D01*
X114088571Y-110385000D01*
X114160000Y-110456428D01*
X114231428Y-110599285D01*
X114231428Y-110813571D01*
X114160000Y-110956428D01*
X114088571Y-111027857D01*
X113945714Y-111099285D01*
X113374285Y-111099285D01*
X115445714Y-111742142D02*
X115302857Y-111813571D01*
X115017142Y-111813571D01*
X114874285Y-111742142D01*
X114802857Y-111599285D01*
X114802857Y-111027857D01*
X114874285Y-110885000D01*
X115017142Y-110813571D01*
X115302857Y-110813571D01*
X115445714Y-110885000D01*
X115517142Y-111027857D01*
X115517142Y-111170714D01*
X114802857Y-111313571D01*
X116802857Y-111813571D02*
X116802857Y-110313571D01*
X116802857Y-111742142D02*
X116660000Y-111813571D01*
X116374285Y-111813571D01*
X116231428Y-111742142D01*
X116160000Y-111670714D01*
X116088571Y-111527857D01*
X116088571Y-111099285D01*
X116160000Y-110956428D01*
X116231428Y-110885000D01*
X116374285Y-110813571D01*
X116660000Y-110813571D01*
X116802857Y-110885000D01*
X117517142Y-111813571D02*
X117517142Y-110813571D01*
X117517142Y-111099285D02*
X117588571Y-110956428D01*
X117660000Y-110885000D01*
X117802857Y-110813571D01*
X117945714Y-110813571D01*
X118660000Y-111813571D02*
X118517142Y-111742142D01*
X118445714Y-111670714D01*
X118374285Y-111527857D01*
X118374285Y-111099285D01*
X118445714Y-110956428D01*
X118517142Y-110885000D01*
X118660000Y-110813571D01*
X118874285Y-110813571D01*
X119017142Y-110885000D01*
X119088571Y-110956428D01*
X119160000Y-111099285D01*
X119160000Y-111527857D01*
X119088571Y-111670714D01*
X119017142Y-111742142D01*
X118874285Y-111813571D01*
X118660000Y-111813571D01*
D13*
X110777866Y-147514733D02*
X110981066Y-147582466D01*
X111319733Y-147582466D01*
X111455200Y-147514733D01*
X111522933Y-147447000D01*
X111590666Y-147311533D01*
X111590666Y-147176066D01*
X111522933Y-147040600D01*
X111455200Y-146972866D01*
X111319733Y-146905133D01*
X111048800Y-146837400D01*
X110913333Y-146769666D01*
X110845600Y-146701933D01*
X110777866Y-146566466D01*
X110777866Y-146431000D01*
X110845600Y-146295533D01*
X110913333Y-146227800D01*
X111048800Y-146160066D01*
X111387466Y-146160066D01*
X111590666Y-146227800D01*
X112200266Y-146837400D02*
X112674400Y-146837400D01*
X112877600Y-147582466D02*
X112200266Y-147582466D01*
X112200266Y-146160066D01*
X112877600Y-146160066D01*
X114164533Y-147582466D02*
X113487200Y-147582466D01*
X113487200Y-146160066D01*
X114638666Y-146837400D02*
X115112800Y-146837400D01*
X115316000Y-147582466D02*
X114638666Y-147582466D01*
X114638666Y-146160066D01*
X115316000Y-146160066D01*
X116738400Y-147447000D02*
X116670666Y-147514733D01*
X116467466Y-147582466D01*
X116332000Y-147582466D01*
X116128800Y-147514733D01*
X115993333Y-147379266D01*
X115925600Y-147243800D01*
X115857866Y-146972866D01*
X115857866Y-146769666D01*
X115925600Y-146498733D01*
X115993333Y-146363266D01*
X116128800Y-146227800D01*
X116332000Y-146160066D01*
X116467466Y-146160066D01*
X116670666Y-146227800D01*
X116738400Y-146295533D01*
X117144800Y-146160066D02*
X117957600Y-146160066D01*
X117551200Y-147582466D02*
X117551200Y-146160066D01*
D14*
X129961190Y-117592619D02*
X130437380Y-117592619D01*
X129437380Y-117925952D02*
X129961190Y-117592619D01*
X129437380Y-117259285D01*
X130437380Y-116783095D02*
X130389761Y-116878333D01*
X130342142Y-116925952D01*
X130246904Y-116973571D01*
X129961190Y-116973571D01*
X129865952Y-116925952D01*
X129818333Y-116878333D01*
X129770714Y-116783095D01*
X129770714Y-116640238D01*
X129818333Y-116545000D01*
X129865952Y-116497380D01*
X129961190Y-116449761D01*
X130246904Y-116449761D01*
X130342142Y-116497380D01*
X130389761Y-116545000D01*
X130437380Y-116640238D01*
X130437380Y-116783095D01*
X129770714Y-115592619D02*
X130437380Y-115592619D01*
X129770714Y-116021190D02*
X130294523Y-116021190D01*
X130389761Y-115973571D01*
X130437380Y-115878333D01*
X130437380Y-115735476D01*
X130389761Y-115640238D01*
X130342142Y-115592619D01*
X130389761Y-113925952D02*
X130437380Y-114021190D01*
X130437380Y-114211666D01*
X130389761Y-114306904D01*
X130342142Y-114354523D01*
X130246904Y-114402142D01*
X129961190Y-114402142D01*
X129865952Y-114354523D01*
X129818333Y-114306904D01*
X129770714Y-114211666D01*
X129770714Y-114021190D01*
X129818333Y-113925952D01*
X130437380Y-113068809D02*
X129913571Y-113068809D01*
X129818333Y-113116428D01*
X129770714Y-113211666D01*
X129770714Y-113402142D01*
X129818333Y-113497380D01*
X130389761Y-113068809D02*
X130437380Y-113164047D01*
X130437380Y-113402142D01*
X130389761Y-113497380D01*
X130294523Y-113545000D01*
X130199285Y-113545000D01*
X130104047Y-113497380D01*
X130056428Y-113402142D01*
X130056428Y-113164047D01*
X130008809Y-113068809D01*
X129770714Y-112592619D02*
X130437380Y-112592619D01*
X129865952Y-112592619D02*
X129818333Y-112545000D01*
X129770714Y-112449761D01*
X129770714Y-112306904D01*
X129818333Y-112211666D01*
X129913571Y-112164047D01*
X130437380Y-112164047D01*
X129770714Y-110925952D02*
X130770714Y-110925952D01*
X129818333Y-110925952D02*
X129770714Y-110830714D01*
X129770714Y-110640238D01*
X129818333Y-110545000D01*
X129865952Y-110497380D01*
X129961190Y-110449761D01*
X130246904Y-110449761D01*
X130342142Y-110497380D01*
X130389761Y-110545000D01*
X130437380Y-110640238D01*
X130437380Y-110830714D01*
X130389761Y-110925952D01*
X130437380Y-109878333D02*
X130389761Y-109973571D01*
X130342142Y-110021190D01*
X130246904Y-110068809D01*
X129961190Y-110068809D01*
X129865952Y-110021190D01*
X129818333Y-109973571D01*
X129770714Y-109878333D01*
X129770714Y-109735476D01*
X129818333Y-109640238D01*
X129865952Y-109592619D01*
X129961190Y-109545000D01*
X130246904Y-109545000D01*
X130342142Y-109592619D01*
X130389761Y-109640238D01*
X130437380Y-109735476D01*
X130437380Y-109878333D01*
X129770714Y-109211666D02*
X130437380Y-109021190D01*
X129961190Y-108830714D01*
X130437380Y-108640238D01*
X129770714Y-108449761D01*
X130389761Y-107687857D02*
X130437380Y-107783095D01*
X130437380Y-107973571D01*
X130389761Y-108068809D01*
X130294523Y-108116428D01*
X129913571Y-108116428D01*
X129818333Y-108068809D01*
X129770714Y-107973571D01*
X129770714Y-107783095D01*
X129818333Y-107687857D01*
X129913571Y-107640238D01*
X130008809Y-107640238D01*
X130104047Y-108116428D01*
X130437380Y-107211666D02*
X129770714Y-107211666D01*
X129961190Y-107211666D02*
X129865952Y-107164047D01*
X129818333Y-107116428D01*
X129770714Y-107021190D01*
X129770714Y-106925952D01*
X129770714Y-105973571D02*
X129770714Y-105592619D01*
X129437380Y-105830714D02*
X130294523Y-105830714D01*
X130389761Y-105783095D01*
X130437380Y-105687857D01*
X130437380Y-105592619D01*
X130437380Y-105259285D02*
X129437380Y-105259285D01*
X130437380Y-104830714D02*
X129913571Y-104830714D01*
X129818333Y-104878333D01*
X129770714Y-104973571D01*
X129770714Y-105116428D01*
X129818333Y-105211666D01*
X129865952Y-105259285D01*
X130437380Y-104354523D02*
X129770714Y-104354523D01*
X129437380Y-104354523D02*
X129485000Y-104402142D01*
X129532619Y-104354523D01*
X129485000Y-104306904D01*
X129437380Y-104354523D01*
X129532619Y-104354523D01*
X130389761Y-103925952D02*
X130437380Y-103830714D01*
X130437380Y-103640238D01*
X130389761Y-103545000D01*
X130294523Y-103497380D01*
X130246904Y-103497380D01*
X130151666Y-103545000D01*
X130104047Y-103640238D01*
X130104047Y-103783095D01*
X130056428Y-103878333D01*
X129961190Y-103925952D01*
X129913571Y-103925952D01*
X129818333Y-103878333D01*
X129770714Y-103783095D01*
X129770714Y-103640238D01*
X129818333Y-103545000D01*
X129770714Y-102449761D02*
X129770714Y-102068809D01*
X129437380Y-102306904D02*
X130294523Y-102306904D01*
X130389761Y-102259285D01*
X130437380Y-102164047D01*
X130437380Y-102068809D01*
X130389761Y-101354523D02*
X130437380Y-101449761D01*
X130437380Y-101640238D01*
X130389761Y-101735476D01*
X130294523Y-101783095D01*
X129913571Y-101783095D01*
X129818333Y-101735476D01*
X129770714Y-101640238D01*
X129770714Y-101449761D01*
X129818333Y-101354523D01*
X129913571Y-101306904D01*
X130008809Y-101306904D01*
X130104047Y-101783095D01*
X130389761Y-100925952D02*
X130437380Y-100830714D01*
X130437380Y-100640238D01*
X130389761Y-100545000D01*
X130294523Y-100497380D01*
X130246904Y-100497380D01*
X130151666Y-100545000D01*
X130104047Y-100640238D01*
X130104047Y-100783095D01*
X130056428Y-100878333D01*
X129961190Y-100925952D01*
X129913571Y-100925952D01*
X129818333Y-100878333D01*
X129770714Y-100783095D01*
X129770714Y-100640238D01*
X129818333Y-100545000D01*
X129770714Y-100211666D02*
X129770714Y-99830714D01*
X129437380Y-100068809D02*
X130294523Y-100068809D01*
X130389761Y-100021190D01*
X130437380Y-99925952D01*
X130437380Y-99830714D01*
X130389761Y-99116428D02*
X130437380Y-99211666D01*
X130437380Y-99402142D01*
X130389761Y-99497380D01*
X130294523Y-99545000D01*
X129913571Y-99545000D01*
X129818333Y-99497380D01*
X129770714Y-99402142D01*
X129770714Y-99211666D01*
X129818333Y-99116428D01*
X129913571Y-99068809D01*
X130008809Y-99068809D01*
X130104047Y-99545000D01*
X130437380Y-98640238D02*
X129770714Y-98640238D01*
X129961190Y-98640238D02*
X129865952Y-98592619D01*
X129818333Y-98545000D01*
X129770714Y-98449761D01*
X129770714Y-98354523D01*
X129770714Y-97402142D02*
X129770714Y-97021190D01*
X130437380Y-97259285D02*
X129580238Y-97259285D01*
X129485000Y-97211666D01*
X129437380Y-97116428D01*
X129437380Y-97021190D01*
X130437380Y-96687857D02*
X129770714Y-96687857D01*
X129961190Y-96687857D02*
X129865952Y-96640238D01*
X129818333Y-96592619D01*
X129770714Y-96497380D01*
X129770714Y-96402142D01*
X130437380Y-95925952D02*
X130389761Y-96021190D01*
X130342142Y-96068809D01*
X130246904Y-96116428D01*
X129961190Y-96116428D01*
X129865952Y-96068809D01*
X129818333Y-96021190D01*
X129770714Y-95925952D01*
X129770714Y-95783095D01*
X129818333Y-95687857D01*
X129865952Y-95640238D01*
X129961190Y-95592619D01*
X130246904Y-95592619D01*
X130342142Y-95640238D01*
X130389761Y-95687857D01*
X130437380Y-95783095D01*
X130437380Y-95925952D01*
X130437380Y-95164047D02*
X129770714Y-95164047D01*
X129865952Y-95164047D02*
X129818333Y-95116428D01*
X129770714Y-95021190D01*
X129770714Y-94878333D01*
X129818333Y-94783095D01*
X129913571Y-94735476D01*
X130437380Y-94735476D01*
X129913571Y-94735476D02*
X129818333Y-94687857D01*
X129770714Y-94592619D01*
X129770714Y-94449761D01*
X129818333Y-94354523D01*
X129913571Y-94306904D01*
X130437380Y-94306904D01*
X131420714Y-118235476D02*
X131420714Y-117854523D01*
X131087380Y-118092619D02*
X131944523Y-118092619D01*
X132039761Y-118045000D01*
X132087380Y-117949761D01*
X132087380Y-117854523D01*
X132087380Y-117521190D02*
X131087380Y-117521190D01*
X132087380Y-117092619D02*
X131563571Y-117092619D01*
X131468333Y-117140238D01*
X131420714Y-117235476D01*
X131420714Y-117378333D01*
X131468333Y-117473571D01*
X131515952Y-117521190D01*
X132039761Y-116235476D02*
X132087380Y-116330714D01*
X132087380Y-116521190D01*
X132039761Y-116616428D01*
X131944523Y-116664047D01*
X131563571Y-116664047D01*
X131468333Y-116616428D01*
X131420714Y-116521190D01*
X131420714Y-116330714D01*
X131468333Y-116235476D01*
X131563571Y-116187857D01*
X131658809Y-116187857D01*
X131754047Y-116664047D01*
X131087380Y-114997380D02*
X131896904Y-114997380D01*
X131992142Y-114949761D01*
X132039761Y-114902142D01*
X132087380Y-114806904D01*
X132087380Y-114616428D01*
X132039761Y-114521190D01*
X131992142Y-114473571D01*
X131896904Y-114425952D01*
X131087380Y-114425952D01*
X132039761Y-113997380D02*
X132087380Y-113854523D01*
X132087380Y-113616428D01*
X132039761Y-113521190D01*
X131992142Y-113473571D01*
X131896904Y-113425952D01*
X131801666Y-113425952D01*
X131706428Y-113473571D01*
X131658809Y-113521190D01*
X131611190Y-113616428D01*
X131563571Y-113806904D01*
X131515952Y-113902142D01*
X131468333Y-113949761D01*
X131373095Y-113997380D01*
X131277857Y-113997380D01*
X131182619Y-113949761D01*
X131135000Y-113902142D01*
X131087380Y-113806904D01*
X131087380Y-113568809D01*
X131135000Y-113425952D01*
X131563571Y-112664047D02*
X131611190Y-112521190D01*
X131658809Y-112473571D01*
X131754047Y-112425952D01*
X131896904Y-112425952D01*
X131992142Y-112473571D01*
X132039761Y-112521190D01*
X132087380Y-112616428D01*
X132087380Y-112997380D01*
X131087380Y-112997380D01*
X131087380Y-112664047D01*
X131135000Y-112568809D01*
X131182619Y-112521190D01*
X131277857Y-112473571D01*
X131373095Y-112473571D01*
X131468333Y-112521190D01*
X131515952Y-112568809D01*
X131563571Y-112664047D01*
X131563571Y-112997380D01*
X131420714Y-111235476D02*
X132420714Y-111235476D01*
X131468333Y-111235476D02*
X131420714Y-111140238D01*
X131420714Y-110949761D01*
X131468333Y-110854523D01*
X131515952Y-110806904D01*
X131611190Y-110759285D01*
X131896904Y-110759285D01*
X131992142Y-110806904D01*
X132039761Y-110854523D01*
X132087380Y-110949761D01*
X132087380Y-111140238D01*
X132039761Y-111235476D01*
X132087380Y-110187857D02*
X132039761Y-110283095D01*
X131992142Y-110330714D01*
X131896904Y-110378333D01*
X131611190Y-110378333D01*
X131515952Y-110330714D01*
X131468333Y-110283095D01*
X131420714Y-110187857D01*
X131420714Y-110045000D01*
X131468333Y-109949761D01*
X131515952Y-109902142D01*
X131611190Y-109854523D01*
X131896904Y-109854523D01*
X131992142Y-109902142D01*
X132039761Y-109949761D01*
X132087380Y-110045000D01*
X132087380Y-110187857D01*
X132087380Y-109425952D02*
X131420714Y-109425952D01*
X131611190Y-109425952D02*
X131515952Y-109378333D01*
X131468333Y-109330714D01*
X131420714Y-109235476D01*
X131420714Y-109140238D01*
X131420714Y-108949761D02*
X131420714Y-108568809D01*
X131087380Y-108806904D02*
X131944523Y-108806904D01*
X132039761Y-108759285D01*
X132087380Y-108664047D01*
X132087380Y-108568809D01*
X132087380Y-107330714D02*
X132039761Y-107425952D01*
X131992142Y-107473571D01*
X131896904Y-107521190D01*
X131611190Y-107521190D01*
X131515952Y-107473571D01*
X131468333Y-107425952D01*
X131420714Y-107330714D01*
X131420714Y-107187857D01*
X131468333Y-107092619D01*
X131515952Y-107045000D01*
X131611190Y-106997380D01*
X131896904Y-106997380D01*
X131992142Y-107045000D01*
X132039761Y-107092619D01*
X132087380Y-107187857D01*
X132087380Y-107330714D01*
X132087380Y-106568809D02*
X131420714Y-106568809D01*
X131611190Y-106568809D02*
X131515952Y-106521190D01*
X131468333Y-106473571D01*
X131420714Y-106378333D01*
X131420714Y-106283095D01*
X131420714Y-105330714D02*
X131420714Y-104949761D01*
X131087380Y-105187857D02*
X131944523Y-105187857D01*
X132039761Y-105140238D01*
X132087380Y-105045000D01*
X132087380Y-104949761D01*
X132087380Y-104616428D02*
X131087380Y-104616428D01*
X132087380Y-104187857D02*
X131563571Y-104187857D01*
X131468333Y-104235476D01*
X131420714Y-104330714D01*
X131420714Y-104473571D01*
X131468333Y-104568809D01*
X131515952Y-104616428D01*
X132039761Y-103330714D02*
X132087380Y-103425952D01*
X132087380Y-103616428D01*
X132039761Y-103711666D01*
X131944523Y-103759285D01*
X131563571Y-103759285D01*
X131468333Y-103711666D01*
X131420714Y-103616428D01*
X131420714Y-103425952D01*
X131468333Y-103330714D01*
X131563571Y-103283095D01*
X131658809Y-103283095D01*
X131754047Y-103759285D01*
X131420714Y-102092619D02*
X132420714Y-102092619D01*
X131468333Y-102092619D02*
X131420714Y-101997380D01*
X131420714Y-101806904D01*
X131468333Y-101711666D01*
X131515952Y-101664047D01*
X131611190Y-101616428D01*
X131896904Y-101616428D01*
X131992142Y-101664047D01*
X132039761Y-101711666D01*
X132087380Y-101806904D01*
X132087380Y-101997380D01*
X132039761Y-102092619D01*
X132087380Y-101045000D02*
X132039761Y-101140238D01*
X131992142Y-101187857D01*
X131896904Y-101235476D01*
X131611190Y-101235476D01*
X131515952Y-101187857D01*
X131468333Y-101140238D01*
X131420714Y-101045000D01*
X131420714Y-100902142D01*
X131468333Y-100806904D01*
X131515952Y-100759285D01*
X131611190Y-100711666D01*
X131896904Y-100711666D01*
X131992142Y-100759285D01*
X132039761Y-100806904D01*
X132087380Y-100902142D01*
X132087380Y-101045000D01*
X131420714Y-100378333D02*
X132087380Y-100187857D01*
X131611190Y-99997380D01*
X132087380Y-99806904D01*
X131420714Y-99616428D01*
X132039761Y-98854523D02*
X132087380Y-98949761D01*
X132087380Y-99140238D01*
X132039761Y-99235476D01*
X131944523Y-99283095D01*
X131563571Y-99283095D01*
X131468333Y-99235476D01*
X131420714Y-99140238D01*
X131420714Y-98949761D01*
X131468333Y-98854523D01*
X131563571Y-98806904D01*
X131658809Y-98806904D01*
X131754047Y-99283095D01*
X132087380Y-98378333D02*
X131420714Y-98378333D01*
X131611190Y-98378333D02*
X131515952Y-98330714D01*
X131468333Y-98283095D01*
X131420714Y-98187857D01*
X131420714Y-98092619D01*
X131420714Y-96997380D02*
X132420714Y-96997380D01*
X131468333Y-96997380D02*
X131420714Y-96902142D01*
X131420714Y-96711666D01*
X131468333Y-96616428D01*
X131515952Y-96568809D01*
X131611190Y-96521190D01*
X131896904Y-96521190D01*
X131992142Y-96568809D01*
X132039761Y-96616428D01*
X132087380Y-96711666D01*
X132087380Y-96902142D01*
X132039761Y-96997380D01*
X132087380Y-95949761D02*
X132039761Y-96045000D01*
X131992142Y-96092619D01*
X131896904Y-96140238D01*
X131611190Y-96140238D01*
X131515952Y-96092619D01*
X131468333Y-96045000D01*
X131420714Y-95949761D01*
X131420714Y-95806904D01*
X131468333Y-95711666D01*
X131515952Y-95664047D01*
X131611190Y-95616428D01*
X131896904Y-95616428D01*
X131992142Y-95664047D01*
X132039761Y-95711666D01*
X132087380Y-95806904D01*
X132087380Y-95949761D01*
X132087380Y-95187857D02*
X131420714Y-95187857D01*
X131611190Y-95187857D02*
X131515952Y-95140238D01*
X131468333Y-95092619D01*
X131420714Y-94997380D01*
X131420714Y-94902142D01*
X131420714Y-94711666D02*
X131420714Y-94330714D01*
X131087380Y-94568809D02*
X131944523Y-94568809D01*
X132039761Y-94521190D01*
X132087380Y-94425952D01*
X132087380Y-94330714D01*
X131992142Y-93997380D02*
X132039761Y-93949761D01*
X132087380Y-93997380D01*
X132039761Y-94045000D01*
X131992142Y-93997380D01*
X132087380Y-93997380D01*
D15*
X80773209Y-136139161D02*
X81085266Y-136243180D01*
X81605361Y-136243180D01*
X81813400Y-136139161D01*
X81917419Y-136035142D01*
X82021438Y-135827104D01*
X82021438Y-135619066D01*
X81917419Y-135411028D01*
X81813400Y-135307009D01*
X81605361Y-135202990D01*
X81189285Y-135098971D01*
X80981247Y-134994952D01*
X80877228Y-134890933D01*
X80773209Y-134682895D01*
X80773209Y-134474857D01*
X80877228Y-134266819D01*
X80981247Y-134162800D01*
X81189285Y-134058780D01*
X81709380Y-134058780D01*
X82021438Y-134162800D01*
X82645552Y-134058780D02*
X83893780Y-134058780D01*
X83269666Y-136243180D02*
X83269666Y-134058780D01*
X84517895Y-135619066D02*
X85558085Y-135619066D01*
X84309857Y-136243180D02*
X85037990Y-134058780D01*
X85766123Y-136243180D01*
X87742485Y-136243180D02*
X87014352Y-135202990D01*
X86494257Y-136243180D02*
X86494257Y-134058780D01*
X87326409Y-134058780D01*
X87534447Y-134162800D01*
X87638466Y-134266819D01*
X87742485Y-134474857D01*
X87742485Y-134786914D01*
X87638466Y-134994952D01*
X87534447Y-135098971D01*
X87326409Y-135202990D01*
X86494257Y-135202990D01*
X88366600Y-134058780D02*
X89614828Y-134058780D01*
X88990714Y-136243180D02*
X88990714Y-134058780D01*
D12*
X102092857Y-76013571D02*
X101807142Y-76013571D01*
X101664285Y-76085000D01*
X101592857Y-76156428D01*
X101450000Y-76370714D01*
X101378571Y-76656428D01*
X101378571Y-77227857D01*
X101450000Y-77370714D01*
X101521428Y-77442142D01*
X101664285Y-77513571D01*
X101950000Y-77513571D01*
X102092857Y-77442142D01*
X102164285Y-77370714D01*
X102235714Y-77227857D01*
X102235714Y-76870714D01*
X102164285Y-76727857D01*
X102092857Y-76656428D01*
X101950000Y-76585000D01*
X101664285Y-76585000D01*
X101521428Y-76656428D01*
X101450000Y-76727857D01*
X101378571Y-76870714D01*
X102664285Y-76013571D02*
X103164285Y-77513571D01*
X103664285Y-76013571D01*
X105307142Y-76942142D02*
X106450000Y-76942142D01*
X108378571Y-77513571D02*
X108664285Y-77513571D01*
X108807142Y-77442142D01*
X108878571Y-77370714D01*
X109021428Y-77156428D01*
X109092857Y-76870714D01*
X109092857Y-76299285D01*
X109021428Y-76156428D01*
X108950000Y-76085000D01*
X108807142Y-76013571D01*
X108521428Y-76013571D01*
X108378571Y-76085000D01*
X108307142Y-76156428D01*
X108235714Y-76299285D01*
X108235714Y-76656428D01*
X108307142Y-76799285D01*
X108378571Y-76870714D01*
X108521428Y-76942142D01*
X108807142Y-76942142D01*
X108950000Y-76870714D01*
X109021428Y-76799285D01*
X109092857Y-76656428D01*
X109521428Y-76013571D02*
X110021428Y-77513571D01*
X110521428Y-76013571D01*
X112164285Y-77513571D02*
X112164285Y-76013571D01*
X112521428Y-76013571D01*
X112735714Y-76085000D01*
X112878571Y-76227857D01*
X112950000Y-76370714D01*
X113021428Y-76656428D01*
X113021428Y-76870714D01*
X112950000Y-77156428D01*
X112878571Y-77299285D01*
X112735714Y-77442142D01*
X112521428Y-77513571D01*
X112164285Y-77513571D01*
X114521428Y-77370714D02*
X114450000Y-77442142D01*
X114235714Y-77513571D01*
X114092857Y-77513571D01*
X113878571Y-77442142D01*
X113735714Y-77299285D01*
X113664285Y-77156428D01*
X113592857Y-76870714D01*
X113592857Y-76656428D01*
X113664285Y-76370714D01*
X113735714Y-76227857D01*
X113878571Y-76085000D01*
X114092857Y-76013571D01*
X114235714Y-76013571D01*
X114450000Y-76085000D01*
X114521428Y-76156428D01*
X72981428Y-89995714D02*
X74481428Y-89995714D01*
X74481428Y-90567142D01*
X74410000Y-90710000D01*
X74338571Y-90781428D01*
X74195714Y-90852857D01*
X73981428Y-90852857D01*
X73838571Y-90781428D01*
X73767142Y-90710000D01*
X73695714Y-90567142D01*
X73695714Y-89995714D01*
X72981428Y-91495714D02*
X73981428Y-91495714D01*
X74481428Y-91495714D02*
X74410000Y-91424285D01*
X74338571Y-91495714D01*
X74410000Y-91567142D01*
X74481428Y-91495714D01*
X74338571Y-91495714D01*
X73981428Y-92210000D02*
X72981428Y-92210000D01*
X73838571Y-92210000D02*
X73910000Y-92281428D01*
X73981428Y-92424285D01*
X73981428Y-92638571D01*
X73910000Y-92781428D01*
X73767142Y-92852857D01*
X72981428Y-92852857D01*
X72981428Y-95495714D02*
X72981428Y-94638571D01*
X72981428Y-95067142D02*
X74481428Y-95067142D01*
X74267142Y-94924285D01*
X74124285Y-94781428D01*
X74052857Y-94638571D01*
D10*
X121790000Y-129035000D02*
X139830000Y-129035000D01*
X121790000Y-85595000D02*
X121790000Y-129035000D01*
X139830000Y-85595000D02*
X121790000Y-85595000D01*
X137160000Y-88265000D02*
X139830000Y-88265000D01*
X137160000Y-123825000D02*
X137160000Y-88265000D01*
X137160000Y-123825000D02*
X139830000Y-123825000D01*
X124460000Y-88265000D02*
X121790000Y-88265000D01*
X124460000Y-126365000D02*
X124460000Y-88265000D01*
X124460000Y-126365000D02*
X121790000Y-126365000D01*
X139830000Y-129035000D02*
X139830000Y-126365000D01*
X139830000Y-123825000D02*
X139830000Y-85595000D01*
X137160000Y-126365000D02*
X139830000Y-126365000D01*
X137160000Y-123825000D02*
X137160000Y-126365000D01*
D16*
X104546400Y-124307600D02*
X104546400Y-127152400D01*
X111607600Y-124307600D02*
X104546400Y-124307600D01*
X111607600Y-127152400D02*
X111607600Y-124307600D01*
X104546400Y-127152400D02*
X111607600Y-127152400D01*
D17*
X79790000Y-144740000D02*
G75*
G03X79790000Y-144740000I-100000J0D01*
G01*
D18*
X80490000Y-147140000D02*
X89690000Y-147140000D01*
X89690000Y-137340000D02*
X80490000Y-137340000D01*
X89690000Y-147140000D02*
X89690000Y-137340000D01*
X80490000Y-137340000D02*
X80490000Y-147140000D01*
D10*
X86070000Y-91380000D02*
X84820000Y-91380000D01*
X86070000Y-111820000D02*
X86070000Y-91380000D01*
X81570000Y-111820000D02*
X86070000Y-111820000D01*
X81570000Y-91380000D02*
X81570000Y-111820000D01*
X82820000Y-91380000D02*
X81570000Y-91380000D01*
X84820000Y-91380000D02*
G75*
G02X82820000Y-91380000I-1000000J0D01*
G01*
D19*
X108150000Y-95980000D02*
G75*
G03X108150000Y-95980000I-200000J0D01*
G01*
D18*
X105400000Y-94680000D02*
X103450000Y-94680000D01*
X103450000Y-88430000D02*
X103450000Y-80280000D01*
X112450000Y-94680000D02*
X110600000Y-94680000D01*
X103450000Y-94680000D02*
X103450000Y-93530000D01*
X112450000Y-80280000D02*
X112450000Y-94680000D01*
X103450000Y-80280000D02*
X112450000Y-80280000D01*
D16*
X104546400Y-128117600D02*
X104546400Y-130962400D01*
X111607600Y-128117600D02*
X104546400Y-128117600D01*
X111607600Y-130962400D02*
X111607600Y-128117600D01*
X104546400Y-130962400D02*
X111607600Y-130962400D01*
X104546400Y-120497600D02*
X104546400Y-123342400D01*
X111607600Y-120497600D02*
X104546400Y-120497600D01*
X111607600Y-123342400D02*
X111607600Y-120497600D01*
X104546400Y-123342400D02*
X111607600Y-123342400D01*
D20*
X121005000Y-138715000D02*
X121005000Y-139065000D01*
X120630000Y-138715000D02*
X121005000Y-138715000D01*
X108105000Y-138715000D02*
X108505000Y-138715000D01*
X108105000Y-138715000D02*
X108105000Y-139090000D01*
X108105000Y-145765000D02*
X108105000Y-145340000D01*
X108105000Y-145765000D02*
X108555000Y-145765000D01*
X120980000Y-145765000D02*
X120530000Y-145765000D01*
X121005000Y-145765000D02*
X121005000Y-145340000D01*
D10*
X90150000Y-124820000D02*
X90150000Y-127910000D01*
X95210000Y-126365000D02*
G75*
G03X95210000Y-126365000I-2500000J0D01*
G01*
X95700000Y-126364538D02*
G75*
G02X90150000Y-127909830I-2990000J-462D01*
G01*
X95700000Y-126365462D02*
G75*
G03X90150000Y-124820170I-2990000J462D01*
G01*
X74910000Y-124820000D02*
X74910000Y-127910000D01*
X79970000Y-126365000D02*
G75*
G03X79970000Y-126365000I-2500000J0D01*
G01*
X80460000Y-126364538D02*
G75*
G02X74910000Y-127909830I-2990000J-462D01*
G01*
X80460000Y-126365462D02*
G75*
G03X74910000Y-124820170I-2990000J462D01*
G01*
D13*
X123088400Y-130412066D02*
X123765733Y-130412066D01*
X122952933Y-130818466D02*
X123427066Y-129396066D01*
X123901200Y-130818466D01*
X125188133Y-130818466D02*
X124714000Y-130141133D01*
X124375333Y-130818466D02*
X124375333Y-129396066D01*
X124917200Y-129396066D01*
X125052666Y-129463800D01*
X125120400Y-129531533D01*
X125188133Y-129667000D01*
X125188133Y-129870200D01*
X125120400Y-130005666D01*
X125052666Y-130073400D01*
X124917200Y-130141133D01*
X124375333Y-130141133D01*
X125797733Y-130818466D02*
X125797733Y-129396066D01*
X126136400Y-129396066D01*
X126339600Y-129463800D01*
X126475066Y-129599266D01*
X126542800Y-129734733D01*
X126610533Y-130005666D01*
X126610533Y-130208866D01*
X126542800Y-130479800D01*
X126475066Y-130615266D01*
X126339600Y-130750733D01*
X126136400Y-130818466D01*
X125797733Y-130818466D01*
X127220133Y-129396066D02*
X127220133Y-130547533D01*
X127287866Y-130683000D01*
X127355600Y-130750733D01*
X127491066Y-130818466D01*
X127762000Y-130818466D01*
X127897466Y-130750733D01*
X127965200Y-130683000D01*
X128032933Y-130547533D01*
X128032933Y-129396066D01*
X128710266Y-130818466D02*
X128710266Y-129396066D01*
X129387600Y-130818466D02*
X129387600Y-129396066D01*
X130200400Y-130818466D01*
X130200400Y-129396066D01*
X131148666Y-129396066D02*
X131419600Y-129396066D01*
X131555066Y-129463800D01*
X131690533Y-129599266D01*
X131758266Y-129870200D01*
X131758266Y-130344333D01*
X131690533Y-130615266D01*
X131555066Y-130750733D01*
X131419600Y-130818466D01*
X131148666Y-130818466D01*
X131013200Y-130750733D01*
X130877733Y-130615266D01*
X130810000Y-130344333D01*
X130810000Y-129870200D01*
X130877733Y-129599266D01*
X131013200Y-129463800D01*
X131148666Y-129396066D01*
X133451600Y-130818466D02*
X133451600Y-129396066D01*
X134264400Y-130818466D01*
X134264400Y-129396066D01*
X134874000Y-130412066D02*
X135551333Y-130412066D01*
X134738533Y-130818466D02*
X135212666Y-129396066D01*
X135686800Y-130818466D01*
X136160933Y-130818466D02*
X136160933Y-129396066D01*
X136973733Y-130818466D01*
X136973733Y-129396066D01*
X137922000Y-129396066D02*
X138192933Y-129396066D01*
X138328400Y-129463800D01*
X138463866Y-129599266D01*
X138531600Y-129870200D01*
X138531600Y-130344333D01*
X138463866Y-130615266D01*
X138328400Y-130750733D01*
X138192933Y-130818466D01*
X137922000Y-130818466D01*
X137786533Y-130750733D01*
X137651066Y-130615266D01*
X137583333Y-130344333D01*
X137583333Y-129870200D01*
X137651066Y-129599266D01*
X137786533Y-129463800D01*
X137922000Y-129396066D01*
D14*
X107862714Y-126182380D02*
X107291285Y-126182380D01*
X107577000Y-126182380D02*
X107577000Y-125182380D01*
X107481761Y-125325238D01*
X107386523Y-125420476D01*
X107291285Y-125468095D01*
X108291285Y-126182380D02*
X108291285Y-125182380D01*
X108862714Y-126182380D02*
X108434142Y-125610952D01*
X108862714Y-125182380D02*
X108291285Y-125753809D01*
X102235000Y-125182380D02*
X102235000Y-125420476D01*
X101996904Y-125325238D02*
X102235000Y-125420476D01*
X102473095Y-125325238D01*
X102092142Y-125610952D02*
X102235000Y-125420476D01*
X102377857Y-125610952D01*
D11*
X79365928Y-83194071D02*
X80127928Y-83194071D01*
X79365928Y-84337071D01*
X80127928Y-84337071D01*
X80563357Y-84337071D02*
X80563357Y-83194071D01*
X81488642Y-83738357D02*
X81107642Y-83738357D01*
X81107642Y-84337071D02*
X81107642Y-83194071D01*
X81651928Y-83194071D01*
X82087357Y-83901642D02*
X82958214Y-83901642D01*
X83448071Y-84282642D02*
X83611357Y-84337071D01*
X83883500Y-84337071D01*
X83992357Y-84282642D01*
X84046785Y-84228214D01*
X84101214Y-84119357D01*
X84101214Y-84010500D01*
X84046785Y-83901642D01*
X83992357Y-83847214D01*
X83883500Y-83792785D01*
X83665785Y-83738357D01*
X83556928Y-83683928D01*
X83502500Y-83629500D01*
X83448071Y-83520642D01*
X83448071Y-83411785D01*
X83502500Y-83302928D01*
X83556928Y-83248500D01*
X83665785Y-83194071D01*
X83937928Y-83194071D01*
X84101214Y-83248500D01*
X84808785Y-83194071D02*
X85026500Y-83194071D01*
X85135357Y-83248500D01*
X85244214Y-83357357D01*
X85298642Y-83575071D01*
X85298642Y-83956071D01*
X85244214Y-84173785D01*
X85135357Y-84282642D01*
X85026500Y-84337071D01*
X84808785Y-84337071D01*
X84699928Y-84282642D01*
X84591071Y-84173785D01*
X84536642Y-83956071D01*
X84536642Y-83575071D01*
X84591071Y-83357357D01*
X84699928Y-83248500D01*
X84808785Y-83194071D01*
X86441642Y-84228214D02*
X86387214Y-84282642D01*
X86223928Y-84337071D01*
X86115071Y-84337071D01*
X85951785Y-84282642D01*
X85842928Y-84173785D01*
X85788500Y-84064928D01*
X85734071Y-83847214D01*
X85734071Y-83683928D01*
X85788500Y-83466214D01*
X85842928Y-83357357D01*
X85951785Y-83248500D01*
X86115071Y-83194071D01*
X86223928Y-83194071D01*
X86387214Y-83248500D01*
X86441642Y-83302928D01*
X86931500Y-84337071D02*
X86931500Y-83194071D01*
X87584642Y-84337071D02*
X87094785Y-83683928D01*
X87584642Y-83194071D02*
X86931500Y-83847214D01*
X88074499Y-83738357D02*
X88455499Y-83738357D01*
X88618785Y-84337071D02*
X88074499Y-84337071D01*
X88074499Y-83194071D01*
X88618785Y-83194071D01*
X88945357Y-83194071D02*
X89598499Y-83194071D01*
X89271928Y-84337071D02*
X89271928Y-83194071D01*
D16*
X100414361Y-91826557D02*
X101412218Y-91826557D01*
X101611789Y-91874215D01*
X101744837Y-91969532D01*
X101811361Y-92112507D01*
X101811361Y-92207824D01*
X101811361Y-90825730D02*
X101811361Y-91397631D01*
X101811361Y-91111680D02*
X100414361Y-91111680D01*
X100613932Y-91206997D01*
X100746980Y-91302314D01*
X100813504Y-91397631D01*
D14*
X106815095Y-129325714D02*
X106815095Y-129992380D01*
X106577000Y-128944761D02*
X106338904Y-129659047D01*
X106957952Y-129659047D01*
X107243666Y-128992380D02*
X107910333Y-128992380D01*
X107481761Y-129992380D01*
X108481761Y-128992380D02*
X108577000Y-128992380D01*
X108672238Y-129040000D01*
X108719857Y-129087619D01*
X108767476Y-129182857D01*
X108815095Y-129373333D01*
X108815095Y-129611428D01*
X108767476Y-129801904D01*
X108719857Y-129897142D01*
X108672238Y-129944761D01*
X108577000Y-129992380D01*
X108481761Y-129992380D01*
X108386523Y-129944761D01*
X108338904Y-129897142D01*
X108291285Y-129801904D01*
X108243666Y-129611428D01*
X108243666Y-129373333D01*
X108291285Y-129182857D01*
X108338904Y-129087619D01*
X108386523Y-129040000D01*
X108481761Y-128992380D01*
X109815095Y-129992380D02*
X109481761Y-129516190D01*
X109243666Y-129992380D02*
X109243666Y-128992380D01*
X109624619Y-128992380D01*
X109719857Y-129040000D01*
X109767476Y-129087619D01*
X109815095Y-129182857D01*
X109815095Y-129325714D01*
X109767476Y-129420952D01*
X109719857Y-129468571D01*
X109624619Y-129516190D01*
X109243666Y-129516190D01*
X102235000Y-128992380D02*
X102235000Y-129230476D01*
X101996904Y-129135238D02*
X102235000Y-129230476D01*
X102473095Y-129135238D01*
X102092142Y-129420952D02*
X102235000Y-129230476D01*
X102377857Y-129420952D01*
X106815095Y-121705714D02*
X106815095Y-122372380D01*
X106577000Y-121324761D02*
X106338904Y-122039047D01*
X106957952Y-122039047D01*
X107243666Y-121372380D02*
X107910333Y-121372380D01*
X107481761Y-122372380D01*
X108481761Y-121372380D02*
X108577000Y-121372380D01*
X108672238Y-121420000D01*
X108719857Y-121467619D01*
X108767476Y-121562857D01*
X108815095Y-121753333D01*
X108815095Y-121991428D01*
X108767476Y-122181904D01*
X108719857Y-122277142D01*
X108672238Y-122324761D01*
X108577000Y-122372380D01*
X108481761Y-122372380D01*
X108386523Y-122324761D01*
X108338904Y-122277142D01*
X108291285Y-122181904D01*
X108243666Y-121991428D01*
X108243666Y-121753333D01*
X108291285Y-121562857D01*
X108338904Y-121467619D01*
X108386523Y-121420000D01*
X108481761Y-121372380D01*
X109815095Y-122372380D02*
X109481761Y-121896190D01*
X109243666Y-122372380D02*
X109243666Y-121372380D01*
X109624619Y-121372380D01*
X109719857Y-121420000D01*
X109767476Y-121467619D01*
X109815095Y-121562857D01*
X109815095Y-121705714D01*
X109767476Y-121800952D01*
X109719857Y-121848571D01*
X109624619Y-121896190D01*
X109243666Y-121896190D01*
X102235000Y-121372380D02*
X102235000Y-121610476D01*
X101996904Y-121515238D02*
X102235000Y-121610476D01*
X102473095Y-121515238D01*
X102092142Y-121800952D02*
X102235000Y-121610476D01*
X102377857Y-121800952D01*
D13*
X105437304Y-135421914D02*
X105437304Y-136878180D01*
X104917209Y-134589761D02*
X104397114Y-136150047D01*
X105749361Y-136150047D01*
X107725723Y-136878180D02*
X106477495Y-136878180D01*
X107101609Y-136878180D02*
X107101609Y-134693780D01*
X106893571Y-135005838D01*
X106685533Y-135213876D01*
X106477495Y-135317895D01*
X109598066Y-134693780D02*
X109181990Y-134693780D01*
X108973952Y-134797800D01*
X108869933Y-134901819D01*
X108661895Y-135213876D01*
X108557876Y-135629952D01*
X108557876Y-136462104D01*
X108661895Y-136670142D01*
X108765914Y-136774161D01*
X108973952Y-136878180D01*
X109390028Y-136878180D01*
X109598066Y-136774161D01*
X109702085Y-136670142D01*
X109806104Y-136462104D01*
X109806104Y-135942009D01*
X109702085Y-135733971D01*
X109598066Y-135629952D01*
X109390028Y-135525933D01*
X108973952Y-135525933D01*
X108765914Y-135629952D01*
X108661895Y-135733971D01*
X108557876Y-135942009D01*
X111678447Y-135421914D02*
X111678447Y-136878180D01*
X111158352Y-134589761D02*
X110638257Y-136150047D01*
X111990504Y-136150047D01*
X112822657Y-136046028D02*
X114486961Y-136046028D01*
X116463323Y-135421914D02*
X116463323Y-136878180D01*
X115943228Y-134589761D02*
X115423133Y-136150047D01*
X116775380Y-136150047D01*
X118751742Y-136878180D02*
X117503514Y-136878180D01*
X118127628Y-136878180D02*
X118127628Y-134693780D01*
X117919590Y-135005838D01*
X117711552Y-135213876D01*
X117503514Y-135317895D01*
X119583895Y-134901819D02*
X119687914Y-134797800D01*
X119895952Y-134693780D01*
X120416047Y-134693780D01*
X120624085Y-134797800D01*
X120728104Y-134901819D01*
X120832123Y-135109857D01*
X120832123Y-135317895D01*
X120728104Y-135629952D01*
X119479876Y-136878180D01*
X120832123Y-136878180D01*
X122808485Y-134693780D02*
X121768295Y-134693780D01*
X121664276Y-135733971D01*
X121768295Y-135629952D01*
X121976333Y-135525933D01*
X122496428Y-135525933D01*
X122704466Y-135629952D01*
X122808485Y-135733971D01*
X122912504Y-135942009D01*
X122912504Y-136462104D01*
X122808485Y-136670142D01*
X122704466Y-136774161D01*
X122496428Y-136878180D01*
X121976333Y-136878180D01*
X121768295Y-136774161D01*
X121664276Y-136670142D01*
X124784847Y-134693780D02*
X124368771Y-134693780D01*
X124160733Y-134797800D01*
X124056714Y-134901819D01*
X123848676Y-135213876D01*
X123744657Y-135629952D01*
X123744657Y-136462104D01*
X123848676Y-136670142D01*
X123952695Y-136774161D01*
X124160733Y-136878180D01*
X124576809Y-136878180D01*
X124784847Y-136774161D01*
X124888866Y-136670142D01*
X124992885Y-136462104D01*
X124992885Y-135942009D01*
X124888866Y-135733971D01*
X124784847Y-135629952D01*
X124576809Y-135525933D01*
X124160733Y-135525933D01*
X123952695Y-135629952D01*
X123848676Y-135733971D01*
X123744657Y-135942009D01*
D11*
X91240428Y-121833500D02*
X91131571Y-121779071D01*
X90968285Y-121779071D01*
X90805000Y-121833500D01*
X90696142Y-121942357D01*
X90641714Y-122051214D01*
X90587285Y-122268928D01*
X90587285Y-122432214D01*
X90641714Y-122649928D01*
X90696142Y-122758785D01*
X90805000Y-122867642D01*
X90968285Y-122922071D01*
X91077142Y-122922071D01*
X91240428Y-122867642D01*
X91294857Y-122813214D01*
X91294857Y-122432214D01*
X91077142Y-122432214D01*
X92002428Y-121779071D02*
X92220142Y-121779071D01*
X92329000Y-121833500D01*
X92437857Y-121942357D01*
X92492285Y-122160071D01*
X92492285Y-122541071D01*
X92437857Y-122758785D01*
X92329000Y-122867642D01*
X92220142Y-122922071D01*
X92002428Y-122922071D01*
X91893571Y-122867642D01*
X91784714Y-122758785D01*
X91730285Y-122541071D01*
X91730285Y-122160071D01*
X91784714Y-121942357D01*
X91893571Y-121833500D01*
X92002428Y-121779071D01*
X93199857Y-121779071D02*
X93417571Y-121779071D01*
X93526428Y-121833500D01*
X93635285Y-121942357D01*
X93689714Y-122160071D01*
X93689714Y-122541071D01*
X93635285Y-122758785D01*
X93526428Y-122867642D01*
X93417571Y-122922071D01*
X93199857Y-122922071D01*
X93091000Y-122867642D01*
X92982142Y-122758785D01*
X92927714Y-122541071D01*
X92927714Y-122160071D01*
X92982142Y-121942357D01*
X93091000Y-121833500D01*
X93199857Y-121779071D01*
X94179571Y-122922071D02*
X94179571Y-121779071D01*
X94451714Y-121779071D01*
X94615000Y-121833500D01*
X94723857Y-121942357D01*
X94778285Y-122051214D01*
X94832714Y-122268928D01*
X94832714Y-122432214D01*
X94778285Y-122649928D01*
X94723857Y-122758785D01*
X94615000Y-122867642D01*
X94451714Y-122922071D01*
X94179571Y-122922071D01*
X76490285Y-122323357D02*
X76653571Y-122377785D01*
X76708000Y-122432214D01*
X76762428Y-122541071D01*
X76762428Y-122704357D01*
X76708000Y-122813214D01*
X76653571Y-122867642D01*
X76544714Y-122922071D01*
X76109285Y-122922071D01*
X76109285Y-121779071D01*
X76490285Y-121779071D01*
X76599142Y-121833500D01*
X76653571Y-121887928D01*
X76708000Y-121996785D01*
X76708000Y-122105642D01*
X76653571Y-122214500D01*
X76599142Y-122268928D01*
X76490285Y-122323357D01*
X76109285Y-122323357D01*
X77197857Y-122595500D02*
X77742142Y-122595500D01*
X77089000Y-122922071D02*
X77470000Y-121779071D01*
X77851000Y-122922071D01*
X78232000Y-122922071D02*
X78232000Y-121779071D01*
X78504142Y-121779071D01*
X78667428Y-121833500D01*
X78776285Y-121942357D01*
X78830714Y-122051214D01*
X78885142Y-122268928D01*
X78885142Y-122432214D01*
X78830714Y-122649928D01*
X78776285Y-122758785D01*
X78667428Y-122867642D01*
X78504142Y-122922071D01*
X78232000Y-122922071D01*
M02*
