M48
; DRILL file {KiCad (5.1.5)-3} date 2021-03-21 10:57:58 PM
; FORMAT={-:-/ absolute / inch / decimal}
; #@! TF.CreationDate,2021-03-21T22:57:58-03:00
; #@! TF.GenerationSoftware,Kicad,Pcbnew,(5.1.5)-3
; #@! TF.FileFunction,Plated,1,2,PTH
FMAT,2
INCH
T1C0.0157
T2C0.0315
T3C0.0340
T4C0.0354
T5C0.0374
T6C0.0394
T7C0.0728
%
G90
G05
T1
X3.6Y-3.425
X3.6Y-3.65
X5.2729Y-5.4729
T2
X3.15Y-3.65
X3.15Y-3.75
X3.15Y-3.85
X3.15Y-3.95
X3.15Y-4.05
X3.15Y-4.15
X3.15Y-4.25
X3.15Y-4.35
X3.45Y-3.65
X3.45Y-3.75
X3.45Y-3.85
X3.45Y-3.95
X3.45Y-4.05
X3.45Y-4.15
X3.45Y-4.25
X3.45Y-4.35
X4.85Y-3.525
X4.85Y-3.625
X4.85Y-3.725
X4.85Y-3.825
X4.85Y-3.925
X4.85Y-4.025
X4.85Y-4.125
X4.85Y-4.225
X4.85Y-4.325
X4.85Y-4.425
X4.85Y-4.525
X4.85Y-4.625
X4.85Y-4.725
X4.85Y-4.825
X4.85Y-4.925
X5.45Y-3.525
X5.45Y-3.625
X5.45Y-3.725
X5.45Y-3.825
X5.45Y-3.925
X5.45Y-4.025
X5.45Y-4.125
X5.45Y-4.225
X5.45Y-4.325
X5.45Y-4.425
X5.45Y-4.525
X5.45Y-4.625
X5.45Y-4.725
X5.45Y-4.825
X5.45Y-4.925
T3
X4.025Y-5.1
X4.485Y-5.1
X4.025Y-4.95
X4.485Y-4.95
X4.025Y-4.8
X4.485Y-4.8
T4
X3.6Y-4.975
X3.7Y-4.975
X3.0Y-4.975
X3.1Y-4.975
T5
X3.2319Y-5.5016
X3.2319Y-5.6984
X3.4681Y-5.5016
X3.4681Y-5.6984
T7
X4.325Y-5.6
X4.51Y-5.6
X4.6951Y-5.6
T6
G00X4.065Y-3.6213
M15
G01X4.065Y-3.5425
M16
G05
G00X4.2106Y-3.4638
M15
G01X4.2894Y-3.4638
M16
G05
G00X4.2008Y-3.7
M15
G01X4.2992Y-3.7
M16
G05
T0
M30
